<svg xmlns="http://www.w3.org/2000/svg" width="812.281" height="602.625"><path d="M310.705 11.025l.009.006-.009-.006m-53.3 3h.519-.519m250.4 17.616l.422.175-.213-.088-.209-.087m72.942 36.315l.257.136-.156-.083-.1-.053m-43.772 1.469c-.077 0-.171.182-.031.509.16-.35.1-.509.031-.509m-42.708 47.507c-.273 0-.045.466.316.931a2.393 2.393 0 001.1.929c.195 0 .246-.277-.015-1.044a3.6 3.6 0 00-1.405-.816m121.578 4.41c-.058 0-.073.1-.05.276.1-.17.12-.268.057-.275h-.007m-216.721 9.719l.216.016-.081-.006-.135-.01m204.639.256c-.007 0-.009 0-.006.008a.749.749 0 00.705.383 1.431 1.431 0 00.18-.012 6.657 6.657 0 00-.879-.379m82.6 12.419l1.093 1.182-.745-.806-.348-.376M93.731 148.7l-.008.017-.591 1.285.3-.657.3-.645m16.021 64.1a.537.537 0 00.547.388.944.944 0 01-.547-.388m37.512 63.925l-2.178.9-2.177.895 4.328-1.78.027-.011m-46.5 74.059a8.186 8.186 0 00-.233 2.664c0 1.332.078 2.663.272 2.663a2.594 2.594 0 00.433-1.458c-.186-2.868-.349-3.869-.472-3.869m244.365 7.8l-.32.125.061-.023.259-.1m107.94 30.53l-.038.191a8.956 8.956 0 00-.038.2l.076-.389m276.557 9.657a22.745 22.745 0 002.211.911q-1.026-.47-2.12-.892a.5.5 0 00-.091-.019M808.176 411.823c-.149 0-.261.122-.307.417 1.232 1.543 1.816 2.071 2.006 2.071.207 0-.048-.622-.44-1.244a2.559 2.559 0 00-1.259-1.244m-499.123 5.965a1.3 1.3 0 00-.061.172 1.6 1.6 0 01.061-.172m404.921 17.728a1.5 1.5 0 01.074.33 1.241 1.241 0 00-.074-.33m-3.881 10.335a.984.984 0 01-.5.318.1.1 0 00.075.035.805.805 0 00.43-.353m-486.031 43.354h-.015a.1.1 0 00.068.066.023.023 0 00.021-.033.071.071 0 00-.074-.034m272.541 18.882a.763.763 0 010 .082.788.788 0 000-.082m-247.3.647a.012.012 0 00-.012.009c-.026.061.017.089.119.089h.016a.271.271 0 00-.115-.1m280.18 12.826a.076.076 0 00-.06.1.158.158 0 00.172.1.438.438 0 00.076-.007.285.285 0 00-.188-.2m17.157 5.149l.156.037.429.1-.585-.137M355.37 546.874l-.473.218.473-.218m23.706 4.616l-.041.023.041-.023m344 .322c-.173 0-.894.732-.441.82.471-.615.533-.82.441-.82m-291.765 9.061l.054.137-.054-.138m.054.138l.042.109-.042-.109m136.386 6.977l-.086.011-.1.012.185-.023m136.661 1.848c-2.5 0-4.534.394-2.228.866 2.38.326 4.783.577 7.218.727.636-1.177-2.423-1.593-4.99-1.593m-313.374 5.224a6.7 6.7 0 00-.472 4.352 1.337 1.337 0 001.062.451c1.981 0 4.746-3.1-.59-4.8m204.961.649a21.754 21.754 0 00-4.008.562c-1.277.282-2.179.563-1.761.563a56.2 56.2 0 006.102-1.111 4.348 4.348 0 00-.336-.011m108.9 4a1.138 1.138 0 00-.36.821l.046-.084a1.414 1.414 0 00.314-.737m-4.4 6.27a21.912 21.912 0 00-3.794.571c-1.243.279-2.131.559-1.6.571q2.948-.336 5.97-.86a.118.118 0 01.011-.019c.108-.188-.139-.263-.587-.263m-11.494 12.17c-.341 0-.834.22-.047.436l.131-.1c.294-.245.137-.337-.084-.337m-197.108 4.021c-3.477.591 5.543 3.663 7.181 3.663.9 0-.415-.919-7.181-3.663m129.2 18.983c-1.168 0-1.551.537 2.041 1.876 1.921-1.094-.631-1.876-2.041-1.876m-128.9 5.566c-.674 0-.931.211-.362.771 2.044.458 4.071.844 6.094 1.165.206.021.369.031.494.031.89 0-.152-.492-1.673-.984a19.1 19.1 0 00-4.553-.983m120.457 3a15.382 15.382 0 00-2.586.578 5.076 5.076 0 00-1.643.578 42.3 42.3 0 004.268-.994c.156-.114.122-.162-.039-.162m-81.5 25.242c-.625 0-.077.329.774.659a9.329 9.329 0 002.592.66c.447 0 .565-.192-.032-.722a19.592 19.592 0 00-3.334-.6m16.3 2.931c-.532 0-.489.332-.261.664a1.568 1.568 0 00.85.664c.206 0 .212-.323-.356-1.287l-.015-.026a1.789 1.789 0 00-.218-.015m21.205 92.859c-.172 0 .056.773 1.313 3.021a4.086 4.086 0 00-1.313-3.021m-13.205 70.656c-.146 0 .01 1.455.947 5.791.547-1.134-.684-5.792-.947-5.791m13.281-19.103v-.012.012M568.785 802.158c0-.01.007-.019.011-.028 0 .009-.007.018-.011.028m.969-2.414v-.007.007m0-.032l.008-.021-.008.021m.009-.024l.074-.184-.074.184m-51.191-26.701c2.069 6.67 15.557 18.32 20.459 25.56 6.8 10.046 12.515 21.075 14.846 33.071-7.477-1.211-16.79-14.067-20.534-20.106-7.174-11.571-10.637-25.123-14.613-38.014l.436 1.406.6 1.918s-.3-.959-1.189-3.835m51.361-19.2c-6.107-10.923-16.313-20.184-23.368-30.686-7.544-11.229-13.223-23.817-21.472-34.537 11.6 8.563 22.613 17.547 31.069 29.36 6.5 9.08 16.263 24.579 13.771 35.863m-13.571 73.426c-6.114-28.283-32.638-44.877-43.252-69.928-5.26-12.416-14.785-21.773-21.269-33.419-7.036-12.64-6.379-26.674-10.214-40.245 19.825 22.228 28.869 49.176 44.608 73.829 12.1 18.95 42.212 44.7 30.127 69.763m-4.79-159.651a95.619 95.619 0 00-10.319-10.586q3.178.552 6.38.946l.015.026a38.091 38.091 0 013.924 9.614M554.045 683.351c-11.769-16.631-33.279-22.867-46.8-37.714a112.6 112.6 0 0027.207 9.93c7.889 7 18.415 17.208 19.59 27.784m22.783-43.278c8.994 0 17.641-.5 27.1-3.45-9.91 7.821-21.328 13.679-33.976 15.272a88.75 88.75 0 01-11.1.685 106.293 106.293 0 01-35-6.193q.543.015 1.085.015c13.018 0 24.694-6.455 37.409-6.462h.112c2.5 0 4.928.033 7.318.066s4.724.067 7.041.067m-13.483 173.152c-.3-18.439-14.772-33.4-25.487-46.973-11.212-14.2-18.35-30.152-26.851-45.991-16.262-30.3-45.025-53.28-56.42-85.906 21.079 28.283 49.6 49.312 66.374 80.718a249.328 249.328 0 0028.9 42.339c8.992 10.873 25.449 28.549 19.232 44.033-1.628 4.056-3.8 7.876-5.745 11.78m-.229-175.563c17.533-6.322 34.385-10.527 53.091-10.527h.373l-3.884 2.741c-8.066 2.073-15.838 5.213-24.027 6.809a66.81 66.81 0 01-12.9 1.018c-1.522 0-3.045-.021-4.572-.043s-3.061-.045-4.6-.045c-1.156 0-2.315.013-3.479.047m-44.953-1.568c22.5 0 45.353-10.3 65.592-18.217 26.158-10.232 51.608-16.113 78.765-16.113a192.7 192.7 0 0119.342.982c-18.7 9.3-40.469 9.882-58.717 20.278a36.631 36.631 0 00-12.8-2.055c-16.161 0-35.3 7.555-48.061 12.2-12.316 4.48-24.856 8.674-37.085 8.674a43.537 43.537 0 01-26.852-8.784 63.249 63.249 0 0019.815 3.038m170.8-37.514q-2.073-.5-4.146-.987a36.075 36.075 0 007.351-1.427l-3.074 2.315a2.08 2.08 0 01-.131.1m-253.742.732q1.533 0 3.068-.024c4.527-.072 9.738.12 13.03-3.549-.378 6.438 7.637 16.015 10.7 21.079 4.514 7.468 9 14.937 13.951 22.127 11.185 16.227 24.185 29.061 38.93 41.945 13.217 11.546 18.542 28.452 27.84 43.053 5.142 8.073 10.822 15.88 16.566 23.54 2.028 2.7 5.3 5.34 7 8.186q4.939 1.693 1.69 6.361a70.831 70.831 0 00-1.577 8.634c-10.517-16.392-24.911-29.552-34.544-46.616-8.87-15.716-16.64-31.123-29.266-44.3-12.685-13.239-26.877-24.739-38.105-39.35a257.7 257.7 0 01-16.27-22.891c-4.517-7.453-7.728-14.572-16.4-18.224q1.7.03 3.388.03m70.151 20.077c18.662 0 37.235-8.633 54.686-15.67 12.925-5.211 25.854-9.619 39.873-10.466 2.273-.138 4.547-.2 6.819-.2 13.305 0 26.578 2.11 39.779 3.471-46.023 4.06-87.225 33.352-132.8 33.352a100.713 100.713 0 01-15.8-1.227c-.964-.1-2.857-.439-6.094-1.165a57.44 57.44 0 01-10.059-13.479 52.616 52.616 0 0023.595 5.383m-53.412-24.392a10.577 10.577 0 001.849-4.391c5.617 5.422 12.449 8.331 17.2 14.779 4.367 5.928 6.925 12.98 11.116 19.023 4.363 6.29 10.178 9.952 15.411 15.2 5.333 5.343 9.053 11.484 15.2 16.457 11.9 9.621 26.77 16.786 36.052 29.289 7.725 10.407 14.083 23.649 18.955 35.8a52.5 52.5 0 012.391 7.694c-14.349-28.8-42.427-42.47-65.089-63.5a200.8 200.8 0 01-29.557-34.844c-2.362-3.488-19.021-35.534-23.321-35.536a.734.734 0 00-.212.03m59.452 10.752c22.492 0 46.572-11.8 66.268-18.5a104.388 104.388 0 0135.373-5.6c3.72 0 7.55.129 11.577.341 12.915.681 24.862 7.142 38.143 10.069-18.43-.848-36.745-4.334-55.21-4.334-.525 0-1.048 0-1.573.008-17.534.194-32.927 5.346-48.918 12.071-14.189 5.968-28.422 12.89-43.8 15.161a67.855 67.855 0 01-9.915.761 53.68 53.68 0 01-12.311-1.388c-10.052-2.362-10.063-3.487-15.6-11.318q2.318.174 4.642.172a70.567 70.567 0 0011.821-1.031 51.409 51.409 0 0019.51 3.584m-10.773-5.525c30.545-8.311 57.054-24.728 89.214-24.728q3.208 0 6.494.225c-33.191 6.993-60.8 24.043-95.708 24.5m183.459-12.475c-18.5 0-35.272-5.353-53.389-12.963 12.942 2.066 25.731 4.826 38.624 7.139 6.12 1.1 14.229 2.878 21.749 2.878 4.568 0 8.919-.656 12.474-2.522l-2.46 3.958-.011.019a55.252 55.252 0 01-5.929.861h-.041a97.044 97.044 0 01-11.017.631m-272.824-9.623q1.422 0 2.834-.057c3.334-.136 6.815-.244 9.927-1.6 2.01-.873 4.171-3.7 5.825-4.21a5.887 5.887 0 011.726-.235c7.328 0 21.108 10.331 16.569 18.544-1.887 3.414-8.2 4.914-15.992 4.914-16.4 0-39.382-6.64-41.589-16.071-.529-.628-.59-1.968.472-4.352a66.963 66.963 0 0020.228 3.062m153.019-9.711l.1-.012-.1.012m.1-.012l.071-.009-.071.009M567.732 567.991a81.969 81.969 0 019.769-.578 92.583 92.583 0 0119.86 2.212q-1.823-.055-3.635-.055c-24.832 0-47.915 7.6-70.673 17.078-10.837 4.513-21.77 9.075-33.279 11.586-3.315.723-9.108 2.465-13.449 2.465a9.728 9.728 0 01-3.073-.418c-3.782-1.285-10.145-7.667-13.958-9.938a88.479 88.479 0 009.232.475c34.066 0 65.457-18.706 99.04-22.809l-3.068.372 3.167-.384 1.588-.193-1.5.182m136.788 12.539c-.58-2.184-32.933-2.922-36.778-3.61-13.738-2.455-27.431-6.577-41.441-7.094 10.373-1.337 20.537-3.108 30.874-3.108a77.249 77.249 0 0110.241.649c13.411 1.79 26.059 8.171 39.714 8.306q-1.254 2.4-2.564 4.773l-.046.084m-92.065-14.323c-10.941 0-21.588-4.225-32.746-4.314 20.175-6.846 40.655-10.7 61.828-10.7q1.554 0 3.112.028c12.273.22 24.8 3.43 36.552 6.7 8.265 2.3 17.321 5.918 26.182 5.918a27.488 27.488 0 007.137-.894 85.1 85.1 0 00-5.139 8.489 60.609 60.609 0 01-7.218-.727c-16.782-2.295-32.379-8.274-49.493-8.275-2.163 0-4.348.1-6.565.306-10.588 1-21.083 2.916-31.716 3.425q-.969.045-1.934.045m-129.732 2.885c40.1 0 83.179-15.484 120.623-18.072-17.153 3.753-33.249 10.389-50.438 13.965-15.907 3.31-31.27 8.712-46.852 13.221-11.75 3.4-27.291 8.724-40.669 8.724a40.739 40.739 0 01-7.1-.582c-7.37-1.307-4.615-4.77-9.542-11.092-3.413-4.38-8.575-8.417-14.326-8.417a12.193 12.193 0 00-2.326.223 14.165 14.165 0 00-.8-6.184 64.204 64.204 0 00-.188-.486l.049.125c.049.128.1.255.139.36q-.107-.294-.226-.586l-.148-.381.147.379a20.986 20.986 0 00-2.787-4.862c16.848 10.138 35.309 13.665 54.447 13.665M349.596 549.53l.628-.289-.628.289m29.48 1.96c3.246-1.83 12.456-.94 16.471-1.51 4.077-.578 7.308-1.407 10.59-1.407a17.276 17.276 0 017.334 1.616c7.749 3.479 21.5 16.673 8.336 22.362a26.96 26.96 0 01-10.528 1.8 73.264 73.264 0 01-23.284-4.452c-6.217-2.284-19.977-12.151-8.96-18.385l-1.837 1.033-1.878 1.055 3.756-2.111m103.642 11.9a132.273 132.273 0 01-52.756-10.314c-5.11-2.082-8.484-5-13.5-7.526 8.008-2.3 17.879-10.107 26.706-10.107a12.5 12.5 0 015.639 1.273c4.178 2.069 6.9 6.655 11.481 8.809 4.792 2.254 10.1 3.071 15.293 3.774a95.523 95.523 0 0012.746.985 52.638 52.638 0 009.149-.749 37.848 37.848 0 016.7-.589c3.98 0 7.723.578 12.4 1.048s9.382.679 14.1.679a206.581 206.581 0 0027.346-2c24.389-3.266 48.293-11.893 72.893-11.893a93.7 93.7 0 0114.08 1.026c19.439 2.948 41.187 13.268 61.828 13.268a48.256 48.256 0 0019.669-3.882q-1.818 2.795-3.854 5.434a5.3 5.3 0 00-1.018-.093c-4.192 0-9.977 4.211-14.522 4.353q-.416.013-.831.013c-5.546 0-10.9-1.689-16.2-3.182a228.361 228.361 0 00-38.83-7.661 246.383 246.383 0 00-25.047-1.243 337.743 337.743 0 00-60.178 5.88c-26.777 4.86-53.491 12.256-80.862 12.675-.811.013-1.625.019-2.436.019m105.105-27.059c6.935 0 13.86-1.013 19.453-4.873 4.47-3.084 5.089-5.7 9.235-5.7a17.915 17.915 0 013.9.527c6 1.362 11.456 4.443 17.567 5.8q-3.9-.27-7.827-.269a113.381 113.381 0 00-15.5 1.062l1.372-.193-1.6.225-6.518.915 4.059-.569 2.172-.305c-17.242 2.45-33.983 7.488-51.18 10.183-12.073 1.891-24.225 2.3-36.4 2.3-5.626 0-11.256-.087-16.885-.155 8-4.694 13.522-18.845 22.081-18.845a8.244 8.244 0 012.2.307c13.559 3.752 25.712 7.552 40.286 8.777 4.264.359 8.924.815 13.58.815m120.226-7.072c1.133 0 2.3-.041 3.535-.133 1.822-.135 20.99-2.316 20.779-3.8.927 6.546-.462 13.827-4.95 16.813-3.776 2.514-10.419 3.117-16.4 3.117-3.277 0-6.357-.181-8.662-.327-17.766-1.126-34.265-8.294-51.682-11.3 2.222.122 4.494.205 6.778.205a58.562 58.562 0 0014.843-1.653c6.429-1.7 9.663-5.317 15.568-5.317a15.867 15.867 0 012.244.165c6.52.931 11.594 2.225 17.952 2.225m-23.122-6.129c-.039 0-.084-.071-.039-.243.122.147.084.243.039.243m-156.26-1.053q-.805 0 .388-1.812l.629 1.5a2.772 2.772 0 01-1.017.313m-304.606-32.867h.054a.339.339 0 01.346.16.107.107 0 01-.088.16.468.468 0 01-.317-.318m322.592 37.5c-14.353-3.439-14.593-12.848-14.1-26.139.2-5.348-1.263-14.521 2.559-18.808 3.841-4.309 13.314-5.071 18.605-6.591 4.813-1.382 10.207-2.717 15-2.717 7.479 0 13.49 3.252 13.545 14.656.051 10.42-7.849 11.917-16.43 11.917h-.725c-1.551-.013-5.4-.372-9.283-.372-6.406 0-12.929.975-9.507 6.079 1.316 1.963 4.643 2.577 8.319 2.577a67.972 67.972 0 0012.449-1.5 63.7 63.7 0 0112.423-1.692 25.458 25.458 0 0111.808 2.833c7.119 3.566 22.765 16.948 9.365 21.784-5.541 2-12.077 2.774-18.89 2.774-11.933 0-24.722-2.368-34.546-4.658l1.748.411 4.344 1.02-6.521-1.531-2.168-.51 2.012.473M73.902 393.325a.226.226 0 01-.155-.074h.065a.178.178 0 01.15.039c.008.019-.017.038-.06.038m590.107 4.069a26.524 26.524 0 006.688-.8c4.513-1.161 8.564-3.829 13.306-3.829q.548 0 1.108.049c4.754.426 9.585 2.987 14.682 3.331 10.413.7 19.741-.124 29.92 2.647 4.158 1.608 5.5 2.145 5.459 2.145s-1.49-.541-2.895-1.082l-.444-.171c32.1 14.634 15.194 61.581-11.975 72.259-9.968 3.918-21.371 5.025-32.65 5.025-7.258 0-14.464-.458-21.2-.92a167.184 167.184 0 01-23.914-3.376c-10.615-2.295-20.491-7.669-30.685-10.176a13.725 13.725 0 01-3.142-1.151 20.093 20.093 0 01.612 2.537c.434 3.4 2.883 5.275 2.66 9.4-.1 1.913-2.522 4.776-1.422 6.7a1.059 1.059 0 00.991.558c2.157 0 6.583-4.209 10.075-4.78a30.676 30.676 0 014.934-.379c7.679 0 15.8 2.431 22.984 4 14.724 3.209 28.023 5.178 42.279 5.178 4.89 0 9.891-.232 15.1-.724 3.751-.355 8.13-1.3 12.3-1.3a15.423 15.423 0 018.448 2.089c4.839 3.079 11.566 12.8 12.94 18.515 4.743 19.71-21.549 22.349-35.744 22.349q-.807 0-1.559-.01c-10.2-.138-15.379-3.587-19.143-13.131-.35-.887-8.889-21.2-12.425-21.2a1.031 1.031 0 00-.9.659c-.358.674 7.351 15.368 8.01 17.276 1.69 4.9 3.364 9.314-.5 13.72-4.217 4.808-12.738 5.791-20.135 5.791-2.883 0-5.594-.149-7.815-.279-30.152-1.769-57.218-24.392-62.237-54.626-2.03-12.229.179-29.557 14.358-33.5a25.756 25.756 0 016.942-.894c13.9 0 29.63 9.179 43.239 9.351h.465c6.7 0 13.345-1.809 19.963-3.619s13.21-3.618 19.806-3.618a32.079 32.079 0 015.5.457c2.6.45 8.5 4.367 11.088 4.367a1.816 1.816 0 00.5-.062c-.28-.323.441-2.857 1.381-5.391 1.006-2.712 2.265-5.426 2.818-5.426a.215.215 0 01.187.164c-.339-.962-1.661-1.314-3.653-1.314a91.133 91.133 0 00-11.108 1.312 97.231 97.231 0 01-13.837 1.31c-7.927 0-14.82-2-16.452-9.494-.718-3.3 2.388-23 1.048-24.088a1.991 1.991 0 00-1.251-.518c-3.449 0-5.251 12.241-5.363 13.381-.605 6.152 1.574 15.225-2.35 20.616-2.154 2.958-5.7 4.178-9.369 4.178a18.247 18.247 0 01-9.733-2.848c-7.915-5.236-7.478-16.467-11.169-24.344-1.028-2.193-5.179-8.612-6.963-8.613-.685 0-1.021.946-.7 3.443.782 6.011 6.643 11.113 5.367 18.044-1.076 5.84-5.688 8.211-10.762 8.211a19.086 19.086 0 01-7.3-1.525c-15.867-6.692-20.415-32.006-.467-32.006.639 0 1.3.026 1.99.079.955.074 1.9.108 2.83.108 9.811 0 18.408-3.8 28.424-5.225a28.315 28.315 0 013.983-.268 65.647 65.647 0 018.427.722 65.773 65.773 0 008.448.722m-330.37-36.855c-5.429 0-9.214-1.762-2.661-7.834 2.581-2.393 7.5-3.793 12.328-3.793 5.177 0 10.247 1.609 12.219 5.332-3.447 1.485-6.905 2.953-10.4 4.329l.155-.061.83-.325-1.244.488-.415.162.354-.139a36.953 36.953 0 01-11.168 1.841m16.36 118.1a.813.813 0 00.779-.312c3.561-6.621-23.287-15.933-26.9-16.8-10.219-2.463-22.823-.608-31.515-7.554-8.709-6.96-9.511-19.343-8.591-29.641 1.83-20.489 11.929-45.959 32.989-53.024 11.2-3.759 22.878-5.3 33.986-9.572 10.409-4.005 20.686-8.705 31.425-11.836 3.09-.9 7.477-2.282 11.479-2.282 2.749 0 5.316.652 7.158 2.558 3.254 3.366 1.94 8.767 1.854 12.882-.148 7.054 1.129 12.543 5.878 17.846 6.776 7.563 16.843 9.745 25.694 13.482 11.515 4.862 10.938 16.82 15.554 27.876 8.774 21.015 30.362 31.793 34.828 55.934a56.032 56.032 0 01-.524 22.09c-.5 2.364-6.545 19.49-5.6 20.161a1.7 1.7 0 001 .345c2.281 0 4.312-5.17 5.679-6.8.846-1.013 8.841-6.3 10.943-6.3a.409.409 0 01.5.392c-.014-1.163-2.719-2.015-2.935-2.678-1.132-3.471-2.357-6.124-2.806-9.887-.928-7.782-.528-16.2-.8-24.048-.287-8.136 1.014-17.666 9.79-17.666a15.732 15.732 0 013.525.438c9.27 2.143 15.232 13.09 18.749 21.02a69.86 69.86 0 015.7 34.226c-.684 8.8-5.89 16.966-12.02 23.578-8.092 8.728-20.082 12.534-32.1 12.534a58.149 58.149 0 01-19.114-3.234c-25.395-8.928-8.275-34.169-10.776-53.016-2.746-20.693-18.159-41.182-33.9-54.048-3.619-2.958-7.231-4.857-9.206-9.357-1.022-2.329.2-5.427-2.01-5.427a3.663 3.663 0 00-.8.1c-.115.027-2.963 4.756-4.014 5.345a3.356 3.356 0 01-1.541.267c-.564 0-1.181-.053-1.752-.107s-1.1-.107-1.477-.107a.954.954 0 00-.561.1c-4.309 3.867-.355 4.4 4.174 7.088 17.538 10.413 31.921 24.237 40.788 42.9 9.387 19.761 5.4 46.293-14.677 57.592-10.7 6.024-23.9 8.6-35.912 10.315a86.977 86.977 0 01-12.091.624q-1.343 0-2.7-.007c-.9 0-1.8-.007-2.7-.007-7.868 0-15.751.279-22.342 3.285l1.794-.825-1.873.861c-5.824 2.679-23.073 7.8-36.755 7.8-12.089 0-21.392-4-17.571-17.221 1.757-6.074 7.142-9.2 10.857-14.136 3.245-4.31 5.363-10.751 10.354-13.285a18.786 18.786 0 018.579-1.7 79.328 79.328 0 018.276.6 79.4 79.4 0 008.287.6 24.376 24.376 0 005.01-.461c14.293-3 26.729-16.517 40.779-16.517a23.184 23.184 0 0113.136 4.27c2.417 1.614 5.907 9.057 8.036 9.057.485 0 .9-.385 1.214-1.311 1.115-3.284-2.831-12.639-2.822-16.726 0-1.524 2.624-13.511 1.73-14.058a.745.745 0 00-.395-.111c-1.351 0-3.513 3.311-6.376 6.623s-6.425 6.622-10.575 6.622c-2.534 0-5.288-1.235-8.236-4.458-9.129-9.985-5.032-28.089-10.6-40.326-2.944-6.469-9.895-11.829-11.831-18.355-2.43-8.191 4.539-14.374 10.521-18.815a47.781 47.781 0 0110.923-6.315c2.814-1.094 8.106-.749 9.58-3.513a.016.016 0 01-.011.009 39.073 39.073 0 01-1.362-5.517c-.568-2.759-1.047-5.518-.819-5.518a.037.037 0 01.016 0 .224.224 0 00-.1-.02c-1.695 0-14.32 11.58-16.256 12.883A83.129 83.129 0 01350.046 410c-6.186 1.525-38.762 2.4-41 7.764a.309.309 0 01.247-.237c.523 0 1.356 2.342 2.012 4.682s1.133 4.682.947 4.682a.045.045 0 01-.026-.011.687.687 0 00.425.105c2.427 0 12.479-5.311 15-5.752a35.473 35.473 0 016.092-.528c12.094 0 23.408 6.189 31.2 15.586 18.1 21.834 15.447 61.875-16.484 68.492a28.219 28.219 0 01-5.732.532c-2.47 0-4.955-.231-7.426-.464s-4.927-.463-7.337-.464a26.2 26.2 0 00-5.424.509c-8.5 1.791-11.333 11.016-16.621 16.9a49.185 49.185 0 01-36.113 16.273 44.38 44.38 0 01-9.413-1c-15.918-3.457-32.935-16.932-33.61-34.432a23.671 23.671 0 019.011-19.443c1.413-1.156 17.732-8.508 17.718-8.624-.176-1.356-1.234-1.908-2.872-1.908-3.583 0-9.943 2.64-15.937 5.281s-11.617 5.281-13.729 5.281a1.58 1.58 0 01-.439-.053c-13.6-3.923-15.7-30.282-16.915-41.225-1.025-9.248 1.89-14.7 3.534-23.773 1.3-7.188 2.049-14.432 6.729-20.369 4.744-6.017 9.966-7.866 15.486-7.866 8.142 0 16.933 4.022 25.8 4.618-3.856-.26-15.52-9.2-17.853-12.963-4.126-6.653-3.056-13.252 2.306-18.77a19.106 19.106 0 0114.26-5.9 36.032 36.032 0 0112.421 2.55c8.166 3.052 21.134 6.763 27.832 12.131 7.2 5.769-4.7 15.007-8.141 21.973a67.366 67.366 0 00-6.684 22.691c-.872 8.244-.463 13.631-10.1 14.959a53.629 53.629 0 01-7.366.432c-1.318 0-2.63-.027-3.941-.053s-2.617-.052-3.927-.052a41.412 41.412 0 00-12.355 1.535c-8.28 2.524-14.331 6.649-20.933 12-5 4.057-5.915 6.1-3.92 6.1 1.254 0 3.657-.807 6.912-2.427 8.637-4.3 18.21-7.839 27.97-7.839.314 0 .627 0 .942.011 17.8.422 36.253 13.019 32.966 32.77-1.489 8.944-7.087 16.73-13.765 22.6a90.6 90.6 0 01-12.3 8.614c-.931.577-8.923 3.888-10.061 3.9.781.884 4.832 7.5 5 7.914.835 2.111-1.184 4.613.29 4.613a6.574 6.574 0 002.117-.618c2.828-1.16 6.527-8.829 9.105-11.368 4.319-4.251 9.209-7.872 13.669-11.965 4-3.671 7.847-7.534 10.659-12.221 2.229-3.715 3.23-8.747 5.954-12.1 4.034-4.966 10.635-6.52 17.234-6.52a55.667 55.667 0 0111.144 1.24c4.453.927 21.414 10.843 25.4 10.843M129.766 372.943a22.74 22.74 0 01-10.056-1.883c-13.569-6.573-15.242-33.1 2.4-35.374a14.629 14.629 0 011.876-.118c6.71 0 13.18 4.366 19.48 5.894a30.654 30.654 0 007.3.842c6.7 0 13.151-1.876 20.021-2.885a71.33 71.33 0 0110.306-.712c11.554 0 24.386 2.45 33.722 7.53 15.672 8.528 10.688 22.168.822 33.27-6 6.755-12.246 13.152-15.384 21.824-2.715 7.5-1.69 15.882-6.414 22.519-5.932 8.335-11.962 11.5-18.067 11.5-9.689 0-19.572-7.978-29.58-15.958s-20.14-15.959-30.323-15.959a19.629 19.629 0 00-11.34 3.7l2.306-1.6 2.82-1.956s-1.318.913-5.226 3.625l-.415.287.34-.235c-5.519 3.879 1.718 4.5 6.926 4.5 1.213 0 2.315-.034 3.121-.067s1.318-.067 1.34-.067c7.306.348 14.768 4.847 20.68 8.766a53.17 53.17 0 01-22.986 5.268c-12.44 0-24.656-4.591-31.845-15.366-4.991-7.481-4.035-17.521 6.864-17.649h.05c1.638 0 3.478.929 5.251 1.859s3.478 1.858 4.847 1.858a2.65 2.65 0 00.431-.033c5.335-.869 2.575-4.634 3.108-8.587.787-5.83 2.717-7.473 5.461-7.473 2.716 0 6.231 1.608 10.226 2.361a50 50 0 009.292.767c2.782 0 5.571-.149 8.368-.3s5.6-.3 8.409-.3a49.324 49.324 0 0110.889 1.066c5.45 1.224 13.188 2.773 17.557 6.406 4.242 3.527 4.607 8.749 5.685 14.024 2.432-4.53 3.25-9.288 5.137-13.946 2.793-6.89 8.167-9.8 14.535-13.144 4.156-2.184 12.69-9.038 3.1-10.289a2.838 2.838 0 00-.351-.022c-3.264 0-9.877 5.082-12.5 6.236a44.742 44.742 0 01-14.466 4.089 31.03 31.03 0 01-2.415.092c-9.368 0-18.453-3.942-27.779-4.663a35.265 35.265 0 00-2.7-.095c-1.756 0-3.558.1-5.373.2s-3.641.2-5.446.2m-4.629-45.776a.076.076 0 01-.037-.1c.056.07.053.1.037.1m172.322 37.88a20.926 20.926 0 01-3.7-.239c-11.109-2.32-29.5-14.1-17.718-26.4 10.394-10.849 31.007-8.816 44.725-11.787 14.758-3.195 22.484-13.02 35.063-20.115 6.209-3.5 16.366-5.657 25.414-5.657a39.934 39.934 0 0110.905 1.331c15.838 4.609 5.127 40.458-10.616 40.8q-.537.012-1.074.012a101.649 101.649 0 01-11.254-.834 101.686 101.686 0 00-11.253-.835q-.89 0-1.781.033c-8.474.317-16.58 2.789-24.808 4.6a84.387 84.387 0 01-18.141 2.308c-1.563 0-3.133-.064-4.715-.2-1.223-.108-8.848-2.44-12.39-2.441a1.959 1.959 0 00-1.737.528c-3.127 5.9 18.947 7.342 21.237 8.91 10.765 7.372-8.933 10-18.152 10m112.282-33.35c-5.02 0-5.047-10.382-4.683-15.887 1.152-17.436 11.534-23.55 25.181-23.55a60.254 60.254 0 0110.882 1.089c18.618 3.443 39.558 1.538 56.126 11.9a51.439 51.439 0 0123.422 48.213c-1.96 18.8-13.7 26.306-23.8 40.909-4.114 5.945-7.654 12.356-7.162 19.779.131 1.982.182 5.483 1.777 5.717a3.948 3.948 0 00.56.043c3.08 0 1.668-4.541 2.129-6.895 3.276-16.74 16.263-27.594 32.08-27.594a36.463 36.463 0 017.61.818c15.966 3.4 38.956 5.552 50.035 18.677 13.018 15.424 6.8 37.678-6.746 50.242-8.508 7.888-24.736 17.025-38.375 17.025a23.38 23.38 0 01-9.62-1.891c-21.053-9.442 1.178-31.3 12.016-38.927 3.4-2.39 24.756-9.044 25.178-10.861.336-1.447-3.456-3.4-4.068-4.093-1.565-1.773-5.361-8.47-6.856-9.527a7.071 7.071 0 01-2.06-1.852c-.04 0 .152.769-1.732 2.051-2.989 2.034-5.838 9.428-8.306 12.574a69.361 69.361 0 01-22.551 18.93c-9 4.7-20.215 8.223-31.026 8.223-8.1 0-15.976-1.98-22.525-6.936-14.768-11.174-17.527-33.321-14.24-50.368l-.316 1.613-.806 4.112 1.16-5.923.451-2.3-.413 2.109a63.58 63.58 0 019.592-23.232c4.768-6.926 11.557-11.341 17.06-17.64 5.881-6.731 10.817-19.844 2.4-26.978a12.016 12.016 0 00-8.02-2.681c-19.989 0-54.548 34.161-53.988 34.857 1.56 1.943 7.108 1.82 9.348 3.456.727.532 8.827 9.82 8.048 10.806 3.087-3.9 1.083-13.935 3.665-18.987 3.541-6.926 9.714-12.143 15.948-16.586 4.089-2.916 12.385-7.33 18.215-7.33 4.53 0 7.571 2.664 5.991 10.768-1.463 7.5-9.564 12.848-14.726 17.822-7.2 6.937-13.282 14.626-19.6 22.321-4.533 5.517-9.75 11.276-17.361 11.571a14.34 14.34 0 01-.547.011c-10.331 0-17.277-11.48-18.384-20.726-1.116-9.323 2-18.548 6.317-26.683 1.873-3.533 14.61-19.115 12.822-21.164a3.231 3.231 0 00-2.5-1.23c-5.038 0-11.861 11.435-13.851 12.775a6.972 6.972 0 01-3.746 1.434m-96.469-16.84a6.917 6.917 0 01-2.5-.49c-6.332-2.445-6.383-12.96-6.435-18.282-.052-5.256.438-10.523 3.985-10.523a6.16 6.16 0 012.681.755c3.875 1.925 10.745 15.668 10.129 19.791-.627 4.192-3.566 8.749-7.863 8.749m473.09 41.822a1.411 1.411 0 001.322-.867c.952-1.871-2.4-5.85-3.157-6.838-6.778-8.825-18.1-11.765-22.545-22.753-3.435-8.5-8.549-44.362 4.743-44.362 2.2 0 4.914.986 8.224 3.248 25.754 17.6 12.3 51.658 20.563 76.037 3.744 11.052 12.772 23.744 4.922 34.788-3.64 5.118-9.184 8.214-14.807 10.626-2.007.862-22.493 6.385-22.416 7.881.04.8 1.627 1.1 4.028 1.1 7.226 0 21.836-2.737 23.987-2.957a28.867 28.867 0 012.935-.159c7.493 0 11.9 3.5 12.766 12.418 1.354 13.977-11.038 22.038-23.471 22.038a26.186 26.186 0 01-12.09-2.844l-.072-.037.017.009a2.732 2.732 0 00-1.129-.372c-.718 0-.526.9-.153 1.792a13.916 13.916 0 00.93 1.792c1.053 2.53 4.742 3.387 6.785 4.621 4.327 2.612 7.057 4.325 9.1 9.6 4.55 11.749-1.587 23.967-10.165 32.034-5.377 5.056-14.623 11.038-23.084 11.038a14.4 14.4 0 01-9.688-3.492c-6.144-5.3-12.339-18.143-10.587-26.2 2.5-11.48 14.295-19.961 18.192-31.366 4.176-12.227 3.727-26.013-3.491-37.023-5.336-8.144-14.043-13.47-22.978-16.972a39.35 39.35 0 00-14.672-2.358c-2.237 0-4.475.094-6.713.189s-4.473.188-6.7.188a44.654 44.654 0 01-10.444-1.057c-6.009-1.432-11.085-5.194-9.038-11.421 3.753-11.417 22.331-12.171 32.343-12.171h2.001a78.55 78.55 0 0032.685-7.1c7.5-3.438 15.264-9.207 23.458-9.207a16.854 16.854 0 018.644 2.395c1.325.77 6.86 7.75 9.746 7.75m-766.753 2.004c-2.894-4.9-10.417-18.415-5.211-23.324 2.595-2.447 6.537.947 7.081-4.173.2-1.917-4.928-7.566-6.043-9.375-7.217-11.705-16.458-31.769-1.424-41.571 2.97 10.165 12.239 16.988 15.279 27.269 3.357 11.354 1.755 23.786 4.728 35.378 1.7 6.638 12.771 25.625 4.838 28.789a6.618 6.618 0 01-2.478.467c-6.583 0-14.064-8.882-16.77-13.46m327.431-101.172a1.436 1.436 0 01-1.02-.5 1.944 1.944 0 001.1.487.822.822 0 00.158-.015 1.2 1.2 0 01-.236.024M14.721 237.885l.157-.23-.157.23m703.287 119.312c-7.244 0-14.37-1.653-19.7-5.476-13.044-9.347-10.671-27.832-17.931-41.071a67.09 67.09 0 00-14.5-18.381c-3.794-3.3-6.172-4.089-7.319-9.252-1.093-4.914.431-10.823 1.717-15.481 4.384-15.874 5.274-31.282-6.153-44.842-4.481-5.316-9.724-9.492-6.745-17.334 2.814-7.4 13.282-10.7 19.967-13.351 10.247-4.068 21.731-7.507 32.993-7.507a44.725 44.725 0 0118.328 3.671c9.343 4.149 29.348 26.541 11.3 32.108a13.959 13.959 0 01-4.138.642c-4.21 0-7.947-2.017-11.351-4.841-3.171-2.63-9.3-12.265-13.911-12.266h-.112c-5.625.193 1.125 7.859 2.133 11.849a69.3 69.3 0 011.43 24.357c-.576 5.467-1.28 12.012-4.578 16.631-3.839 5.378-8.829 4.319-4.873 9.851 3.362 4.7 7.885 6.851 10.46 12.937a85.513 85.513 0 015.171 19.4c.509 3.115-.746 27.314-.158 27.7a2.033 2.033 0 001.124.37c3.414 0 5.948-10.165 10.253-10.953a2.6 2.6 0 01.462-.04 8.657 8.657 0 012.631.637 8.658 8.658 0 002.63.637 2.117 2.117 0 002.093-1.567c.617-1.553-4.854-7.8-5.75-9.417-4.608-8.32-9.826-16.339-12.258-25.639-3.829-14.643-2.614-33.56 8.343-45.018 5.057-5.289 10.851-7.637 16.511-7.637 9.371 0 18.376 6.434 23.07 16.618 3.247 7.042 8.116 36.324-3.793 36.324a10.556 10.556 0 01-3.814-.817c-9.71-3.8-.343-6.758 2.864-10.742 3.091-3.839 2.152-4.778-.248-4.778-2.068 0-5.223.7-7.819.836q-.744.039-1.489.039a33.426 33.426 0 01-9.217-1.369c-2.16-.623-8.079-4.66-10.254-4.66a1.292 1.292 0 00-.265.024c-7.722 1.565 3.5 10.4 6.246 13.523 11.529 13.091 21.868 23.994 23.456 41.946 1.285 14.527-1.3 30.132-15.49 37.452a48.014 48.014 0 01-21.313 4.891m-655.38-74.393a2.6 2.6 0 002.805-2.171c.676-2.864-3.926-2.542-5.354-3.288-6.611-3.46-8.21-4.526-8.488-12.264-.835-23.285 8.64-46.128 17.617-67.133 2.283-5.344 6.668-13.824 13.182-13.824a9.144 9.144 0 014.547 1.32c9.909 5.638 2.751 19.163-1.181 26.116-11.109 19.644-8.962 38.126-9.665 59.865-.316 9.758-.692 19.33 3.709 28.327 2.978 6.088 14.347 23.335-.862 24.967a8.778 8.778 0 01-.944.052c-8.378 0-10.1-12.679-8.675-18.8.562-2.414 5.657-9.349 1.728-10.91a2.729 2.729 0 00-1.018-.2c-2.26 0-4.3 2.765-6.638 3.244a2.521 2.521 0 01-.5.046 13.88 13.88 0 01-3.89-1 13.962 13.962 0 00-4.087-1 2.062 2.062 0 00-1.88.875c-1.223 1.9 4.359 7.9 4.981 9.573 3.722 10.006-.5 22.882 2.04 33.467 1 4.186 7.293 24.517 13.3 24.517a2.591 2.591 0 00.455-.04c5.027-.882-5.117-17.881-5.34-23.032-.225-5.205.246-10.886 4.321-12.039a1.784 1.784 0 01.484-.058 12.644 12.644 0 012.815.581 12.789 12.789 0 003.073.581c.129 0 .253-.007.373-.019 3.34-.351 5.453-1.911 8.054-4 5.8-4.652 13.374-16.022 22.183-16.022a10.128 10.128 0 011.954.19c9.156 1.8 8.624 13.334 3.239 18.256-8.53 7.8-14.587 12.572-13.739 25.672-1.58 9.069-.449 17.44-7.524 24.479a30.488 30.488 0 01-17.053 8.089 31.11 31.11 0 01-4.444.335c-12.676 0-18.764-8.979-23.412-21.2-6.7-17.617-11.605-34.035-12.133-53.016-.421-15.117 10.6-23.23 13.69-37.333 1.256 1.6 8.215 6.805 12.277 6.805m31.1-134.108c2.2-4.76 8-6.511 14.1-6.511 6.186 0 12.683 1.8 16.068 4.082 11.441 7.719.688 17.545-6.3 24.393-4.786 4.688-11.946 9.655-19.042 9.655a13.866 13.866 0 01-8-2.489c-10.469-7.173-.557-21 3.176-29.113l.013-.029v.012m-79.82 90.381a17.884 17.884 0 018.3-6.642c2.172-.812 6.331-.008 8.029-.907 2.044-1.082 4.673-1.124 3.051-4.629-1.454-3.14-8.477-1.969-10.489-7.148-1.685-4.339-.065-10 1.165-14.249 7.839-27.083 12.22-54.585 41.338-66.388 3.345-1.356 10.8-4.521 16.418-4.521 2.305 0 4.3.534 5.568 1.945 6.221 6.914-9.833 25.889-14.558 30.42-7.786 7.466-30.979 4.916-32.743 17.749-.592 4.306-.073 5.769.99 5.769 1.889 0 5.5-4.619 7.651-6.1 5.187-3.574 12.341-3.251 18.215-4.837.788 12.961-6.3 24.364-10.963 35.939a146.29 146.29 0 00-9.447 39.377c-3.684-1.4-16.683-11.793-21.069-11.794a2 2 0 00-.574.075c-7.49 2.244 9.2 12.634 11.452 13.757 2.225 1.11 9.327 2.42 10.643 4.236 1.051 1.45-1.52 8.969-1.986 10.875-2.414 9.891-9.017 16.734-12.416 25.961-5.394-9.814-11.254-14.7-13.807-26.07-2.321-10.334-11.843-22.465-4.77-32.815m416.861 31.463c.793 0 1.528-.754 2.209-2.792.256-.762-3.423-4.473-3.462-4.592-1.378-4.472-1.364-9.475-1.666-14.12-1.816-27.954-14.4-55.319-10.76-83.495 1.289-9.97 4.587-26.675 13.511-32.964a10.763 10.763 0 016.061-2.335c7.74 0 10.067 13.932 10.632 20.954 2.173 27.04 7.006 52.487 21.171 76.107a99.889 99.889 0 0023.923 27.745c4.678 3.679 10.992 6.34 11.067 13.123.059 5.322-4.6 10.831-8.319 14.2-6.767 6.122-14.65 8.039-23.031 8.039-7.022 0-14.394-1.346-21.752-2.691s-14.7-2.691-21.671-2.691a41.882 41.882 0 00-8.66.834c-6.76 1.425-16.282 7.027-24.321 7.027a11.788 11.788 0 01-10.163-5.063c-7.3-10.064-.637-29.542.641-40.558 1.935-16.685 1.259-33.677.578-50.4a71.96 71.96 0 01-.1-8.64c.2-2.486 3.837-10.693 3.189-12.683-.49-1.5-9.374-9.088-10.959-9.249a.579.579 0 00-.072 0c-4.886 0 3.523 52.129 3.777 57.056 1.037 20.073-2.77 41.184-11.927 59.135-5.17 10.135-17.389 20.826-29.523 20.826a19.631 19.631 0 01-12.59-4.559c-13.779-11.127-23.44-33.54-25.327-50.545-1.98-17.843 2.862-37.365 17.574-49.006 3.065-2.425 6.767-4.187 10.016-4.187 3.318 0 6.163 1.837 7.376 6.681 1.52 6.068-1.621 15.26-1.7 21.688-.1 8.339-1.152 40.287 11.22 41.166q.633.043 1.185.044c9.507 0 1.814-9.643-.7-13.055-5-6.769-6.136-14.409-6.07-22.7.275-34.737 7.2-97.9 53.319-97.9q1.8 0 3.685.13l-.639-.046-1.233-.088 2.007.144.461.033-.38-.027c11.547.876 12.066 10.36 11.808 20.427-.323 12.544-2.5 24.981-2.631 37.558-.148 14.222 3.554 26.936 6.343 40.721 2.736 13.52.753 22.5-5.2 34.536-1.553 3.143-3.023 5.863-1.256 5.863a10.6 10.6 0 003.992-1.514c3.531-1.862 4.776-4.952 7.89-4.952a8.294 8.294 0 013.707 1.093c2.616 1.337 4.862 5.733 6.775 5.733m-282.583-116.01c-2.527-7.245 12.817-23.072 17.208-27.947 7.948-8.822 17.713-16.309 29.243-19.7a41.661 41.661 0 0111.406-1.894c4.6 0 9.03 1.221 12.046 4.906 6.245 7.628 3.279 25.519 1.331 34.19-2.448 10.894-5.486 26.539-13.4 35.028-3.788 4.061-8.894 5.186-14.356 5.186a84.05 84.05 0 01-10.369-.87 81.561 81.561 0 00-9.81-.87q-.389 0-.77.01a62.5 62.5 0 00-35 12.123c-.787.583-21.408 18.469-25.362 18.469h-.072c1.9.813 8.124 1.784 9.287 2.543 3.444 2.248 2.953 5.579 5.454 7.727 1.269 1.089 1.245 1.853 2.065 1.853a5.567 5.567 0 001.742-.476c2.473-.947 3.669-8.091 4.586-10.2a31.472 31.472 0 017.967-11.515c7.165-6.511 16.332-9.651 25.732-11.287a65.838 65.838 0 0111.226-1.348c4.786 0 9.192 1.167 9.6 5.552.385 4.174-4.911 7.857-6.8 11.454a82 82 0 00-5.775 15.826c-1.1 4.009-1.253 7.921-3.077 11.683-.848 1.749-8.131 8.834-7.634 9.957.538 1.216 6.374 1.247 7.473 1.816 1.115.579 3.288 4.582 4.737 4.582h.047c-.29 0 3.866-23.313 4.527-25.157a63.308 63.308 0 0112.308-20.943c6.679-7.449 18.318-14.755 28.941-14.755a18.831 18.831 0 0116.008 8.36c9.119 12.794.249 34.17-8.141 45.441-1.934 2.6-16.1 14.169-12.555 15.893a2.471 2.471 0 001.092.225c4.855 0 15.635-10.077 17.768-11.987-.382 11.15.175 22.811 3.163 33.617-16.927-8.563-34.93-13.217-53.015-13.218a103.958 103.958 0 00-39.78 7.9c-9.452 3.888-17.451 9.681-25.484 15.866-6.152 4.737-14.551 11.384-23.02 11.384a15.76 15.76 0 01-1.694-.091c-18.2-1.985-7.59-31.535 2.371-37.736a21.263 21.263 0 0111.141-3.236 17.963 17.963 0 019.158 2.432c3.279 1.929 8.213 12.922 11.089 12.922a1.048 1.048 0 00.517-.135c2.96-1.66 2.408-21.691 3.6-25.964a66.309 66.309 0 015.108-12.865c2.008-3.843 9.535-10.959 10.409-14.836.643-2.849.169-3.925-.914-3.925-3.069 0-11.035 8.64-12.372 10.047-6.943 7.305-13.56 17.332-22.453 22.372a22.019 22.019 0 01-10.9 2.968c-13.52 0-24.683-13.247-18.744-28.095 12.568-31.425 50.286-70.93 87.16-70.93.869 0 1.731.022 2.6.066 3.6.184 7.042.626 9.373 3.656 1.75 2.274.139 6.176 3.409 7.187a1.3 1.3 0 00.38.058c3.867 0 6.818-18.149 9.044-21.593 2.113-3.271 7.338-7.228 1.085-8.346a3.05 3.05 0 00-.522-.042c-3.94 0-13.321 6.16-16.676 7.39a264.814 264.814 0 01-32.695 9.267m362.666 101.337c-2.93 0-6.2-.9-10.137-3.016-11.6-6.242-19.838-17.014-26.7-28-14.8-23.7-21.336-49.371-18.5-77.139 1.069-10.479 2.439-29.286 9.172-38 3.084-3.991 6.28-5.517 9.47-5.517 7.743 0 15.457 8.988 21.484 13.533 3.442 10.109 4.88 22.012 5.211 32.614.415 13.225-3.644 25.962-3.7 39.1a45.248 45.248 0 005.531 22.416c.561 1.1 2.961 9.965 3.493 10.244a2.712 2.712 0 001.268.346c3.267 0 4.673-7.413 6.315-9.911 2.133-3.243 11.008-8.627 8.7-12.326a2.844 2.844 0 00-2.629-1.3 19.284 19.284 0 00-5.2 1.2 19.708 19.708 0 01-5.613 1.205c-2.772 0-5.012-1.507-5.608-6.905-.592-5.369 1.772-12.208 2.159-17.753.373-5.393.143-10.846.588-16.222.912-11.042 2.2-25.1 10.718-33.2 8.033-7.633 21.865-13.5 34.528-13.5 6.641 0 12.959 1.613 17.954 5.432 15.791 12.074 11.541 41.41 18.955 58.5 10.185 23.482 29.295 27.278 49.476 39.126 19.836 11.644 26.952 37.056 12.525 56.018-11.467 15.071-28.415 19.6-45.847 19.6a156.016 156.016 0 01-29.738-3.368c-6.607-1.3-13.4-2.555-20.052-3.434-3.107-.41-6.331-.125-9.41-.695-2.185-.4-5.822-2.637-7.309-2.775-.682-.064-1.207-.1-1.6-.1-2.723 0 .759 1.6 1.1 6.091.075.983-4.082 9.643-2.941 10.272a.05.05 0 00.027 0c.778 0 14.417-6.551 17.444-6.636.319-.009.64-.013.959-.013 7.645 0 15.349 2.489 22.756 3.977 11.156 2.241 21.6 3.767 32.078 3.767a97.1 97.1 0 0026.272-3.533 47.124 47.124 0 0112.458-1.957c9.261 0 16.408 4.159 23.657 13.918 9.129 12.292 13.557 28.249 10.24 43.362-6.951 31.651-40.288 41.443-68.931 41.878-1.229.019-2.5.029-3.806.029-23.932 0-59.984-3.45-76.114-22.164-7.693-8.927-10.91-27.667 5.112-27.667.544 0 1.109.022 1.7.066 6.733.506 12.742 4.99 19.523 6.353a41.207 41.207 0 008.148.811c7.444 0 14.526-1.976 21.785-4.761 6.977-2.678 14.2-7.283 21.8-7.795q.774-.053 1.469-.052c6.307 0 7.954 3.108 13.024 6.091 2.074 1.221 1.881 2.109 1.984 2.109a17.384 17.384 0 011.637-1.582c1.028-.865 2.218-4.024 3.441-5.283a2.063 2.063 0 011.539-.475c.306 0 .625.024.941.047s.631.047.926.047c.849 0 1.541-.195 1.684-1.149.781-5.263-14.285-7.4-17.448-7.423h-.23c-7.412 0-14.636 2.656-21.447 5.289-10.88 4.206-20.547 8.017-30.921 8.017a42.779 42.779 0 01-15.875-3.1c-15.423-6.055-29.3-18.5-38-32.483-10.5-16.87-4.775-27.535 7.063-41.194 9.9-11.42 22.658-24.422 38.08-24.422a28.385 28.385 0 018.473 1.314c10.191 3.163 19.335 8.816 30.165 10.031a70.519 70.519 0 007.989.66c4.1 0 7.577-.874 5.03-4.555-2.383-3.442-19.526-5.728-24.021-7.765a52.694 52.694 0 01-19.582-14.7 63.67 63.67 0 01-11.811-24.331c-.81-3.221-1.78-25.6-3.748-26.285a.752.752 0 00-.246-.044c-3.895 0-2.314 34.218-2.134 37.487.807 14.711-5.947 21.792-17.176 30.558-7.522 5.873-12.574 11.01-19.579 11.01m117.826-52.852a30.737 30.737 0 01-12.5-2.7c-13.391-5.978-21.341-18.913-25.523-32.411-4.058-13.105-6.712-28.765-8.275-42.392-1.685-14.7 7.862-20.5 20.98-22.549a63.181 63.181 0 019.744-.76c29.207 0 53.695 20.475 73.227 41.519l-.556-.6-1.512-1.634 2.416 2.611c7.3 7.89 23.035 20.531 9.863 29.934a22.423 22.423 0 01-13.214 4.167 30.791 30.791 0 01-19.617-7.684c-10-8.627-17.8-17.088-29.228-24.044-4.651-2.831-9.492-5.663-12.868-10.051-.843-1.1-5.6-12.852-5.849-14.809-.912 1.609-8.357 9.725-11.153 10.078.618.291 1.485.715 2.347 1.137 1.544.758 3.074 1.516 3.137 1.516l-.013-.014c2.785 1.954 5.22 5.8 7.576 8.23 5.415 5.593 11.512 9.483 18.014 13.723 10.883 7.1 23.078 18 16.376 32.216-4.6 9.753-13.754 14.53-23.37 14.53M128.924 139.81c-7.271 0-15.886-3.039-18.654-8.249-4.9-9.223 10.637-22.742 16.178-28.85a11.819 11.819 0 018.938-4.064c6.714 0 13.568 5.406 15.371 12.657 2.1 8.453-6.393 22.06-13.462 26.564a15.977 15.977 0 01-8.371 1.942m408.021-69.874q-1.977-2.2.161-2.2a6.774 6.774 0 01.917.074q-.54 1.062-1.078 2.125m41.755-3.066h-.006.006m-.014-.008h-.006.006M547.292 96.888c-9.284-4.317-11.034-21.352-4.214-28.56 4.122-4.357 9.957-6.006 16.088-6.006a48.941 48.941 0 0121.582 5.633l-.195-.1-1.849-.98 2.145 1.137 1.886 1-1.73-.918a90.694 90.694 0 0121.8 16c2.193 2.25 6.453 6.176 5.591 9.861-.721 3.083-8.932 3.264-12.568 4.393-3.836 1.192-21.535 9.86-31.744 9.86-5.762 0-9.137-2.761-6.288-11.185 2.3-6.81 10.971-9.8 17.375-9.8.175 0 .347 0 .519.006 2.122.055 8.1 2.53 11.844 2.53 1.33 0 2.379-.312 2.876-1.154 1.271-2.154-4.707-4.506-5.671-4.963a23.616 23.616 0 00-10.131-2.153c-10.862 0-22.482 6.341-27.319 15.4m-438.026.321c5.057 0 .2-6.7-1.155-10.475-4.8-13.359 10.27-24.216 19.935-30.483a97.137 97.137 0 0152.7-15.762h.943c-23.423 17.367-49.079 39.041-66.19 62.245-4.246 5.758-8.852 10.98-12.539 17.17-1.409 2.367-3.553 8.525-6.167 9.967a5.367 5.367 0 01-2.556.829c-1.55 0-2.6-1.189-5.317-2.167a16.04 16.04 0 00-5.512-.948c-5.322 0-10.344 2.354-15.68 3.31a8.915 8.915 0 01-1.561.152c-7.622 0-1.222-13.063.938-15.866a82.243 82.243 0 0117.663-17.256c3.154-2.179 7.1-4.775 11.056-5.07.308-.023.6-.033.88-.033 4.507 0 5.6 2.829 9.544 3.889a12.061 12.061 0 003.02.493m392.316-68.137h-.011.011m-.011 0l-.019-.008.019.008m-106.65 77.8c2.007 0 2.822-1.074.821-4.7-3.52-6.386-13.5-6.4-18.471-10.515-7.275-6.017-1.693-16.484 1.644-23.6 5.331-11.366 11.138-12.149 22.221-16.341 12.31-4.658 20.057-14.327 30.654-21.475 8.841-5.963 19.764-8.274 31.1-8.274 15.649 0 32.083 4.4 44.919 9.674l-2.022-.834-4.2-1.733 6.433 2.654 1.8.744-1.591-.656c14.822 6.141 27.717 14.051 40.775 23.256-6.717 1.656-12.237 4.233-18.412 4.233a21.854 21.854 0 01-7.345-1.28c-8.016-2.813-14.734-8.5-22.561-11.758a69.517 69.517 0 00-26.2-5.442c-.248 0-.5 0-.743.005-3.007.039-23.985 2.584-22.71 7.1-.116-.409 1.787-.577 4.81-.577 9.771 0 31.256 1.755 34.234 2.806 11.816 4.169 24.058 11.4 35.042 17.274 4.278 2.288 9.5 7.565 6.564 13.829-1.489 3.178-3.518 4.246-5.761 4.246-3.134 0-6.683-2.084-9.762-3.408a124.72 124.72 0 00-40.647-10.337 69.48 69.48 0 00-4.524-.153c-12.336 0-23.206 3.307-35.478 5.188a34.238 34.238 0 01-5.109.511 9.542 9.542 0 01-6.953-2.494c-2.177-2.072-2.442-8.355-6.5-8.356a4.9 4.9 0 00-1.257.177c-3.636.963.535 2.359.4 4.112-.4 5.1 1.593 8.044-.9 13.849-1.023 2.38-6.443 8.259-6.05 10.354.412 2.2.974 2.991 1.616 2.991 1.392 0 3.16-3.729 4.589-4.844 13.243-10.339 31.218-14.746 49.049-14.746a107.943 107.943 0 0135.761 6.019c10.68 3.822 23.914 7.212 32.75 14.441 3.057 2.5 6.818 5.226 6 9.655-.931 5.019-11.67 6.157-16.378 6.738a44.016 44.016 0 01-5.368.351c-10.209 0-16.286-4.286-25.429-11.1-5.635-4.2-10.984-6.415-16.109-6.415-6 0-11.686 3.032-17.17 9.468-3.688 4.326-6.228 9.864-12.276 11.29a12.383 12.383 0 01-2.87.315 30.917 30.917 0 01-4.221-.386 30.946 30.946 0 00-4.225-.386 11.932 11.932 0 00-3.81.578c-4.228 1.4-6.973 5.533-11.194 6.967a16.36 16.36 0 01-5.322.819c-4.753 0-9.581-1.574-14.3-1.873q-1.522-.1-3.047-.1a52.068 52.068 0 00-38.21 17.027c-10.186 11.345-12.359 28.134-23.912 38.313-10.142 8.936-23.327 11.425-30.769 23.574-2.631 4.294-2.556 7.311-7.55 7.311-.44 0-.92-.024-1.444-.072-2.8-.258-10.893-8.006-12.949-8.007a.479.479 0 00-.31.093c-1.213.975 8.92 19.179 9.756 21.333a111.864 111.864 0 016.538 26.3c2.29 17.741 4.143 39.7.7 57.4-3.342 17.181-24.5 23.93-38.221 31.382-6.29 3.418-14.1 8.962-21.838 8.962a14.651 14.651 0 01-4.421-.662c-4.3-1.351-6.369-4.477-9.82-7.1-4.319-3.278-9.692-4.01-13.989-6.846-3.785-2.5-4.732-3.009-4.826-8.477-.078-4.542 3.518-8.843 3.567-12.7.032-2.553-.334-3.525-.938-3.526-1.467 0-4.34 5.729-6.343 8.469-6 8.213-11.1 10.792-20.642 11.351-9.784.573-19.049 3.7-28.741 4.357-.694.046-1.391.069-2.083.069-17.05 0-32.853-13.993-25.14-32.086 6.559-15.389 32.206-22.709 47.1-24.913a68.23 68.23 0 0110-.716c17.087 0 34.418 5.894 49.8 12.623 9.667 4.228 15.754 9.143 16.028 20.049.073 2.886-1.848 8.854 2.5 9.244.106.009.211.014.315.014 3.952 0 6.242-6.769 6.471-9.541.555.267 3.984 1.823 6.051 1.823a1.473 1.473 0 001.47-.654c.3-.652-11.632-12.862-12.863-15.042-5.322-9.426-7.465-21.125-8-31.806-.9-18-.053-39.95 9.406-55.912 9.232-15.579 26.6-20.384 41.757-28.157 7.37-3.779 33.151-19.763 24.6-31.155a3.261 3.261 0 00-2.5-1.612c-3.977 0-7.481 11.461-10.042 14.471-7.031 8.263-17.593 12.4-27.272 16.6a14.319 14.319 0 01-5.613 1.358c-10.893 0-9.508-19.671-8.372-29.114 1.7-14.105 2.757-28.374 4.662-42.428.3-2.2.468-6.664 2.068-8.467 1.142-1.286 3.9-1.36 4.412-2 4.193-5.241.7-7.192-4.446-7.192a25.638 25.638 0 00-3.535.263c-2.465.346-11.879.513-13.066 2.516-2.181 3.678 2.246 2.959 3.514 3.981 4.083 3.292 4 .27 4.033 7.22.028 5.856-.879 11.886-1.433 17.706-1.545 16.205-12.347 51.518 6.423 61.475-4 2.2-9.912 9.591-13.77 10.574a5.968 5.968 0 01-1.458.163c-3.432 0-8.317-2.184-10.773-3.5-9.924-5.336-14.145-16.062-15.013-26.8-.912-11.3 1.248-22.911 2.128-34.167.97-12.4 2.3-24.573 9.243-35.258 7.328-11.277 24.431-24.431 39.9-24.431a23.049 23.049 0 0111.6 2.969c16.1 9.2 18.291 43.252 12.418 58.418a39.508 39.508 0 01-7.19 11.672c-1.655 1.912-9.137 7-9.551 9.3-.509 2.82 6.928 8.2 11.215 8.2a3 3 0 002.037-.647c1.268-1.113 4.815-12.714 6.5-15.38 2.691-4.269 4.708-8.358 8-12.24 7.294-8.593 15.631-16.335 25.674-21.624a60.98 60.98 0 0128.3-7.229q1.464 0 2.929.078c6.018.322 11.237 2.016 16.991 3.536a32.414 32.414 0 006.686 1.414m-92.644-46.851c5.068 0 10.372-.2 11.8-.272 7.236-.369 5.343-1.311 3.206-7.231a60.268 60.268 0 01-3.6-21.926c.33-17.71 8.885-23.7 20.742-23.7 5.928 0 12.68 1.5 19.644 3.775 11.725 3.835 21.766 6.375 33.049 6.375a80.317 80.317 0 0011.253-.812c6.742-.951 14.748-2.747 22.37-2.747 6.3 0 12.342 1.228 17.189 5.178-16.555 7.116-24.954 20.537-42.642 20.537a39.383 39.383 0 01-6.489-.561c-9.764-1.628-20.058-5.377-29-9.676-2.37-1.14-20.334-14.265-20.029-14.41-1.192.569-.64 9.582-1.359 11.021-.935 1.872-6.26 5.836-5.6 7.653.418 1.156 12.678 1.3 14.7 1.724 7.33 1.533 16.443 4.376 21.508 10.248 19.933 23.112-19.414 52.041-37.867 59.368-2.812 1.117-5.59 2.154-8.219 2.154a8.4 8.4 0 01-6.729-3.3 11.523 11.523 0 01-.745-14.213c4.021-5.869 12.247-6.864 18.293-9.541 7.439-3.294 11.951-7.707 16.723-14.075 1.935-2.583 8.692-10.741 1.578-12.906a1.346 1.346 0 00-.4-.06c-2.555 0-5.248 7.089-7.125 8.964-6.683 6.673-17.488 10.652-27.771 10.652a31.652 31.652 0 01-15.711-3.817c-17.669-10.12-35.934-21.736-56.511-21.737a54.021 54.021 0 00-13.252 1.65c-12.136 3.054-22.6 10.324-34.194 14.766-2.785 1.067-17.2 2.918-16.535 6.492.756 4.084 9.419 1.572 12.515 4.3 1.953 1.72 2.327 7.608 4.9 8.089a2.818 2.818 0 00.514.048c4.035 0 6.888-8.868 9.052-11.481 7.324-8.845 22.656-16.22 34.574-16.22q.606 0 1.2.026c15.624.678 10.216 13.233 1.767 20.268-6.211 5.172-10.407 9.536-18.079 12.665-8.665 3.532-17.859 5.513-26.887 7.853-10.271 2.662-23.069 9.692-34.541 9.692a20.77 20.77 0 01-12.076-3.52c-7.8-5.347-12.021-12.433-6.379-20.116 5.069-6.9 13.435-12.784 19.881-18.364 24.486-21.194 56.043-48.8 90.378-48.8h-.273l-3.759-.018 4.329.02 3.243.015-3-.014c12.974.123 30.63 5.249 40.623 13.865 4.685 4.04 7.482 9.889 5.079 16.061-2.467 6.341-9.041 5.879-12.275 10.185-2.339 3.115-2.1 2.83.631 5.05.8.651 5.447.834 10.307.834m5.225-31.418c-5.336-9.1-16.067-14.137-25.587-17.654 5.283-2.711 10.389-4.505 15.485-4.505a22.2 22.2 0 0113.29 4.58l-1.262-.911-.934-.674 2.2 1.591c.091.072-3.091 16.03-3.2 17.573M334.731.012c-6.567 0-12.076 4.6-17.642 4.938q-.148.009-.3.009c-3.444 0-8.01-3.408-12.415-4.27a28.051 28.051 0 00-5.382-.516 29.79 29.79 0 00-12.417 2.736c-5.785 2.664-7.2 5.317-12 5.317a20 20 0 01-3.879-.44 71.626 71.626 0 00-24.539-.6c-15.6 2.329-30.345 9.581-43.229 18.486-2.2 1.523-4.407 3.648-6.682 4.956a13.452 13.452 0 01-7.691 2.191c-1.182 0-2.508-.073-4.167-.113q-1.248-.029-2.5-.029a103.979 103.979 0 00-23.29 2.63c-20.133 4.636-60.8 23.471-57.891 49.945a9.357 9.357 0 00-1.231-.078c-16.757 0-60.054 39.169-38.859 49.037-16.891 7.9-29 21-33.675 39.134-3.777 14.652-18.586 40.887-5.958 53.877-7.674 2.932-13.544 9.968-14.244 18.23-.776 9.16 8.937 17.138 7.988 25.411-.525 4.572-10.77 10.075-13.148 17-2.883 8.391-1.578 17.31 1.85 25.319 1.47 3.437 4.851 6.916 5.767 10.361 1.665 6.267.451 2.5-2.01 8.874-2.455 6.362.892 15 3.318 20.8 2.755 6.588 6.442 13.453 11.928 18.154 7.02 6.015 14.459 3.651 22.084 7.568 6.866 3.527 11.948 10.192 18.706 14.127 8.688 5.059 6.911 7.626 10.6 16.7 5.723 14.079 21.52 21.574 36 21.892.358.008.718.012 1.076.012a47.136 47.136 0 0020.287-4.515c2.226-1.067 6.261-4.552 8.317-4.552.047 0 .092 0 .136.006 2.53.2 6.669 5.429 8.773 7.2 7 5.893 13.606 11.148 22.989 12.237a60.538 60.538 0 006.84.375c7.9 0 17.492-1.444 21.976-6.4.386 11.877 1.42 23.977 5.882 35.106 1.874 4.672 4.222 9.821 7.864 13.4 2.973 2.926 6.475 3.543 8.06 7.431 1.7 4.171-.385 9.689.331 14.191a38.825 38.825 0 005.406 14.075c5.615 9.1 14.574 15.881 24.5 19.647 9.357 3.55 19.174 3.068 28.8 5.218 9.894 2.21 16.027 9.359 25.1 13.236a41.869 41.869 0 0016.414 3 72.754 72.754 0 0017.116-2.209c6.456-1.588 12.142-5.031 18.455-6.833a30.134 30.134 0 018.367-1c1.581 0 3.166.067 4.756.134s3.184.133 4.785.133q.423 0 .844-.007c-12.622 7.907 5.431 20.392 12.284 22.88-11.232 14.89 26.879 22.218 33.173 24.323 15.234 5.093 21.493 19.879 26.262 34.243 2.538 7.644 4.929 15.186 9.211 22.069 4.364 7.027 10.204 13.076 14.175 20.367 8.659 15.91 5.587 35 14.371 51.043 8.475 15.476 19.628 27.516 25.257 44.593 5.6 17 9.6 35.521 20.521 50.147 4.6 6.157 10.762 12.388 18.35 14.519a12.348 12.348 0 003.332.513c6.643 0 7.823-7.408 11.263-14.223 3.713-7.356 8.886-15.122 10.7-23.217 1.967-8.775-3.412-15.191-3.911-23.745-.534-9.2 3.624-18.165 4.787-27.208a57.284 57.284 0 00-5.087-31.614c-4.2-8.951-9.633-16.525-11.721-26.376-2.259-10.655-1.857-22.268-8.463-31.529q4.209.393 8.289.393a74.356 74.356 0 0046.658-16.032c14.994-11.539 28.548-19.045 46.919-23.982 15.741-4.23 33.192-7.886 45.373-19.573 11.493-11.027 17.1-27.735 26.89-40.31 4.914-6.312 9.93-12.88 12.105-20.7 1.261-4.54.316-8.673.962-13.1q-3.263-2.277-.057-3.5a14.386 14.386 0 004.024-3.988c11.991-10.124 27.726-9.646 39.06-21.763a41.619 41.619 0 0011.093-23.173c.83-6.751-.238-14.591 3.5-20.738 4.324-7.115 12.494-9.355 15.076-18.249 1.973-6.8 1.055-15.766-3.425-21.376.75-4.743-2.586-9.638-1.926-14.569.534-4 2.446-7 2.294-11.405-.329-9.406-5.482-17.4-8.109-26.17-5.781-19.3.326-39.432-7.266-58.726-5.874-14.928-21.689-22.237-22.349-38.894-.68-17.153-8.976-40.935-29.744-41.959 6.859-9.772-1.428-26.119-9.117-33.044-6.764-6.088-18.807-7.254-21.713-16.613-1.664-5.356-1.559-9.855-4.815-15.12-3.293-5.329-7.758-10.141-11.907-14.821-9.621-10.853-20.225-21.2-32.232-29.4a87.356 87.356 0 00-35.9-14.635c-1.859-.3-8.307-.441-9.465-1.488-.076-.069.034-4.189-.436-4.959a52.1 52.1 0 00-13.339-15c-8.8-6.886-18.4-13.4-29.259-16.479-2.386-.676-5.449-.718-7.8-1.537-5.085-1.771-4.108-1.325-7.951-5.555-4.009-4.412-9.107-7.775-14.06-11.024-20.912-13.714-46.872-27.269-72.648-27.269q-1.412 0-2.821.055c-4.949.194-11.918 3.831-16.619 3.831a7.84 7.84 0 01-.907-.05c-4.943-.581-8.259-6.421-13.458-8.507a39.1 39.1 0 00-14.74-2.567c-8.348 0-16.883 1.82-24.947 2.792a88.732 88.732 0 01-10.649.658c-9.84 0-18.954-1.759-29.022-4.931-7.13-2.247-14.32-4.63-21.868-4.828h-.367" fill="#f7f7f7" fill-rule="evenodd"/></svg>