<svg xmlns="http://www.w3.org/2000/svg" viewBox="0 0 2400 2400" enable-background="new 0 0 2400 2400"><path d="M1228.6 1085.8c-40 0-72.6 32.6-72.6 72.6 0 40 32.6 72.6 72.6 72.6 36.1 0 66.3-25.9 71.8-61.5.6-3.7.8-7.5.8-11.2 0-4.7-3.8-8.6-8.6-8.6-4.7 0-8.6 3.8-8.6 8.6 0 2.9-.2 5.7-.6 8.6-4.1 26.8-27.7 47-54.9 47-30.6 0-55.6-24.9-55.6-55.6 0-30.7 24.9-55.6 55.6-55.6 16.5 0 32 7.3 42.5 19.8l-40.8 40.5-23-23.1c-3.3-3.3-8.7-3.3-12.1-.1-3.3 3.3-3.3 8.7-.1 12.1l29 29.2c1.6 1.6 3.8 2.5 6.1 2.5 2.2 0 4.4-.9 6-2.5l88.3-87.8c3.3-3.3 3.3-8.7.1-12.1-3.3-3.3-8.7-3.3-12.1-.1l-29.4 29.2c-13.5-15.3-33.3-24.5-54.4-24.5zm0 0" fill="#00ae98"/><path d="M1351.6 1274.1l17.8-12.6c7.2-5.1 12-12.6 13.5-21.3 1.4-8.1-.2-16.4-4.7-23.3-.9-1.5 1.8 2.5-29.2-41.5-3.3-4.6-9.6-6.2-14.7-3.3-3.8 2.2-5.8 6.2-5.6 10.3l-2.1-3c-3-4.2-8.6-5.9-13.4-3.9-4.4 1.8-7.1 6.2-6.8 10.9-1.5-2.1-2.2-3.4-4.2-4.7-2.8-1.9-6.4-2.6-9.8-1.5-4.8 1.5-8.1 6.1-7.7 11.3-10.9-15.5-8.6-12.2-19.4-27.6-3.3-4.7-9.7-6.1-14.6-3.2-5.8 3.3-7.3 10.8-3.6 16.1l48.3 68.6c-1.9-.6-17.3-5.3-19.4-5.9-5.5-1.7-11.4 1.1-13.6 6.4-2.5 6.1.8 13 7.1 14.9l54.3 16.5c9.2 3.7 19.5 2.7 27.8-3.2zm0 0" fill="#fcc496"/><path d="M1415.2 1282.1c3.4-2.4 4.2-7 1.8-10.3l-9.8-13.9c-2.4-3.4-7-4.2-10.3-1.8l-53.5 37.7c-3.4 2.4-4.2 7-1.8 10.3l9.8 13.9c2.4 3.4 7 4.2 10.3 1.8l53.5-37.7zm0 0" fill="#ed1589"/><defs><filter id="a" filterUnits="userSpaceOnUse" x="1298.8" y="1135.3" width="159.7" height="181.1"><feColorMatrix values="1 0 0 0 0 0 1 0 0 0 0 0 1 0 0 0 0 0 1 0"/></filter></defs><mask maskUnits="userSpaceOnUse" x="1298.8" y="1135.3" width="159.7" height="181.1" id="b"><g filter="url(#a)"><path d="M1415.2 1282.1c3.4-2.4 4.2-7 1.8-10.3l-9.8-13.9c-2.4-3.4-7-4.2-10.3-1.8l-53.5 37.7c-3.4 2.4-4.2 7-1.8 10.3l9.8 13.9c2.4 3.4 7 4.2 10.3 1.8l53.5-37.7zm0 0" fill="#f1f2f2"/></g></mask><path transform="rotate(-36.86 1378.758 1225.837)" opacity=".5" mask="url(#b)" fill="#d1d3d4" d="M1344.5 1138.2h68.2v175.3h-68.2z"/></svg>