<svg version="1.1" id="Layer_1" xmlns="http://www.w3.org/2000/svg" x="0" y="0" viewBox="0 0 327 201" xml:space="preserve" enable-background="new 0 0 327 201"><style>.st0{fill:#cccbcb}.st2{fill:#fff;stroke:#fff;stroke-width:.4706;stroke-miterlimit:10}</style><g id="XMLID_149_"><path id="XMLID_174_" class="st0" d="M137.2 105.2c.9 1 1.4 2.4 1.4 4v6.7h-2.3v-6.6c0-2.3-1.1-3.6-3.2-3.6-1.3 0-2.4.7-3.3 2 .1.5.2.9.2 1.5v6.7h-2.3v-6.6c0-2.3-1.1-3.6-3.2-3.6-1.2 0-2.2.6-3.1 1.9v8.3H119V104h2.3v1.1c.9-1 2.1-1.5 3.6-1.5 1.7 0 3.1.7 4 2 1.3-1.3 2.8-2 4.6-2 1.5.1 2.7.6 3.7 1.6z"/><path id="XMLID_171_" class="st0" d="M140.6 99.5c0-.8.6-1.5 1.5-1.5.8 0 1.5.6 1.5 1.5 0 .8-.7 1.5-1.5 1.5-.9 0-1.5-.7-1.5-1.5zm2.7 16.3H141v-11.9h2.3v11.9z"/><path id="XMLID_169_" class="st0" d="M156.8 115.9h-2.3v-6.6c0-2.2-1.2-3.6-3.3-3.6-1.4 0-2.5.7-3.6 2v8.2h-2.3V104h2.3v1.2c1.1-1 2.5-1.6 4-1.6 1.6 0 2.8.5 3.7 1.5.9 1 1.4 2.3 1.4 4v6.8z"/><path id="XMLID_166_" class="st0" d="M170.3 116.2H168v-1.1c-1 .9-2.4 1.4-4 1.4-1.7 0-3.1-.6-4.3-1.8-1.2-1.2-1.8-2.7-1.8-4.4 0-1.7.6-3.2 1.8-4.4 1.2-1.2 2.6-1.8 4.3-1.8 1.6 0 2.9.5 4 1.4v-7.2h2.3v17.9zm-2.4-3.7v-4.6c-.9-1.3-2.1-1.9-3.6-1.9-1.1 0-2.1.4-2.9 1.2-.8.8-1.2 1.8-1.2 3 0 1.1.4 2.1 1.2 3 .8.8 1.7 1.2 2.9 1.2 1.5 0 2.7-.6 3.6-1.9z"/><path id="XMLID_164_" class="st0" d="M190.1 105.5c.9 1 1.4 2.4 1.4 4v6.7h-2.3v-6.6c0-2.3-1.1-3.6-3.2-3.6-1.3 0-2.4.7-3.3 2 .1.5.2.9.2 1.5v6.7h-2.3v-6.6c0-2.3-1.1-3.6-3.2-3.6-1.2 0-2.2.6-3.1 1.9v8.3H172v-11.9h2.3v1.1c.9-1 2.1-1.5 3.6-1.5 1.7 0 3.1.7 4 2 1.3-1.3 2.8-2 4.6-2 1.4.1 2.6.6 3.6 1.6z"/><path id="XMLID_161_" class="st0" d="M204.7 111.4H195c.3 2 1.8 3.4 4 3.4 1.4 0 2.4-.5 2.9-1.5h2.5c-.7 2.1-2.8 3.5-5.5 3.5-1.8 0-3.3-.6-4.5-1.8-1.1-1.2-1.7-2.7-1.7-4.5 0-1.8.6-3.3 1.7-4.5 1.2-1.2 2.7-1.8 4.5-1.8 1.7 0 3.1.6 4.2 1.7s1.6 2.6 1.7 4.4c-.1.6-.1.9-.1 1.1zm-9.7-1.7h7.4c-.2-2.1-1.6-3.4-3.5-3.4-2.2 0-3.6 1.4-3.9 3.4z"/><path id="XMLID_159_" class="st0" d="M214.5 116.4c-1 .3-1.9.5-2.8.5-2.8 0-4.4-1.7-4.4-4.8v-5.5h-2.9v-2h2.9v-4.4h2.3v4.4h4.5v2h-4.5v5.5c0 1.8.8 2.7 2.5 2.7.6 0 1.3-.1 2-.3l.4 1.9z"/><path id="XMLID_157_" class="st0" d="M218.1 106.5c1.2-1.4 2.7-2 4.5-2v2.2c-1.9.1-3.4.8-4.5 2.3v7.6h-2.3v-11.9h2.3v1.8z"/><path id="XMLID_154_" class="st0" d="M223.5 100.3c0-.8.6-1.5 1.5-1.5.8 0 1.5.6 1.5 1.5 0 .8-.7 1.5-1.5 1.5-.9 0-1.5-.7-1.5-1.5zm2.7 16.3h-2.3v-11.9h2.3v11.9z"/><path id="XMLID_152_" class="st0" d="M237 112.2h2.4c-.2 1.4-.9 2.4-1.9 3.3-1 .8-2.3 1.2-3.8 1.2-1.8 0-3.3-.6-4.5-1.8-1.2-1.2-1.8-2.7-1.8-4.5 0-1.8.6-3.3 1.8-4.5 1.2-1.2 2.7-1.8 4.5-1.8 1.5 0 2.7.4 3.8 1.3 1.1.8 1.7 1.9 1.9 3.3H237c-.3-1.5-1.6-2.4-3.3-2.4-1.2 0-2.1.4-2.9 1.2-.7.8-1.1 1.8-1.1 2.9 0 1.1.4 2.1 1.1 2.9.7.8 1.7 1.2 2.9 1.2 1.7.1 3-.9 3.3-2.3z"/><path id="XMLID_150_" class="st0" d="M242.2 112.6c.3 1.6 1.5 2.3 3.4 2.3 1.7 0 2.8-.7 2.8-1.7 0-.8-.6-1.4-1.8-1.6l-2.7-.5c-2.4-.4-3.5-1.5-3.5-3.3 0-2.2 2-3.7 4.9-3.7 1.3 0 2.5.3 3.5.9 1 .6 1.6 1.6 1.7 3h-2.2c-.2-1.4-1.3-2.1-3-2.1-1.6 0-2.6.7-2.6 1.6 0 .8.7 1.4 2 1.6l2.3.4c2.4.4 3.6 1.5 3.6 3.4 0 2.4-2.1 3.8-5.1 3.8-3.1 0-5.2-1.4-5.5-4.3l2.2.2z"/></g><defs><filter id="Adobe_OpacityMaskFilter" filterUnits="userSpaceOnUse" x="56.4" y="79.3" width="76.8" height="63.5"><feColorMatrix values="1 0 0 0 0 0 1 0 0 0 0 0 1 0 0 0 0 0 1 0"/></filter></defs><mask maskUnits="userSpaceOnUse" x="56.4" y="79.3" width="76.8" height="63.5" id="XMLID_2_"><g id="XMLID_764_" filter="url(#Adobe_OpacityMaskFilter)"><g id="XMLID_765_"><path id="XMLID_773_" class="st2" d="M83.5 101.1c0-.4-.3-.7-.7-.7-.4 0-.7.3-.7.7 0 3 2.2 5.5 5.2 5.9-.3 1.4-1.5 2.4-3 2.4-.4 0-.7.3-.7.7 0 .4.3.7.7.7 2.2 0 4.1-1.6 4.4-3.8 1.4-.1 2.6-.8 3.6-1.7.3-.3.3-.7 0-1-.3-.3-.7-.3-1 0-.9.9-2 1.4-3.2 1.4-2.6 0-4.6-2.1-4.6-4.6z"/><path id="XMLID_772_" class="st2" d="M89.5 112.4c-3.3 0-5.9 2.7-5.9 5.9v.1c-.3 0-.5-.1-.8-.1-.4 0-.7.3-.7.7 0 .4.3.7.7.7 2.5 0 4.5 2 4.5 4.5 0 .4.3.7.7.7.4 0 .7-.3.7-.7 0-2.5-1.5-4.6-3.7-5.5v-.5c0-2.5 2-4.5 4.5-4.5.4 0 .7-.3.7-.7 0-.3-.3-.6-.7-.6z"/><path id="XMLID_768_" class="st2" d="M114.1 107.1c0-1.6-.6-3.1-1.8-4.2.2-.6.3-1.2.3-1.8 0-2.9-2.1-5.3-4.8-5.8.2-.5.3-1.1.3-1.6 0-1.8-1.1-3.4-2.7-4.1-2.6-2.1-5.5-3.3-7.7-3.3-1.2 0-2.3.6-3 1.5-.7-.9-1.8-1.5-3-1.5-2.2 0-5.1 1.2-7.7 3.3-1.6.7-2.7 2.2-2.7 4.1 0 .6.1 1.1.3 1.6-2.7.5-4.8 2.9-4.8 5.8 0 .6.1 1.2.3 1.8-1.1 1.1-1.8 2.6-1.8 4.2 0 1.2.4 2.4 1 3.4-.7 1-1 2.1-1 3.4 0 2.2 1.2 4.1 3 5.2v.8c0 2.9 1.9 5.5 4.6 6.3 1.2 2 3.4 3.3 5.8 3.3 2.6 0 4.9-1.5 6-3.7 1.1 2.2 3.4 3.7 6 3.7 2.4 0 4.6-1.3 5.8-3.3 2.7-.9 4.6-3.4 4.6-6.3v-.8c1.9-1 3-3 3-5.2 0-1.2-.4-2.4-1-3.4.6-1 1-2.1 1-3.4zM94 99c-.6-.5-1.4-.8-2.3-.8-.4 0-.7.3-.7.7 0 .4.3.7.7.7 1.3 0 2.3 1 2.3 2.3v16.8c-.9-1.1-2.1-2-3.5-2.4-.4-.1-.8.1-.9.5-.1.4.1.8.5.9 2.3.6 3.9 2.7 3.9 5.1 0 2.9-2.4 5.3-5.3 5.3-2 0-3.7-1.1-4.7-2.8-.1-.2-.2-.3-.4-.3-2.3-.6-3.9-2.7-3.9-5.1 0-.4 0-.7.1-1.1.1-.3-.1-.6-.4-.8-1.6-.7-2.7-2.3-2.7-4.1 0-.8.2-1.6.6-2.3 1 .9 2.4 1.5 3.9 1.5.4 0 .7-.3.7-.7 0-.4-.3-.7-.7-.7-2.5 0-4.5-2-4.5-4.5 0-1.3.6-2.6 1.6-3.5.2-.2.3-.5.2-.8-.2-.5-.3-1.1-.3-1.7 0-2.5 2-4.5 4.5-4.5s4.5 2 4.5 4.5c0 .4.3.7.7.7.4 0 .7-.3.7-.7 0-3.1-2.5-5.7-5.5-5.9-.3-.5-.4-1-.4-1.6 0-1.2.8-2.3 1.8-2.8h.1c.3-.1.7-.2 1.1-.2 1.2 0 2.2.7 2.7 1.7.2.3.6.5.9.3.3-.2.5-.6.3-.9-.6-1.2-1.7-2.1-3-2.4 1.8-1.1 3.5-1.7 4.9-1.7 1.3 0 2.3 1 2.3 2.3v9zm14.2 14c1.5 0 2.9-.6 3.9-1.5.4.7.6 1.5.6 2.3 0 1.8-1.1 3.4-2.7 4.1-.3.1-.5.5-.4.8.1.3.1.7.1 1.1 0 2.4-1.6 4.5-3.9 5.1-.2.1-.3.2-.4.3-.9 1.7-2.7 2.8-4.7 2.8-2.9 0-5.3-2.4-5.3-5.3v-.6-23.2c0-1.3 1-2.3 2.3-2.3.4 0 .7-.3.7-.7 0-.4-.3-.7-.7-.7-.9 0-1.7.3-2.3.8v-6c0-1.3 1-2.3 2.3-2.3 1.4 0 3.2.6 4.9 1.7-1.3.3-2.4 1.2-3 2.4-.2.3 0 .8.3.9.3.2.8 0 .9-.3.5-1.1 1.6-1.7 2.7-1.7.4 0 .7.1 1.1.2h.1c1.1.5 1.8 1.5 1.8 2.8 0 .6-.1 1.1-.4 1.6-3.1.2-5.5 2.8-5.5 5.9 0 .4.3.7.7.7.4 0 .7-.3.7-.7 0-2.5 2-4.5 4.5-4.5s4.5 2 4.5 4.5c0 .6-.1 1.2-.3 1.7-.1.3 0 .6.2.8 1 .9 1.6 2.1 1.6 3.5 0 2.5-2 4.5-4.5 4.5-.4 0-.7.3-.7.7.2.3.5.6.9.6z"/><path id="XMLID_767_" class="st2" d="M108.2 99.7c-.4 0-.7.3-.7.7 0 2.5-2 4.5-4.5 4.5-1.2 0-2.4-.5-3.2-1.4-.3-.3-.7-.3-1 0-.3.3-.3.7 0 1 1 1 2.2 1.6 3.6 1.7.3 2.1 2.2 3.8 4.4 3.8.4 0 .7-.3.7-.7s-.3-.7-.7-.7c-1.4 0-2.7-1-3-2.4 2.9-.4 5.2-2.9 5.2-5.9-.1-.3-.4-.6-.8-.6z"/><path id="XMLID_766_" class="st2" d="M104.4 116.9c-.3 0-.5 0-.8.1v-.1c0-3.3-2.7-5.9-5.9-5.9-.4 0-.7.3-.7.7 0 .4.3.7.7.7 2.5 0 4.5 2 4.5 4.5v.5c-2.2.9-3.7 3-3.7 5.5 0 .4.3.7.7.7.4 0 .7-.3.7-.7 0-2.5 2-4.5 4.5-4.5.4 0 .7-.3.7-.7 0-.5-.3-.8-.7-.8z"/></g></g></mask><g id="XMLID_136_" mask="url(#XMLID_2_)"><path id="XMLID_148_" class="st0" d="M56.4 79.5h38.5v63.3H56.4z"/><path id="XMLID_147_" class="st0" d="M94.7 79.3h38.5v63.3H94.7z"/></g></svg>