<svg version="1.1" id="Capa_1" xmlns="http://www.w3.org/2000/svg" xmlns:xlink="http://www.w3.org/1999/xlink" x="0" y="0" viewBox="0 0 800 800" xml:space="preserve"><style>.st0{clip-path:url(#SVGID_2_)}.st1{fill:#ffc200}.st2{fill:#f2f2f2}.st3{fill:#cbd100}.st4{fill:#ff0f33}.st5{fill:#02b2ca}.st6{fill:#02b2cb}.st7{fill:#ca1285}.st8{fill:#ff9300}</style><defs><path id="SVGID_1_" d="M0 113.6h799.9v445.9H0z"/></defs><clipPath id="SVGID_2_"><use xlink:href="#SVGID_1_" overflow="visible"/></clipPath><g class="st0"><path class="st1" d="M450 405.5c-16.3 0-29.5-13.2-29.5-29.5s13.2-29.5 29.5-29.5 29.5 13.2 29.5 29.5-13.2 29.5-29.5 29.5zm0-55.5c-14.4 0-26 11.7-26 26s11.7 26 26 26c14.4 0 26-11.7 26-26s-11.6-26-26-26z"/></g><g class="st0"><path class="st2" d="M657 132.5c-16.3 0-29.5-13.2-29.5-29.5s13.2-29.5 29.5-29.5 29.5 13.2 29.5 29.5-13.2 29.5-29.5 29.5zm0-55.5c-14.4 0-26 11.7-26 26s11.7 26 26 26c14.4 0 26-11.7 26-26s-11.6-26-26-26z"/></g><g class="st0"><path class="st2" d="M182 567.5c-16.3 0-29.5-13.2-29.5-29.5s13.2-29.5 29.5-29.5 29.5 13.2 29.5 29.5-13.2 29.5-29.5 29.5zm0-55.5c-14.4 0-26 11.7-26 26s11.7 26 26 26c14.4 0 26-11.7 26-26s-11.6-26-26-26z"/></g><g class="st0"><path class="st2" d="M580 713.5c-16.3 0-29.5-13.2-29.5-29.5s13.2-29.5 29.5-29.5 29.5 13.2 29.5 29.5-13.2 29.5-29.5 29.5zm0-55.5c-14.4 0-26 11.7-26 26s11.7 26 26 26c14.4 0 26-11.7 26-26s-11.6-26-26-26z"/></g><g class="st0"><path class="st2" d="M667 763.5c-10.2 0-18.5-8.3-18.5-18.5s8.3-18.5 18.5-18.5 18.5 8.3 18.5 18.5-8.3 18.5-18.5 18.5zm0-34.8c-9 0-16.3 7.3-16.3 16.3s7.3 16.3 16.3 16.3 16.3-7.3 16.3-16.3-7.3-16.3-16.3-16.3z"/></g><g class="st0"><path class="st2" d="M700 687.5c-10.2 0-18.5-8.3-18.5-18.5s8.3-18.5 18.5-18.5 18.5 8.3 18.5 18.5-8.3 18.5-18.5 18.5zm0-34.8c-9 0-16.3 7.3-16.3 16.3s7.3 16.3 16.3 16.3 16.3-7.3 16.3-16.3-7.3-16.3-16.3-16.3z"/></g><g class="st0"><path class="st2" d="M118 699.5c-10.2 0-18.5-8.3-18.5-18.5s8.3-18.5 18.5-18.5 18.5 8.3 18.5 18.5-8.3 18.5-18.5 18.5zm0-34.8c-9 0-16.3 7.3-16.3 16.3s7.3 16.3 16.3 16.3 16.3-7.3 16.3-16.3-7.3-16.3-16.3-16.3z"/></g><g class="st0"><path class="st2" d="M68.5 332c-10.2 0-18.5-8.3-18.5-18.5S58.3 295 68.5 295 87 303.3 87 313.5 78.7 332 68.5 332zm0-34.8c-9 0-16.3 7.3-16.3 16.3s7.3 16.3 16.3 16.3 16.3-7.3 16.3-16.3c.1-9-7.3-16.3-16.3-16.3z"/></g><g class="st0"><path class="st2" d="M81.5 490c-10.2 0-18.5-8.3-18.5-18.5S71.3 453 81.5 453s18.5 8.3 18.5 18.5S91.7 490 81.5 490zm0-34.8c-9 0-16.3 7.3-16.3 16.3s7.3 16.3 16.3 16.3 16.3-7.3 16.3-16.3c.1-9-7.3-16.3-16.3-16.3z"/></g><g class="st0"><path class="st2" d="M99 105.5c-10.2 0-18.5-8.3-18.5-18.5S88.8 68.5 99 68.5s18.5 8.3 18.5 18.5-8.3 18.5-18.5 18.5zm0-34.8c-9 0-16.3 7.3-16.3 16.3S90 103.3 99 103.3 115.3 96 115.3 87 108 70.7 99 70.7z"/></g><g class="st0"><path class="st2" d="M383 198.5c-10.2 0-18.5-8.3-18.5-18.5s8.3-18.5 18.5-18.5 18.5 8.3 18.5 18.5-8.3 18.5-18.5 18.5zm0-34.8c-9 0-16.3 7.3-16.3 16.3s7.3 16.3 16.3 16.3 16.3-7.3 16.3-16.3-7.3-16.3-16.3-16.3z"/></g><g class="st0"><path class="st2" d="M644 493.5c-10.2 0-18.5-8.3-18.5-18.5s8.3-18.5 18.5-18.5 18.5 8.3 18.5 18.5-8.3 18.5-18.5 18.5zm0-34.8c-9 0-16.3 7.3-16.3 16.3s7.3 16.3 16.3 16.3 16.3-7.3 16.3-16.3-7.3-16.3-16.3-16.3z"/></g><g class="st0"><path class="st2" d="M747.5 202c-10.2 0-18.5-8.3-18.5-18.5s8.3-18.5 18.5-18.5 18.5 8.3 18.5 18.5-8.3 18.5-18.5 18.5zm0-34.8c-9 0-16.3 7.3-16.3 16.3s7.3 16.3 16.3 16.3 16.3-7.3 16.3-16.3c.1-9-7.3-16.3-16.3-16.3z"/></g><g class="st0"><path class="st2" d="M435.5 624c-10.2 0-18.5-8.3-18.5-18.5s8.3-18.5 18.5-18.5 18.5 8.3 18.5 18.5-8.3 18.5-18.5 18.5zm0-34.8c-9 0-16.3 7.3-16.3 16.3s7.3 16.3 16.3 16.3 16.3-7.3 16.3-16.3c.1-9-7.3-16.3-16.3-16.3z"/></g><g class="st0"><path class="st2" d="M737.5 536c-10.2 0-18.5-8.3-18.5-18.5s8.3-18.5 18.5-18.5 18.5 8.3 18.5 18.5-8.3 18.5-18.5 18.5zm0-34.8c-9 0-16.3 7.3-16.3 16.3s7.3 16.3 16.3 16.3 16.3-7.3 16.3-16.3c.1-9-7.3-16.3-16.3-16.3z"/></g><g class="st0"><path class="st2" d="M711 296.5c-10.2 0-18.5-8.3-18.5-18.5s8.3-18.5 18.5-18.5 18.5 8.3 18.5 18.5-8.3 18.5-18.5 18.5zm0-34.8c-9 0-16.3 7.3-16.3 16.3s7.3 16.3 16.3 16.3 16.3-7.3 16.3-16.3-7.3-16.3-16.3-16.3z"/></g><g class="st0"><path class="st2" d="M573.8 72.7c-10.2 0-18.5-8.3-18.5-18.5s8.3-18.5 18.5-18.5 18.5 8.3 18.5 18.5-8.3 18.5-18.5 18.5zm0-34.9c-9 0-16.3 7.3-16.3 16.3s7.3 16.3 16.3 16.3 16.3-7.3 16.3-16.3c0-8.9-7.3-16.3-16.3-16.3z"/></g><g class="st0"><path class="st2" d="M482 499.5c-.3 0-.6-.1-.8-.2l-142-91c-.7-.4-.9-1.4-.5-2.1.4-.7 1.4-.9 2.1-.5l142 91c.7.4.9 1.4.5 2.1-.3.5-.8.7-1.3.7z"/></g><g class="st0"><path class="st2" d="M261 339.5c-.4 0-.7-.1-1-.4l-81-74c-.6-.6-.7-1.5-.1-2.1.6-.6 1.5-.7 2.1-.1l81 74c.6.6.7 1.5.1 2.1-.3.3-.7.5-1.1.5z"/></g><g class="st0"><path class="st2" d="M171 209.5c-.3 0-.5-.1-.8-.2-.7-.4-.9-1.4-.5-2.1l46-74c.4-.7 1.4-.9 2.1-.5.7.4.9 1.4.5 2.1l-46 74c-.3.4-.8.7-1.3.7z"/></g><g class="st0"><path class="st2" d="M132.9 204.5c-.7 0-1.3-.4-1.5-1.1l-27-98.9c-.2-.8.3-1.6 1.1-1.9.8-.2 1.7.3 1.9 1.1l27 98.9c.2.8-.3 1.6-1.1 1.9h-.4z"/></g><g class="st0"><path class="st2" d="M405 279.5c-6.3 0-11.5-5.2-11.5-11.5s5.2-11.5 11.5-11.5 11.5 5.2 11.5 11.5-5.2 11.5-11.5 11.5zm0-20c-4.7 0-8.5 3.8-8.5 8.5s3.8 8.5 8.5 8.5 8.5-3.8 8.5-8.5-3.8-8.5-8.5-8.5z"/></g><g class="st0"><path class="st2" d="M656 581.5c-6.3 0-11.5-5.2-11.5-11.5s5.2-11.5 11.5-11.5 11.5 5.2 11.5 11.5-5.2 11.5-11.5 11.5zm0-20c-4.7 0-8.5 3.8-8.5 8.5s3.8 8.5 8.5 8.5 8.5-3.8 8.5-8.5-3.8-8.5-8.5-8.5z"/></g><g class="st0"><path class="st2" d="M169 399.5c-6.3 0-11.5-5.2-11.5-11.5s5.2-11.5 11.5-11.5 11.5 5.2 11.5 11.5-5.2 11.5-11.5 11.5zm0-20c-4.7 0-8.5 3.8-8.5 8.5s3.8 8.5 8.5 8.5 8.5-3.8 8.5-8.5-3.8-8.5-8.5-8.5z"/></g><g class="st0"><path class="st2" d="M311 103.5c-6.3 0-11.5-5.2-11.5-11.5s5.2-11.5 11.5-11.5 11.5 5.2 11.5 11.5-5.2 11.5-11.5 11.5zm0-20c-4.7 0-8.5 3.8-8.5 8.5s3.8 8.5 8.5 8.5 8.5-3.8 8.5-8.5-3.8-8.5-8.5-8.5z"/></g><g class="st0"><path class="st2" d="M39 271.5c-6.3 0-11.5-5.2-11.5-11.5s5.2-11.5 11.5-11.5 11.5 5.2 11.5 11.5-5.2 11.5-11.5 11.5zm0-20c-4.7 0-8.5 3.8-8.5 8.5s3.8 8.5 8.5 8.5 8.5-3.8 8.5-8.5-3.8-8.5-8.5-8.5z"/></g><g class="st0"><path class="st2" d="M49 539.5c-6.3 0-11.5-5.2-11.5-11.5s5.2-11.5 11.5-11.5 11.5 5.2 11.5 11.5-5.2 11.5-11.5 11.5zm0-20c-4.7 0-8.5 3.8-8.5 8.5s3.8 8.5 8.5 8.5 8.5-3.8 8.5-8.5-3.8-8.5-8.5-8.5z"/></g><g class="st0"><path class="st2" d="M369 505.5c-6.3 0-11.5-5.2-11.5-11.5s5.2-11.5 11.5-11.5 11.5 5.2 11.5 11.5-5.2 11.5-11.5 11.5zm0-20c-4.7 0-8.5 3.8-8.5 8.5s3.8 8.5 8.5 8.5 8.5-3.8 8.5-8.5-3.8-8.5-8.5-8.5z"/></g><g class="st0"><path class="st2" d="M330 266.5c-6.3 0-11.5-5.2-11.5-11.5s5.2-11.5 11.5-11.5 11.5 5.2 11.5 11.5-5.2 11.5-11.5 11.5zm0-20c-4.7 0-8.5 3.8-8.5 8.5s3.8 8.5 8.5 8.5 8.5-3.8 8.5-8.5-3.8-8.5-8.5-8.5z"/></g><g class="st0"><path class="st2" d="M119 53.5c-6.3 0-11.5-5.2-11.5-11.5s5.2-11.5 11.5-11.5 11.5 5.2 11.5 11.5-5.2 11.5-11.5 11.5zm0-20c-4.7 0-8.5 3.8-8.5 8.5s3.8 8.5 8.5 8.5 8.5-3.8 8.5-8.5-3.8-8.5-8.5-8.5z"/></g><g class="st0"><path class="st2" d="M764 471.5c-6.3 0-11.5-5.2-11.5-11.5s5.2-11.5 11.5-11.5 11.5 5.2 11.5 11.5-5.2 11.5-11.5 11.5zm0-20c-4.7 0-8.5 3.8-8.5 8.5s3.8 8.5 8.5 8.5 8.5-3.8 8.5-8.5-3.8-8.5-8.5-8.5z"/></g><g class="st0"><path class="st2" d="M759 267.5c-6.3 0-11.5-5.2-11.5-11.5s5.2-11.5 11.5-11.5 11.5 5.2 11.5 11.5-5.2 11.5-11.5 11.5zm0-20c-4.7 0-8.5 3.8-8.5 8.5s3.8 8.5 8.5 8.5 8.5-3.8 8.5-8.5-3.8-8.5-8.5-8.5z"/></g><g class="st0"><path class="st2" d="M57 180.5c-6.3 0-11.5-5.2-11.5-11.5s5.2-11.5 11.5-11.5 11.5 5.2 11.5 11.5-5.2 11.5-11.5 11.5zm0-20c-4.7 0-8.5 3.8-8.5 8.5s3.8 8.5 8.5 8.5 8.5-3.8 8.5-8.5-3.8-8.5-8.5-8.5z"/></g><g class="st0"><path class="st2" d="M478 56.5c-6.3 0-11.5-5.2-11.5-11.5s5.2-11.5 11.5-11.5 11.5 5.2 11.5 11.5-5.2 11.5-11.5 11.5zm0-20c-4.7 0-8.5 3.8-8.5 8.5s3.8 8.5 8.5 8.5 8.5-3.8 8.5-8.5-3.8-8.5-8.5-8.5z"/></g><g class="st0"><path class="st2" d="M525 755.5c-6.3 0-11.5-5.2-11.5-11.5s5.2-11.5 11.5-11.5 11.5 5.2 11.5 11.5-5.2 11.5-11.5 11.5zm0-20c-4.7 0-8.5 3.8-8.5 8.5s3.8 8.5 8.5 8.5 8.5-3.8 8.5-8.5-3.8-8.5-8.5-8.5z"/></g><g class="st0"><path class="st2" d="M323 704.5c-6.3 0-11.5-5.2-11.5-11.5s5.2-11.5 11.5-11.5 11.5 5.2 11.5 11.5-5.2 11.5-11.5 11.5zm0-20c-4.7 0-8.5 3.8-8.5 8.5s3.8 8.5 8.5 8.5 8.5-3.8 8.5-8.5-3.8-8.5-8.5-8.5z"/></g><g class="st0"><path class="st2" d="M70 636.5c-6.3 0-11.5-5.2-11.5-11.5s5.2-11.5 11.5-11.5 11.5 5.2 11.5 11.5-5.2 11.5-11.5 11.5zm0-20c-4.7 0-8.5 3.8-8.5 8.5s3.8 8.5 8.5 8.5 8.5-3.8 8.5-8.5-3.8-8.5-8.5-8.5z"/></g><g class="st0"><path class="st2" d="M241 43.5c-6.3 0-11.5-5.2-11.5-11.5s5.2-11.5 11.5-11.5 11.5 5.2 11.5 11.5-5.2 11.5-11.5 11.5zm0-20c-4.7 0-8.5 3.8-8.5 8.5s3.8 8.5 8.5 8.5 8.5-3.8 8.5-8.5-3.8-8.5-8.5-8.5z"/></g><g class="st0"><path class="st2" d="M702 52.5c-6.3 0-11.5-5.2-11.5-11.5s5.2-11.5 11.5-11.5 11.5 5.2 11.5 11.5-5.2 11.5-11.5 11.5zm0-20c-4.7 0-8.5 3.8-8.5 8.5s3.8 8.5 8.5 8.5 8.5-3.8 8.5-8.5-3.8-8.5-8.5-8.5z"/></g><g class="st0"><path class="st2" d="M601 204.5c-6.3 0-11.5-5.2-11.5-11.5s5.2-11.5 11.5-11.5 11.5 5.2 11.5 11.5-5.2 11.5-11.5 11.5zm0-20c-4.7 0-8.5 3.8-8.5 8.5s3.8 8.5 8.5 8.5 8.5-3.8 8.5-8.5-3.8-8.5-8.5-8.5z"/></g><g class="st0"><path class="st2" d="M735 376.5c-6.3 0-11.5-5.2-11.5-11.5s5.2-11.5 11.5-11.5 11.5 5.2 11.5 11.5-5.2 11.5-11.5 11.5zm0-20c-4.7 0-8.5 3.8-8.5 8.5s3.8 8.5 8.5 8.5 8.5-3.8 8.5-8.5-3.8-8.5-8.5-8.5z"/></g><g class="st0"><path class="st2" d="M331 333.5c-.4 0-.9-.2-1.2-.5-.5-.6-.4-1.6.2-2.1l68-56c.6-.5 1.6-.4 2.1.2.5.6.4 1.6-.2 2.1l-68 56c-.2.2-.6.3-.9.3z"/></g><g class="st0"><path class="st2" d="M413 262.5c-.3 0-.7-.1-.9-.3-.6-.5-.7-1.5-.2-2.1l70-86c.5-.6 1.5-.7 2.1-.2.6.5.7 1.5.2 2.1l-70 86c-.3.3-.8.5-1.2.5z"/></g><g class="st0"><path transform="rotate(-84.163 386.266 372.507)" class="st2" d="M385.3 338.1h2V407h-2z"/></g><g class="st0"><path class="st2" d="M435.9 351.6l-26.8-73.3 2-.6 26.8 73.2z"/></g><g class="st0"><path transform="rotate(-33.506 513.518 335.512)" class="st2" d="M467.3 334.5h92.4v2h-92.4z"/></g><g class="st0"><path transform="rotate(-19.763 433.033 163.473)" class="st2" d="M399 162.5h68v2h-68z"/></g><g class="st0"><path transform="rotate(-48.012 542.99 86.996)" class="st2" d="M516.1 86h53.8v2h-53.8z"/></g><g class="st0"><path class="st2" d="M542.2 137l-.4-2 90.1-19 .5 2z"/></g><g class="st0"><path transform="rotate(-2.911 302.657 494.95) scale(.99999)" class="st2" d="M301.6 428.8h2V561h-2z"/></g><g class="st0"><path transform="rotate(-63.781 240.472 566.49)" class="st2" d="M239.5 529.2h2v74.7h-2z"/></g><g class="st0"><path transform="rotate(-57.588 127.494 500.006)" class="st2" d="M126.5 462.7h2v74.6h-2z"/></g><g class="st0"><path transform="rotate(-46.9 254.98 660.961)" class="st2" d="M212.6 660h84.9v2h-84.9z"/></g><g class="st0"><path class="st2" d="M129 666.7l-1.9-.8 47-100.3 1.8.8z"/></g><g class="st0"><path transform="rotate(-69.305 157.491 694.478)" class="st2" d="M156.5 670.4h2v48.1h-2z"/></g><g class="st0"><path transform="rotate(-18.432 555.075 618.037)" class="st2" d="M554 576.9h2v82.2h-2z"/></g><g class="st0"><path transform="rotate(-7.52 644.248 674.223)" class="st2" d="M605.7 672.9h76.8v2h-76.8z"/></g><g class="st0"><path transform="rotate(-53.9 628.655 715.963)" class="st2" d="M627.6 685.5h2v60.9h-2z"/></g><g class="st0"><path transform="rotate(-8.257 516.687 693.22)" class="st2" d="M481.6 692h69.7v2h-69.7z"/></g><g class="st0"><path transform="rotate(-16.63 599.798 489.957)" class="st2" d="M570.1 489h59.5v2h-59.5z"/></g><g class="st0"><path transform="rotate(-4.37 659.75 280.5)" class="st2" d="M626.9 279.5h65.7v2h-65.7z"/></g><g class="st0"><path transform="rotate(-72.915 558.96 404.487)" class="st2" d="M484.2 403.5h149.6v2H484.2z"/></g><g class="st0"><path transform="rotate(-45.001 100.997 285.002)" class="st2" d="M75.5 284h50.9v2H75.5z"/></g><g class="st0"><path class="st2" d="M655 560.2l-11-67.7 2-.3 11 67.6z"/></g><g class="st0"><path transform="rotate(-55.986 621.952 618.984)" class="st2" d="M573.7 618h96.5v2h-96.5z"/></g><g class="st0"><path class="st2" d="M607 185.5c-.3 0-.6-.1-.8-.2-.7-.5-.9-1.4-.4-2.1l37-56c.5-.7 1.4-.9 2.1-.4.7.5.9 1.4.4 2.1l-37 56c-.3.4-.8.6-1.3.6z"/></g><g class="st0"><path class="st2" d="M590 189.5c-.2 0-.4 0-.6-.1l-53-24c-.8-.3-1.1-1.2-.7-2 .3-.8 1.2-1.1 2-.7l53 24c.8.3 1.1 1.2.7 2-.3.5-.8.8-1.4.8z"/></g><g class="st0"><path class="st2" d="M592 255.5h-.3c-.8-.1-1.4-.9-1.2-1.7l9-51c.1-.8.9-1.4 1.7-1.2.8.1 1.4.9 1.2 1.7l-9 51c-.1.7-.7 1.2-1.4 1.2z"/></g><g class="st0"><path class="st2" d="M734 172.5c-.4 0-.8-.1-1.1-.4l-53-53c-.6-.6-.6-1.5 0-2.1.6-.6 1.5-.6 2.1 0l53 53c.6.6.6 1.5 0 2.1-.2.3-.6.4-1 .4z"/></g><g class="st0"><path class="st2" d="M673 79.5c-.3 0-.7-.1-.9-.3-.7-.5-.8-1.5-.3-2.1l22-28c.5-.7 1.5-.8 2.1-.3.7.5.8 1.5.3 2.1l-22 28c-.3.4-.8.6-1.2.6z"/></g><g class="st0"><path class="st2" d="M234 83h-.3c-.8-.1-1.4-.9-1.2-1.7l7-39.5c.1-.8.9-1.4 1.7-1.2.8.1 1.4.9 1.2 1.7l-7 39.5c-.1.7-.7 1.2-1.4 1.2z"/></g><g class="st0"><path class="st2" d="M261 102.5c-.7 0-1.3-.5-1.5-1.2-.2-.8.3-1.6 1.1-1.8l40-9c.8-.2 1.6.3 1.8 1.1.2.8-.3 1.6-1.1 1.8l-40 9c-.1.1-.2.1-.3.1z"/></g><g class="st0"><path class="st2" d="M169 379.5c-.7 0-1.3-.5-1.5-1.2L148 281.8c-.2-.8.4-1.6 1.2-1.8.8-.2 1.6.4 1.8 1.2l19.5 96.5c.2.8-.4 1.6-1.2 1.8h-.3z"/></g><g class="st0"><path class="st2" d="M179 389.5c-.8 0-1.4-.6-1.5-1.4 0-.8.6-1.5 1.4-1.6l69-4c.8 0 1.5.6 1.6 1.4 0 .8-.6 1.5-1.4 1.6l-69.1 4c.1 0 0 0 0 0z"/></g><g class="st0"><path class="st2" d="M178 510.5c-.8 0-1.4-.6-1.5-1.4l-9-111c-.1-.8.5-1.5 1.4-1.6.8-.1 1.5.5 1.6 1.4l9 111c.1.8-.5 1.5-1.4 1.6h-.1z"/></g><g class="st0"><path class="st2" d="M91.9 457.7c-.4 0-.8-.2-1.1-.5-.5-.6-.5-1.5.1-2.1l68.1-61.2c.6-.5 1.5-.5 2.1.1.5.6.5 1.5-.1 2.1l-68.2 61.2c-.2.3-.6.4-.9.4z"/></g><g class="st0"><path class="st2" d="M445.8 591.7c-.4 0-.8-.2-1.1-.5-.5-.6-.5-1.5.1-2.1l36.2-33.3c.6-.5 1.5-.5 2.1.1.5.6.5 1.5-.1 2.1l-36.2 33.3c-.3.3-.6.4-1 .4z"/></g><g class="st0"><path class="st2" d="M417 607h-.1l-66.5-5c-.8-.1-1.4-.8-1.4-1.6.1-.8.8-1.5 1.6-1.4l66.5 5c.8.1 1.4.8 1.4 1.6s-.7 1.4-1.5 1.4z"/></g><g class="st0"><path class="st2" d="M200 516.5c-.3 0-.6-.1-.9-.3-.7-.5-.8-1.4-.4-2.1l68-97c.5-.7 1.4-.8 2.1-.4.7.5.8 1.4.4 2.1l-68 97c-.3.5-.7.7-1.2.7z"/></g><g class="st0"><path class="st2" d="M294 323.5c-.7 0-1.3-.4-1.4-1.1l-52-183c-.2-.8.2-1.6 1-1.9.8-.2 1.6.2 1.9 1l52 183c.2.8-.2 1.6-1 1.9-.2.1-.4.1-.5.1z"/></g><g class="st0"><path class="st2" d="M657 463.5c-.3 0-.7-.1-.9-.3-.6-.5-.7-1.5-.2-2.1l72-89c.5-.6 1.5-.7 2.1-.2.6.5.7 1.5.2 2.1l-72 89c-.3.3-.8.5-1.2.5z"/></g><g class="st0"><path class="st2" d="M722 510.5c-.2 0-.4 0-.6-.1l-60.8-27.2c-.8-.3-1.1-1.2-.8-2 .3-.8 1.2-1.1 2-.8l60.8 27.2c.8.3 1.1 1.2.8 2-.3.6-.8.9-1.4.9z"/></g><g class="st0"><path class="st2" d="M665 565.5c-.5 0-.9-.2-1.2-.7-.4-.7-.3-1.6.4-2l56.7-37.3c.7-.4 1.6-.3 2 .4.4.7.3 1.6-.4 2l-56.7 37.3c-.3.2-.6.3-.8.3z"/></g><g class="st0"><path class="st2" d="M449 698.5c-.3 0-.6-.1-.8-.2l-109-71c-.7-.5-.9-1.4-.4-2.1.5-.7 1.4-.9 2.1-.4l109 71c.7.5.9 1.4.4 2.1-.3.4-.8.6-1.3.6z"/></g><g class="st0"><path class="st2" d="M206 102.5h-.2l-88.5-14c-.8-.1-1.4-.9-1.2-1.7.1-.8.9-1.4 1.7-1.2l88.5 14c.8.1 1.4.9 1.2 1.7-.1.7-.8 1.2-1.5 1.2z"/></g><g class="st0"><circle class="st2" cx="415" cy="87" r="8"/></g><g class="st0"><circle class="st2" cx="630" cy="379" r="8"/></g><g class="st0"><circle class="st2" cx="61" cy="745" r="8"/></g><g class="st0"><circle class="st2" cx="407" cy="451" r="8"/></g><g class="st0"><circle class="st2" cx="47" cy="49" r="8"/></g><g class="st0"><circle class="st2" cx="259" cy="193" r="8"/></g><g class="st0"><circle class="st2" cx="103" cy="373" r="8"/></g><g class="st0"><circle class="st2" cx="753" cy="579" r="8"/></g><g class="st0"><circle class="st2" cx="728" cy="721" r="8"/></g><g class="st0"><circle class="st2" cx="675" cy="196" r="8"/></g><g class="st0"><circle class="st2" cx="764" cy="58" r="8"/></g><g class="st0"><path transform="rotate(-24.217 723.928 76)" class="st2" d="M680.1 75h87.7v2h-87.7z"/></g><g class="st0"><path transform="rotate(-18.803 485.941 78.503)" class="st2" d="M485 53.7h2v49.6h-2z"/></g><g class="st0"><path transform="rotate(-62.154 443.491 105.005)" class="st2" d="M442.5 75h2v59.9h-2z"/></g><g class="st0"><path transform="rotate(-74.83 318.994 293.486)" class="st2" d="M288.4 292.5h61.1v2h-61.1z"/></g><g class="st0"><path transform="rotate(-56.312 69.494 63.997)" class="st2" d="M68.5 44.2h2v39.7h-2z"/></g><g class="st0"><path transform="rotate(-47.894 88.99 198.493)" class="st2" d="M88 163.5h2v70.1h-2z"/></g><g class="st0"><path transform="rotate(-74.306 116.51 325.013)" class="st2" d="M66.6 324h99.7v2H66.6z"/></g><g class="st0"><path class="st2" d="M107.3 666.7l-32.2-33.9 1.5-1.4 32.1 33.9z"/></g><g class="st0"><path class="st2" d="M61.8 745.6l-1.6-1.2 42.6-53.3 1.6 1.2z"/></g><g class="st0"><path class="st2" d="M321 682.1l-4-43.3 2-.2 4 43.3z"/></g><g class="st0"><path transform="rotate(-39.484 549.057 723.002)" class="st2" d="M527 722h44v2h-44z"/></g><g class="st0"><path transform="rotate(-14.35 747.582 557.593)" class="st2" d="M746.5 535.3h2v44.4h-2z"/></g><g class="st0"><path transform="rotate(-26.565 719.022 703.021)" class="st2" d="M718 682.9h2v40.2h-2z"/></g><g class="st0"><path transform="rotate(-23.627 618.537 351.007)" class="st2" d="M617.5 324.8h2v52.4h-2z"/></g><g class="st0"><path transform="rotate(-48.166 644.98 229.493)" class="st2" d="M600 228.5h89.9v2H600z"/></g><g class="st0"><path transform="rotate(-30.129 544.454 218.52)" class="st2" d="M543.5 171.7h2v93.6h-2z"/></g><g class="st0"><path transform="rotate(-26.565 483.015 443.014)" class="st2" d="M482 398.3h2v89.4h-2z"/></g><g class="st0"><path transform="rotate(-62.561 312.995 149.002)" class="st2" d="M312 90.4h2v117.2h-2z"/></g><g class="st0"><path class="st2" d="M661 470c-.5 0-.9-.4-1-.9-.1-.5.3-1 .9-1.1l93-9c.6 0 1 .3 1.1.9.1.5-.3 1-.9 1.1l-93.1 9c.1 0 0 0 0 0z"/></g><g class="st0"><path class="st2" d="M747 504c-.1 0-.2 0-.4-.1-.5-.2-.8-.8-.6-1.3l12-32c.2-.5.8-.8 1.3-.6.5.2.8.8.6 1.3l-12 32c-.1.5-.5.7-.9.7z"/></g><g class="st0"><path class="st2" d="M728 274c-.3 0-.7-.2-.9-.5-.3-.5-.1-1.1.4-1.4l22-13c.5-.3 1.1-.1 1.4.4.3.5.1 1.1-.4 1.4l-22 13c-.2.1-.3.1-.5.1z"/></g><g class="st0"><path class="st2" d="M107 72c-.1 0-.3 0-.4-.1-.5-.2-.7-.8-.5-1.3l8-19c.2-.5.8-.7 1.3-.5.5.2.7.8.5 1.3l-8 19c-.1.4-.5.6-.9.6z"/></g><g class="st0"><path class="st2" d="M56 301c-.3 0-.7-.2-.9-.5l-17-30c-.3-.5-.1-1.1.4-1.4.5-.3 1.1-.1 1.4.4l17 30c.3.5.1 1.1-.4 1.4-.2.1-.3.1-.5.1z"/></g><g class="st0"><path class="st2" d="M54 519c-.2 0-.4 0-.5-.2-.5-.3-.6-.9-.3-1.4l19-30c.3-.5.9-.6 1.4-.3.5.3.6.9.3 1.4l-19 30c-.2.3-.6.5-.9.5z"/></g><g class="st0"><path class="st2" d="M330 568c-.2 0-.3 0-.5-.1-.5-.3-.7-.9-.4-1.4l35-63c.3-.5.9-.7 1.4-.4.5.3.7.9.4 1.4l-35 63c-.2.3-.5.5-.9.5z"/></g><g class="st0"><path class="st2" d="M472.5 528.5h-.3L379.7 499c-.5-.2-.8-.7-.6-1.3.2-.5.7-.8 1.3-.6l92.5 29.5c.5.2.8.7.6 1.3-.2.3-.6.6-1 .6z"/></g><g class="st0"><path class="st2" d="M363 485c-.3 0-.6-.2-.8-.5l-42-64c-.3-.5-.2-1.1.3-1.4.5-.3 1.1-.2 1.4.3l42 64c.3.5.2 1.1-.3 1.4-.2.1-.4.2-.6.2z"/></g><g class="st0"><path class="st2" d="M553 672c-.2 0-.3 0-.5-.1l-102-55c-.5-.3-.7-.9-.4-1.4.3-.5.9-.7 1.4-.4l102 55c.5.3.7.9.4 1.4-.2.3-.5.5-.9.5z"/></g><g class="st0"><path class="st2" d="M334 246c-.2 0-.4-.1-.6-.2-.5-.3-.6-.9-.3-1.4l36-53c.3-.5.9-.6 1.4-.3.5.3.6.9.3 1.4l-36 53c-.2.3-.5.5-.8.5z"/></g><g class="st0"><path class="st2" d="M133 673c-.4 0-.7-.2-.9-.6-.2-.5 0-1.1.5-1.3l137-62c.5-.2 1.1 0 1.3.5.2.5 0 1.1-.5 1.3l-137 62c-.1.1-.3.1-.4.1z"/></g><g class="st0"><path class="st2" d="M553 274c-.2 0-.3 0-.5-.1l-154-85c-.5-.3-.7-.9-.4-1.4.3-.5.9-.7 1.4-.4l154 85c.5.3.7.9.4 1.4-.2.3-.5.5-.9.5z"/></g><g class="st0"><path class="st2" d="M630 464c-.2 0-.3 0-.4-.1l-153-77c-.5-.2-.7-.8-.4-1.3.2-.5.9-.7 1.3-.4l153 77c.5.2.7.8.4 1.3-.2.3-.5.5-.9.5z"/></g><g class="st0"><path class="st2" d="M645.7 567.7c-.1 0-.2 0-.3-.1L576.7 543c-.5-.2-.8-.8-.6-1.3.2-.5.8-.8 1.3-.6l68.7 24.6c.5.2.8.8.6 1.3-.2.4-.6.7-1 .7z"/></g><g class="st0"><path class="st2" d="M117.4 663.9c-.5 0-.9-.3-1-.8L80.6 490.2c-.1-.5.2-1.1.8-1.2.5-.1 1.1.2 1.2.8l35.9 172.9c.1.5-.2 1.1-.8 1.2h-.3z"/></g><g class="st0"><path class="st2" d="M674 730c-.1 0-.3 0-.4-.1-.5-.2-.8-.8-.5-1.3l18-43c.2-.5.8-.8 1.3-.5.5.2.8.8.5 1.3l-18 43c-.1.4-.5.6-.9.6z"/></g><g class="st0"><path class="st2" d="M691 653c-.4 0-.8-.2-.9-.6l-29-73c-.2-.5 0-1.1.6-1.3.5-.2 1.1 0 1.3.6l29 73c.2.5 0 1.1-.6 1.3h-.4z"/></g><g class="st0"><path class="st2" d="M641 458c-.5 0-.9-.4-1-.9l-11-78c-.1-.5.3-1.1.9-1.1.5-.1 1.1.3 1.1.9l11 78c.1.5-.3 1.1-.9 1.1h-.1z"/></g><g class="st0"><path class="st2" d="M634 378c-.2 0-.4-.1-.6-.2-.4-.3-.5-1-.2-1.4l65-85c.3-.4 1-.5 1.4-.2.4.3.5 1 .2 1.4l-65 85c-.2.3-.5.4-.8.4z"/></g><g class="st0"><path class="st2" d="M730 356c-.5 0-.9-.3-1-.8l-14-58c-.1-.5.2-1.1.7-1.2.5-.1 1.1.2 1.2.7l14 58c.1.5-.2 1.1-.7 1.2 0 .1-.1.1-.2.1z"/></g><g class="st0"><path class="st2" d="M683 197c-.4 0-.8-.3-1-.7-.1-.5.2-1.1.7-1.2l46-12.5c.5-.1 1.1.2 1.2.7.1.5-.2 1.1-.7 1.2l-46 12.5h-.2z"/></g><g class="st0"><path class="st2" d="M675 193c-.4 0-.8-.3-1-.7l-18-59.5c-.2-.5.1-1.1.7-1.2.5-.2 1.1.1 1.2.7l18 59.5c.2.5-.1 1.1-.7 1.2h-.2z"/></g><g class="st0"><path class="st2" d="M633 87c-.2 0-.4-.1-.6-.2l-42-28c-.5-.3-.6-.9-.3-1.4.3-.5.9-.6 1.4-.3l42 28c.5.3.6.9.3 1.4-.2.3-.5.5-.8.5z"/></g><g class="st0"><path class="st3" d="M541.4 512c0-7.9-6.4-14.4-14.4-14.4-7.9 0-14.4 6.4-14.4 14.4 0 7.9 6.4 14.4 14.4 14.4 7.9 0 14.4-6.5 14.4-14.4zm-25.2.3s-.4-4.1 2.5-7.2c2.1 2.1 8.3 7.2 19 7.2 0 5.9-4.8 10.8-10.8 10.8s-10.7-4.8-10.7-10.8zM502.3 537.4V552c0 2.3 1.8 4.1 4.1 4.1h41.1c2.3 0 4.1-1.8 4.1-4.1v-14.6c0-4.5-3.7-8.2-8.2-8.2h-7.3c-.5 0-1.2.3-1.5.8l-7.2 10.2c-.3.4-.7.4-1 0l-7.2-10.2c-.3-.4-.9-.8-1.5-.8h-7.3c-4.4 0-8.1 3.7-8.1 8.2z"/></g><g class="st0"><path class="st4" d="M160.5 229.1c0-6.1-4.9-11-11-11s-11 4.9-11 11 4.9 11 11 11 11-4.9 11-11zm-19.2.3s-.3-3.1 1.9-5.5c1.6 1.6 6.3 5.5 14.5 5.5 0 4.5-3.7 8.2-8.2 8.2s-8.2-3.7-8.2-8.2zM130.7 248.6v11.2c0 1.7 1.4 3.1 3.1 3.1h31.4c1.7 0 3.1-1.4 3.1-3.1v-11.2c0-3.5-2.8-6.3-6.3-6.3h-5.6c-.4 0-.9.3-1.1.6l-5.5 7.8c-.2.3-.6.3-.8 0l-5.5-7.8c-.2-.3-.7-.6-1.1-.6h-5.6c-3.3 0-6.1 2.8-6.1 6.3z"/></g><g class="st0"><path class="st5" d="M320.1 589.2c0-6-4.9-10.9-10.9-10.9s-10.9 4.9-10.9 10.9 4.9 10.9 10.9 10.9 10.9-4.9 10.9-10.9zm-19.1.2s-.3-3.1 1.9-5.4c1.6 1.6 6.3 5.4 14.4 5.4 0 4.5-3.7 8.2-8.2 8.2-4.4 0-8.1-3.7-8.1-8.2zM290.5 608.4v11c0 1.7 1.4 3.1 3.1 3.1h31.2c1.7 0 3.1-1.4 3.1-3.1v-11c0-3.4-2.8-6.2-6.2-6.2h-5.5c-.4 0-.9.3-1.1.6l-5.4 7.7c-.2.3-.6.3-.8 0l-5.4-7.7c-.2-.3-.7-.6-1.1-.6h-5.5c-3.6 0-6.4 2.8-6.4 6.2z"/></g><g class="st0"><path class="st1" d="M457.8 366.3c0-4.3-3.5-7.8-7.8-7.8s-7.8 3.5-7.8 7.8 3.5 7.8 7.8 7.8 7.8-3.5 7.8-7.8zm-13.6.2s-.2-2.2 1.4-3.9c1.1 1.1 4.5 3.9 10.3 3.9 0 3.2-2.6 5.8-5.8 5.8-3.3 0-5.9-2.6-5.9-5.8zM436.6 380.1v7.9c0 1.2 1 2.2 2.2 2.2h22.3c1.2 0 2.2-1 2.2-2.2v-7.9c0-2.5-2-4.5-4.5-4.5h-4c-.3 0-.6.2-.8.4l-3.9 5.5c-.2.2-.4.2-.6 0l-3.9-5.5c-.2-.2-.5-.4-.8-.4h-4c-2.2 0-4.2 2-4.2 4.5z"/></g><g class="st0"><path class="st2" d="M465.4 723.6c-10.4 0-18.9-8.5-18.9-18.9 0-10.4 8.5-18.9 18.9-18.9 10.4 0 18.9 8.5 18.9 18.9 0 10.4-8.5 18.9-18.9 18.9zm0-35.6c-9.2 0-16.7 7.5-16.7 16.7s7.5 16.7 16.7 16.7 16.7-7.5 16.7-16.7-7.5-16.7-16.7-16.7z"/></g><g class="st0"><path class="st2" d="M470.4 699.5c0-2.8-2.2-5-5-5s-5 2.3-5 5c0 2.8 2.3 5 5 5 2.8 0 5-2.2 5-5zm-8.8.1s-.1-1.4.9-2.5c.7.7 2.9 2.5 6.7 2.5 0 2.1-1.7 3.8-3.8 3.8-2.1 0-3.8-1.7-3.8-3.8zM456.8 708.4v5.1c0 .8.6 1.4 1.4 1.4h14.4c.8 0 1.4-.6 1.4-1.4v-5.1c0-1.6-1.3-2.9-2.9-2.9h-2.5c-.2 0-.4.1-.5.3l-2.5 3.6c-.1.1-.3.1-.4 0l-2.5-3.6c-.1-.1-.3-.3-.5-.3h-2.5c-1.6 0-2.9 1.3-2.9 2.9z"/></g><g class="st0"><path class="st2" d="M705 663.8c0-2.8-2.2-5-5-5s-5 2.3-5 5c0 2.8 2.3 5 5 5 2.8 0 5-2.2 5-5zm-8.8.1s-.1-1.4.9-2.5c.7.7 2.9 2.5 6.7 2.5 0 2.1-1.7 3.8-3.8 3.8-2.1 0-3.8-1.7-3.8-3.8zM691.4 672.7v5.1c0 .8.6 1.4 1.4 1.4h14.4c.8 0 1.4-.6 1.4-1.4v-5.1c0-1.6-1.3-2.9-2.9-2.9h-2.5c-.2 0-.4.1-.5.3l-2.5 3.6c-.1.1-.3.1-.4 0l-2.5-3.6c-.1-.1-.3-.3-.5-.3h-2.5c-1.6 0-2.9 1.3-2.9 2.9z"/></g><g class="st0"><path class="st2" d="M527.6 740.9c0-1.4-1.2-2.6-2.6-2.6-1.4 0-2.6 1.2-2.6 2.6 0 1.4 1.2 2.6 2.6 2.6 1.4 0 2.6-1.2 2.6-2.6zm-4.6.1s-.1-.7.5-1.3c.4.4 1.5 1.3 3.5 1.3 0 1.1-.9 2-2 2-1.1-.1-2-1-2-2zM520.5 745.5v2.7c0 .4.3.7.7.7h7.5c.4 0 .7-.3.7-.7v-2.7c0-.8-.7-1.5-1.5-1.5h-1.3c-.1 0-.2.1-.3.1l-1.3 1.8c-.1.1-.1.1-.2 0l-1.3-1.8c-.1-.1-.2-.1-.3-.1H522c-.8 0-1.5.7-1.5 1.5z"/></g><g class="st0"><path class="st2" d="M658.6 567.3c0-1.4-1.2-2.6-2.6-2.6-1.4 0-2.6 1.2-2.6 2.6 0 1.4 1.2 2.6 2.6 2.6 1.4 0 2.6-1.2 2.6-2.6zm-4.6.1s-.1-.7.5-1.3c.4.4 1.5 1.3 3.5 1.3 0 1.1-.9 2-2 2-1.1-.1-2-1-2-2zM651.5 571.9v2.7c0 .4.3.7.7.7h7.5c.4 0 .7-.3.7-.7v-2.7c0-.8-.7-1.5-1.5-1.5h-1.3c-.1 0-.2.1-.3.1l-1.3 1.8c-.1.1-.1.1-.2 0l-1.3-1.8c-.1-.1-.2-.1-.3-.1H653c-.8 0-1.5.7-1.5 1.5z"/></g><g class="st0"><path class="st2" d="M766.6 456.3c0-1.4-1.2-2.6-2.6-2.6-1.4 0-2.6 1.2-2.6 2.6 0 1.4 1.2 2.6 2.6 2.6 1.4 0 2.6-1.2 2.6-2.6zm-4.6.1s-.1-.7.5-1.3c.4.4 1.5 1.3 3.5 1.3 0 1.1-.9 2-2 2-1.1-.1-2-1-2-2zM759.5 460.9v2.7c0 .4.3.7.7.7h7.5c.4 0 .7-.3.7-.7v-2.7c0-.8-.7-1.5-1.5-1.5h-1.3c-.1 0-.2.1-.3.1l-1.3 1.8c-.1.1-.1.1-.2 0l-1.3-1.8c-.1-.1-.2-.1-.3-.1H761c-.8 0-1.5.7-1.5 1.5z"/></g><g class="st0"><path class="st2" d="M737.6 362.3c0-1.4-1.2-2.6-2.6-2.6-1.4 0-2.6 1.2-2.6 2.6 0 1.4 1.2 2.6 2.6 2.6 1.4 0 2.6-1.2 2.6-2.6zm-4.6.1s-.1-.7.5-1.3c.4.4 1.5 1.3 3.5 1.3 0 1.1-.9 2-2 2-1.1-.1-2-1-2-2zM730.5 366.9v2.7c0 .4.3.7.7.7h7.5c.4 0 .7-.3.7-.7v-2.7c0-.8-.7-1.5-1.5-1.5h-1.3c-.1 0-.2.1-.3.1l-1.3 1.8c-.1.1-.1.1-.2 0l-1.3-1.8c-.1-.1-.2-.1-.3-.1H732c-.8 0-1.5.7-1.5 1.5z"/></g><g class="st0"><path class="st2" d="M603.6 190.3c0-1.4-1.2-2.6-2.6-2.6-1.4 0-2.6 1.2-2.6 2.6 0 1.4 1.2 2.6 2.6 2.6 1.4 0 2.6-1.2 2.6-2.6zm-4.6.1s-.1-.7.5-1.3c.4.4 1.5 1.3 3.5 1.3 0 1.1-.9 2-2 2-1.1-.1-2-1-2-2zM596.5 194.9v2.7c0 .4.3.7.7.7h7.5c.4 0 .7-.3.7-.7v-2.7c0-.8-.7-1.5-1.5-1.5h-1.3c-.1 0-.2.1-.3.1l-1.3 1.8c-.1.1-.1.1-.2 0l-1.3-1.8c-.1-.1-.2-.1-.3-.1H598c-.8 0-1.5.7-1.5 1.5z"/></g><g class="st0"><path class="st2" d="M742.6 512.7c0-2.8-2.2-5-5-5s-5 2.3-5 5c0 2.8 2.3 5 5 5s5-2.2 5-5zm-8.8.1s-.1-1.4.9-2.5c.7.7 2.9 2.5 6.7 2.5 0 2.1-1.7 3.8-3.8 3.8-2.1 0-3.8-1.7-3.8-3.8zM728.9 521.6v5.1c0 .8.6 1.4 1.4 1.4h14.4c.8 0 1.4-.6 1.4-1.4v-5.1c0-1.6-1.3-2.9-2.9-2.9h-2.5c-.2 0-.4.1-.5.3l-2.5 3.6c-.1.1-.3.1-.4 0l-2.5-3.6c-.1-.1-.3-.3-.5-.3h-2.5c-1.6 0-2.9 1.3-2.9 2.9z"/></g><g class="st0"><path class="st6" d="M514.4 130.2c0-6-4.9-10.9-10.9-10.9s-10.9 4.9-10.9 10.9 4.9 10.9 10.9 10.9 10.9-4.9 10.9-10.9zm-19.1.2s-.3-3.1 1.9-5.5c1.6 1.6 6.3 5.5 14.4 5.5 0 4.5-3.7 8.2-8.2 8.2-4.4 0-8.1-3.6-8.1-8.2zM484.8 149.5v11c0 1.7 1.4 3.1 3.1 3.1h31.2c1.7 0 3.1-1.4 3.1-3.1v-11c0-3.4-2.8-6.2-6.2-6.2h-5.5c-.4 0-.9.3-1.1.6l-5.5 7.7c-.2.3-.6.3-.8 0l-5.5-7.7c-.2-.3-.7-.6-1.1-.6H491c-3.4 0-6.2 2.8-6.2 6.2z"/></g><g class="st0"><path class="st2" d="M752.1 178.4c0-2.7-2.2-4.9-4.9-4.9s-4.9 2.2-4.9 4.9 2.2 4.9 4.9 4.9c2.7-.1 4.9-2.2 4.9-4.9zm-8.5.1s-.1-1.4.9-2.4c.7.7 2.8 2.4 6.4 2.4 0 2-1.6 3.6-3.6 3.6-2.1 0-3.7-1.6-3.7-3.6zM738.9 187v4.9c0 .8.6 1.4 1.4 1.4h13.9c.8 0 1.4-.6 1.4-1.4V187c0-1.5-1.2-2.8-2.8-2.8h-2.5c-.2 0-.4.1-.5.3l-2.4 3.4c-.1.1-.3.1-.3 0l-2.4-3.4c-.1-.1-.3-.3-.5-.3h-2.5c-1.5 0-2.8 1.2-2.8 2.8z"/></g><g class="st0"><path class="st2" d="M715.9 273c0-2.7-2.2-4.9-4.9-4.9s-4.9 2.2-4.9 4.9 2.2 4.9 4.9 4.9c2.7-.1 4.9-2.2 4.9-4.9zm-8.5.1s-.1-1.4.9-2.4c.7.7 2.8 2.4 6.4 2.4 0 2-1.6 3.6-3.6 3.6-2.1 0-3.7-1.6-3.7-3.6zM702.7 281.6v4.9c0 .8.6 1.4 1.4 1.4H718c.8 0 1.4-.6 1.4-1.4v-4.9c0-1.5-1.2-2.8-2.8-2.8h-2.5c-.2 0-.4.1-.5.3l-2.4 3.4c-.1.1-.3.1-.3 0l-2.4-3.4c-.1-.1-.3-.3-.5-.3h-2.5c-1.6 0-2.8 1.2-2.8 2.8z"/></g><g class="st0"><path class="st2" d="M313.6 89.4c0-1.4-1.2-2.6-2.6-2.6-1.4 0-2.6 1.2-2.6 2.6s1.2 2.6 2.6 2.6c1.4 0 2.6-1.1 2.6-2.6zm-4.5.1s-.1-.7.5-1.3c.4.4 1.5 1.3 3.4 1.3 0 1.1-.9 1.9-1.9 1.9-1.2 0-2-.9-2-1.9zM306.5 94v2.6c0 .4.3.7.7.7h7.4c.4 0 .7-.3.7-.7V94c0-.8-.7-1.5-1.5-1.5h-1.3c-.1 0-.2.1-.3.1l-1.3 1.8c-.1.1-.1.1-.2 0l-1.3-1.8c-.1-.1-.2-.1-.3-.1H308c-.8 0-1.5.7-1.5 1.5z"/></g><g class="st0"><path class="st2" d="M121.6 39.3c0-1.4-1.2-2.6-2.6-2.6-1.4 0-2.6 1.2-2.6 2.6 0 1.4 1.2 2.6 2.6 2.6 1.4 0 2.6-1.2 2.6-2.6zm-4.5.1s-.1-.7.5-1.3c.4.4 1.5 1.3 3.4 1.3 0 1.1-.9 1.9-1.9 1.9-1.2 0-2-.9-2-1.9zM114.5 43.9v2.6c0 .4.3.7.7.7h7.4c.4 0 .7-.3.7-.7v-2.6c0-.8-.7-1.5-1.5-1.5h-1.3c-.1 0-.2.1-.3.1l-1.3 1.8c-.1.1-.1.1-.2 0l-1.3-1.8c-.1-.1-.2-.1-.3-.1H116c-.8 0-1.5.7-1.5 1.5z"/></g><g class="st0"><path class="st2" d="M243.6 29.3c0-1.4-1.2-2.6-2.6-2.6-1.4 0-2.6 1.2-2.6 2.6s1.2 2.6 2.6 2.6c1.4 0 2.6-1.2 2.6-2.6zm-4.5.1s-.1-.7.5-1.3c.4.4 1.5 1.3 3.4 1.3 0 1.1-.9 1.9-1.9 1.9-1.2 0-2-.9-2-1.9zM236.5 33.9v2.6c0 .4.3.7.7.7h7.4c.4 0 .7-.3.7-.7v-2.6c0-.8-.7-1.5-1.5-1.5h-1.3c-.1 0-.2.1-.3.1l-1.3 1.8c-.1.1-.1.1-.2 0l-1.3-1.8c-.1-.1-.2-.1-.3-.1H238c-.8 0-1.5.7-1.5 1.5z"/></g><g class="st0"><path class="st2" d="M704.6 37.9c0-1.4-1.1-2.6-2.6-2.6-1.4 0-2.6 1.1-2.6 2.6 0 1.4 1.1 2.6 2.6 2.6 1.4-.1 2.6-1.2 2.6-2.6zm-4.5 0s-.1-.7.4-1.3c.4.4 1.5 1.3 3.4 1.3 0 1.1-.9 1.9-1.9 1.9-1.1.1-1.9-.8-1.9-1.9zM697.6 42.4V45c0 .4.3.7.7.7h7.3c.4 0 .7-.3.7-.7v-2.6c0-.8-.7-1.5-1.5-1.5h-1.3c-.1 0-.2.1-.3.1l-1.3 1.8c-.1.1-.1.1-.2 0l-1.3-1.8c-.1-.1-.2-.1-.3-.1h-1.3c-.5 0-1.2.7-1.2 1.5z"/></g><g class="st0"><path class="st2" d="M332.6 252.3c0-1.4-1.1-2.6-2.6-2.6-1.4 0-2.6 1.1-2.6 2.6 0 1.4 1.1 2.6 2.6 2.6 1.4-.1 2.6-1.2 2.6-2.6zm-4.5 0s-.1-.7.4-1.3c.4.4 1.5 1.3 3.4 1.3 0 1.1-.9 1.9-1.9 1.9-1.1 0-1.9-.8-1.9-1.9zM325.6 256.8v2.6c0 .4.3.7.7.7h7.3c.4 0 .7-.3.7-.7v-2.6c0-.8-.7-1.5-1.5-1.5h-1.3c-.1 0-.2.1-.3.1l-1.3 1.8c-.1.1-.1.1-.2 0l-1.3-1.8c-.1-.1-.2-.1-.3-.1h-1.3c-.5 0-1.2.7-1.2 1.5z"/></g><g class="st0"><path class="st2" d="M86.4 466.1c0-2.7-2.2-5-5-5-2.7 0-5 2.2-5 5 0 2.7 2.2 5 5 5s5-2.3 5-5zm-8.7.1s-.1-1.4.9-2.5c.7.7 2.8 2.5 6.6 2.5 0 2-1.7 3.7-3.7 3.7-2.1 0-3.8-1.6-3.8-3.7zM72.9 474.9v5c0 .8.6 1.4 1.4 1.4h14.2c.8 0 1.4-.6 1.4-1.4v-5c0-1.6-1.3-2.8-2.8-2.8h-2.5c-.2 0-.4.1-.5.3l-2.5 3.5c-.1.1-.3.1-.4 0l-2.5-3.5c-.1-.1-.3-.3-.5-.3h-2.5c-1.5-.1-2.8 1.2-2.8 2.8z"/></g><g class="st0"><path class="st2" d="M171.7 385.1c0-1.4-1.1-2.6-2.6-2.6-1.4 0-2.6 1.1-2.6 2.6 0 1.4 1.1 2.6 2.6 2.6 1.4 0 2.6-1.2 2.6-2.6zm-4.5.1s-.1-.7.4-1.3c.4.4 1.5 1.3 3.4 1.3 0 1.1-.9 1.9-1.9 1.9-1 0-1.9-.9-1.9-1.9zM164.7 389.6v2.6c0 .4.3.7.7.7h7.3c.4 0 .7-.3.7-.7v-2.6c0-.8-.7-1.5-1.5-1.5h-1.3c-.1 0-.2.1-.3.1L169 390c-.1.1-.1.1-.2 0l-1.3-1.8c-.1-.1-.2-.1-.3-.1h-1.3c-.5.1-1.2.7-1.2 1.5z"/></g><g class="st0"><path class="st2" d="M41.6 257.4c0-1.4-1.1-2.6-2.6-2.6-1.4 0-2.6 1.1-2.6 2.6 0 1.4 1.1 2.6 2.6 2.6 1.4-.1 2.6-1.2 2.6-2.6zm-4.5 0s-.1-.7.4-1.3c.4.4 1.5 1.3 3.4 1.3 0 1.1-.9 1.9-1.9 1.9-1.1 0-1.9-.8-1.9-1.9zM34.6 261.9v2.6c0 .4.3.7.7.7h7.3c.4 0 .7-.3.7-.7v-2.6c0-.8-.7-1.5-1.5-1.5h-1.3c-.1 0-.2.1-.3.1l-1.3 1.8c-.1.1-.1.1-.2 0l-1.3-1.8c-.1-.1-.2-.1-.3-.1h-1.3c-.5 0-1.2.7-1.2 1.5z"/></g><g class="st0"><path class="st2" d="M123 675.9c0-2.7-2.2-5-5-5-2.7 0-5 2.2-5 5s2.2 5 5 5c2.7-.1 5-2.3 5-5zm-8.7.1s-.1-1.4.9-2.5c.7.7 2.8 2.5 6.6 2.5 0 2-1.7 3.7-3.7 3.7-2.1 0-3.8-1.7-3.8-3.7zM109.5 684.6v5c0 .8.6 1.4 1.4 1.4h14.2c.8 0 1.4-.6 1.4-1.4v-5c0-1.6-1.3-2.8-2.8-2.8h-2.5c-.2 0-.4.1-.5.3l-2.5 3.5c-.1.1-.3.1-.4 0l-2.5-3.5c-.1-.1-.3-.3-.5-.3h-2.5c-1.5 0-2.8 1.3-2.8 2.8z"/></g><g class="st0"><path class="st2" d="M206.5 739.4c-15.9 0-28.8-12.9-28.8-28.8s12.9-28.8 28.8-28.8 28.8 12.9 28.8 28.8-12.9 28.8-28.8 28.8zm0-54.2c-14 0-25.4 11.4-25.4 25.4 0 14 11.4 25.4 25.4 25.4 14 0 25.4-11.4 25.4-25.4 0-14-11.4-25.4-25.4-25.4z"/></g><g class="st0"><path class="st2" d="M214.1 702.7c0-4.2-3.4-7.7-7.7-7.7-4.2 0-7.7 3.4-7.7 7.7 0 4.2 3.4 7.7 7.7 7.7 4.3-.1 7.7-3.5 7.7-7.7zm-13.4.1s-.2-2.2 1.3-3.8c1.1 1.1 4.4 3.8 10.1 3.8 0 3.2-2.6 5.7-5.7 5.7-3.1.1-5.7-2.5-5.7-5.7zM193.3 716.2V724c0 1.2 1 2.2 2.2 2.2h21.9c1.2 0 2.2-1 2.2-2.2V716.2c0-2.4-2-4.4-4.4-4.4h-3.9c-.3 0-.6.2-.8.4l-3.8 5.4c-.2.2-.4.2-.6 0l-3.8-5.4c-.2-.2-.5-.4-.8-.4h-3.9c-2.3 0-4.3 2-4.3 4.4z"/></g><g class="st0"><path class="st7" d="M299.9 344.3c-8.1 0-14.7 6.6-14.7 14.7v4.7c-.1 1.5-.6 5.1-3 4.8-3-.3.8 5.1 6.6 5.2h22.1c5.9 0 9.7-5.5 6.7-5.2-3 .3-3-5.5-3-5.5v-4c0-8.1-6.6-14.7-14.7-14.7zm0 3.3c5.1 0 9.9 3.5 9.9 7.9v.6c0 .3-.1.2-.3-.3-1.2-3.3-5.3-5.8-9.5-5.8-4.3 0-8.6 2.5-9.8 5.8-.2.5-.3.6-.3.3v-.6c-.2-4.4 4.9-7.9 10-7.9zm0 22.4c-6.1 0-11-4.6-11-10.7 0 0 4.9-4.3 11.1-4.3 6.3 0 10.9 4.3 10.9 4.3 0 6.1-4.9 10.7-11 10.7zM277.8 384.8v14.7c0 2 1.6 3.7 3.7 3.7H318.3c2 0 3.7-1.6 3.7-3.7v-14.7c0-4.1-3.3-7.4-7.4-7.4h-3.4c-.5 0-1.3.2-1.7.5l-3.8 2.6c-.4.3-.9.9-1 1.4l-4.4 14.8c-.1.5-.4.5-.5 0l-4.6-14.6c-.2-.5-.6-1.1-1.1-1.4l-4.2-2.8c-.4-.3-1.2-.5-1.7-.5h-3.1c-4 0-7.3 3.3-7.3 7.4zm16.3 6.7c.9 0 1.6.7 1.6 1.6 0 .9-.7 1.6-1.6 1.6s-1.6-.7-1.6-1.6c.1-.9.8-1.6 1.6-1.6zm0 5.6c.9 0 1.6.7 1.6 1.6s-.7 1.6-1.6 1.6-1.6-.7-1.6-1.6.8-1.6 1.6-1.6z"/></g><g class="st0"><path class="st2" d="M68.5 302.7c-2.8 0-5.2 2.3-5.2 5.2v1.7c0 .5-.2 1.8-1 1.7-1-.1.3 1.8 2.3 1.8h7.7c2 0 3.4-1.9 2.3-1.8-1.1.1-1.1-1.9-1.1-1.9V308c.2-3-2.1-5.3-5-5.3zm0 1.2c1.8 0 3.5 1.2 3.5 2.8v.2c0 .1-.1.1-.1-.1-.4-1.2-1.8-2-3.3-2-1.5 0-3 .9-3.4 2-.1.2-.1.2-.1.1v-.2c-.1-1.6 1.6-2.8 3.4-2.8zm0 7.9c-2.1 0-3.9-1.6-3.9-3.8 0 0 1.7-1.5 3.9-1.5s3.8 1.5 3.8 1.5c.1 2.1-1.6 3.8-3.8 3.8zM60.8 316.9v5.2c0 .7.6 1.3 1.3 1.3H75c.7 0 1.3-.6 1.3-1.3v-5.2c0-1.4-1.2-2.6-2.6-2.6h-1.2c-.2 0-.4.1-.6.2l-1.3.9c-.1.1-.3.3-.4.5l-1.5 5.2c-.1.2-.1.2-.2 0l-1.6-5.1c-.1-.2-.2-.4-.4-.5l-1.5-1c-.1-.1-.4-.2-.6-.2h-1.1c-1.3 0-2.5 1.2-2.5 2.6zm5.7 2.4c.3 0 .5.2.5.5s-.2.5-.5.5-.5-.2-.5-.5.2-.5.5-.5zm0 1.9c.3 0 .5.2.5.5s-.2.5-.5.5-.5-.2-.5-.5c0-.2.2-.5.5-.5z"/></g><g class="st0"><path class="st6" d="M588.5 268.7c-6.2 0-11.2 5-11.2 11.2v3.6c-.1 1.2-.5 3.8-2.3 3.7-2.3-.2.6 3.9 5 3.9h16.8c4.4 0 7.4-4.2 5.1-3.9-2.3.2-2.3-4.2-2.3-4.2v-3.1c.1-6.2-4.9-11.2-11.1-11.2zm0 2.5c3.9 0 7.5 2.7 7.5 6v.5c0 .3-.1.1-.2-.2-.9-2.5-4-4.4-7.2-4.4s-6.5 1.9-7.5 4.4c-.1.4-.2.5-.2.2v-.5c-.1-3.4 3.7-6 7.6-6zm0 17c-4.6 0-8.4-3.5-8.4-8.1 0 0 3.7-3.3 8.5-3.3s8.3 3.3 8.3 3.3c0 4.6-3.8 8.1-8.4 8.1zM571.7 299.4v11.2c0 1.5 1.2 2.8 2.8 2.8H602.4c1.5 0 2.8-1.2 2.8-2.8v-11.2c0-3.1-2.5-5.6-5.6-5.6H597c-.4 0-1 .2-1.3.4l-2.9 1.9c-.3.2-.7.7-.8 1.1l-3.3 11.3c-.1.4-.3.4-.4 0l-3.5-11.1c-.1-.4-.5-.9-.8-1.1l-3.2-2.2c-.3-.2-.9-.4-1.3-.4h-2.3c-3 .1-5.5 2.6-5.5 5.7zm12.4 5.1c.7 0 1.2.5 1.2 1.2s-.5 1.2-1.2 1.2-1.2-.5-1.2-1.2c.1-.6.6-1.2 1.2-1.2zm0 4.3c.7 0 1.2.5 1.2 1.2s-.5 1.2-1.2 1.2-1.2-.5-1.2-1.2c.1-.7.6-1.2 1.2-1.2z"/></g><g class="st0"><path class="st2" d="M657 85.6c-4.8 0-8.7 3.9-8.7 8.7v2.8c-.1.9-.4 3-1.8 2.8-1.8-.2.5 3 3.9 3.1h13c3.5 0 5.7-3.2 4-3.1-1.8.2-1.8-3.2-1.8-3.2v-2.4c.1-4.8-3.8-8.7-8.6-8.7zm0 2c3 0 5.8 2.1 5.8 4.7v.4c0 .2-.1.1-.2-.2-.7-2-3.1-3.4-5.6-3.4-2.5 0-5.1 1.5-5.8 3.4-.1.3-.2.4-.2.2v-.4c0-2.7 3-4.7 6-4.7zm0 13.2c-3.6 0-6.5-2.7-6.5-6.3 0 0 2.9-2.5 6.6-2.5 3.7 0 6.5 2.5 6.5 2.5-.1 3.6-3 6.3-6.6 6.3zM644 109.5v8.7c0 1.2 1 2.2 2.2 2.2H668c1.2 0 2.2-1 2.2-2.2v-8.7c0-2.4-1.9-4.3-4.3-4.3h-2c-.3 0-.8.1-1 .3l-2.2 1.5c-.3.2-.5.5-.6.8l-2.6 8.8c-.1.3-.2.3-.3 0l-2.7-8.6c-.1-.3-.4-.7-.6-.8l-2.5-1.7c-.3-.2-.7-.3-1-.3h-1.8c-2.7 0-4.6 1.9-4.6 4.3zm9.6 4c.5 0 .9.4.9.9s-.4.9-.9.9-.9-.4-.9-.9.4-.9.9-.9zm0 3.3c.5 0 .9.4.9.9s-.4.9-.9.9-.9-.4-.9-.9.4-.9.9-.9z"/></g><g class="st0"><path class="st2" d="M573.7 43.1c-2.8 0-5.1 2.3-5.1 5.1v1.6c0 .5-.2 1.8-1 1.7-1-.1.3 1.8 2.3 1.8h7.7c2 0 3.4-1.9 2.3-1.8-1 .1-1-1.9-1-1.9v-1.4c0-2.8-2.3-5.1-5.2-5.1zm0 1.2c1.8 0 3.4 1.2 3.4 2.8v.2c0 .1-.1.1-.1-.1-.4-1.2-1.8-2-3.3-2-1.5 0-3 .9-3.4 2-.1.2-.1.2-.1.1v-.2c0-1.6 1.8-2.8 3.5-2.8zm0 7.8c-2.1 0-3.8-1.6-3.8-3.7 0 0 1.7-1.5 3.9-1.5s3.8 1.5 3.8 1.5c0 2.1-1.7 3.7-3.9 3.7zM566 57.2v5.1c0 .7.6 1.3 1.3 1.3h12.8c.7 0 1.3-.6 1.3-1.3v-5.1c0-1.4-1.1-2.6-2.6-2.6h-1.2c-.2 0-.4.1-.6.2l-1.3.9c-.1.1-.3.3-.4.5l-1.5 5.2c0 .2-.1.2-.2 0l-1.6-5.1c-.1-.2-.2-.4-.4-.5l-1.5-1c-.1-.1-.4-.2-.6-.2h-1.1c-1.2 0-2.4 1.2-2.4 2.6zm5.7 2.4c.3 0 .5.2.5.5s-.2.5-.5.5-.5-.2-.5-.5.2-.5.5-.5zm0 1.9c.3 0 .5.2.5.5s-.2.5-.5.5-.5-.2-.5-.5c0-.2.2-.5.5-.5z"/></g><g class="st0"><path class="st8" d="M234 95.3c-4.3 0-7.9 3.5-7.9 7.9v2.5c-.1.8-.3 2.7-1.6 2.6-1.6-.2.4 2.7 3.5 2.8h11.8c3.1 0 5.2-2.9 3.6-2.8-1.6.2-1.6-2.9-1.6-2.9v-2.2c.1-4.4-3.5-7.9-7.8-7.9zm0 1.8c2.7 0 5.3 1.9 5.3 4.2v.3c0 .2-.1.1-.2-.2-.6-1.8-2.8-3.1-5.1-3.1s-4.6 1.3-5.2 3.1c-.1.3-.2.3-.2.2v-.3c0-2.4 2.7-4.2 5.4-4.2zm0 11.9c-3.3 0-5.9-2.5-5.9-5.7 0 0 2.6-2.3 5.9-2.3 3.4 0 5.8 2.3 5.8 2.3.1 3.3-2.5 5.7-5.8 5.7zM222.2 116.9v7.9c0 1.1.9 2 2 2h19.7c1.1 0 2-.9 2-2v-7.9c0-2.2-1.8-3.9-3.9-3.9h-1.8c-.3 0-.7.1-.9.3l-2 1.4c-.2.2-.5.5-.6.8l-2.3 7.9c-.1.3-.2.3-.3 0l-2.5-7.8c-.1-.3-.3-.6-.6-.8l-2.3-1.5c-.2-.2-.6-.3-.9-.3h-1.6c-2.2 0-4 1.7-4 3.9zm8.7 3.6c.5 0 .8.4.8.8 0 .5-.4.8-.8.8-.5 0-.8-.4-.8-.8s.4-.8.8-.8zm0 3c.5 0 .8.4.8.8 0 .5-.4.8-.8.8-.5 0-.8-.4-.8-.8s.4-.8.8-.8z"/></g><g class="st0"><path class="st2" d="M99 76.2c-2.9 0-5.3 2.4-5.3 5.3v1.7c0 .6-.2 1.8-1.1 1.7-1.1-.1.3 1.9 2.4 1.9h8c2.1 0 3.5-2 2.4-1.9-1.1.1-1.1-2-1.1-2v-1.5c0-2.8-2.4-5.2-5.3-5.2zm0 1.2c1.8 0 3.6 1.3 3.6 2.9v.2c0 .1-.1.1-.1-.1-.4-1.2-1.9-2.1-3.4-2.1s-3.1.9-3.6 2.1c-.1.2-.1.2-.1.1v-.2c-.1-1.6 1.8-2.9 3.6-2.9zm0 8.1c-2.2 0-4-1.7-4-3.9 0 0 1.8-1.6 4-1.6 2.3 0 4 1.6 4 1.6 0 2.2-1.8 3.9-4 3.9zM91 90.8v5.3c0 .7.6 1.3 1.3 1.3H105.5c.7 0 1.3-.6 1.3-1.3v-5.3c0-1.5-1.2-2.7-2.7-2.7h-1.2c-.2 0-.5.1-.6.2l-1.4.9c-.2.1-.3.3-.4.5l-1.6 5.4c-.1.2-.1.2-.2 0L97 89.8c-.1-.2-.2-.4-.4-.5l-1.5-1c-.2-.1-.4-.2-.6-.2h-1.1c-1.2.1-2.4 1.3-2.4 2.7zm5.9 2.5c.3 0 .6.3.6.6s-.3.6-.6.6-.6-.3-.6-.6c.1-.4.3-.6.6-.6zm0 2c.3 0 .6.3.6.6s-.3.6-.6.6-.6-.3-.6-.6c.1-.3.3-.6.6-.6z"/></g><g class="st0"><path class="st2" d="M435.3 593.8c-3 0-5.5 2.5-5.5 5.5v1.8c0 .6-.2 1.9-1.1 1.8-1.1-.1.3 1.9 2.5 1.9h8.2c2.2 0 3.6-2 2.5-1.9-1.1.1-1.1-2-1.1-2v-1.5c0-3.2-2.5-5.6-5.5-5.6zm0 1.2c1.9 0 3.7 1.3 3.7 2.9v.2c0 .1-.1.1-.1-.1-.4-1.2-2-2.2-3.5-2.2-1.6 0-3.2.9-3.7 2.2-.1.2-.1.2-.1.1v-.2c-.1-1.6 1.8-2.9 3.7-2.9zm0 8.4c-2.3 0-4.1-1.7-4.1-4 0 0 1.8-1.6 4.2-1.6 2.4 0 4.1 1.6 4.1 1.6-.1 2.2-2 4-4.2 4zM427.1 608.8v5.5c0 .8.6 1.4 1.4 1.4h13.8c.8 0 1.4-.6 1.4-1.4v-5.5c0-1.5-1.2-2.7-2.7-2.7h-1.3c-.2 0-.5.1-.6.2l-1.4 1c-.2.1-.3.3-.4.5l-1.6 5.5c-.1.2-.1.2-.2 0l-1.7-5.4c-.1-.2-.2-.4-.4-.5l-1.6-1.1c-.2-.1-.4-.2-.6-.2h-1.1c-1.8 0-3 1.2-3 2.7zm6 2.6c.3 0 .6.3.6.6s-.3.6-.6.6-.6-.3-.6-.6c.1-.4.3-.6.6-.6zm0 2.1c.3 0 .6.3.6.6s-.3.6-.6.6-.6-.3-.6-.6.3-.6.6-.6z"/></g><g class="st0"><path class="st2" d="M369 488.3c-1.4 0-2.6 1.2-2.6 2.6v.8c0 .3-.1.9-.5.9-.5-.1.1.9 1.2.9h3.9c1 0 1.7-1 1.2-.9-.5.1-.5-1-.5-1v-.6c-.1-1.5-1.3-2.7-2.7-2.7zm0 .6c.9 0 1.8.6 1.8 1.4v.1c0 .1 0 0-.1-.1-.2-.6-.9-1-1.7-1-.8 0-1.5.4-1.7 1 0 .1-.1.1-.1.1v-.1c0-.7.9-1.4 1.8-1.4zm0 4c-1.1 0-2-.8-2-1.9 0 0 .9-.8 2-.8s1.9.8 1.9.8c.1 1.1-.8 1.9-1.9 1.9zM365.1 495.5v2.6c0 .4.3.7.7.7H372.4c.4 0 .7-.3.7-.7v-2.6c0-.7-.6-1.3-1.3-1.3h-.8c-.1 0-.2 0-.3.1l-.7.5c-.1.1-.2.2-.2.3l-.8 2.6c0 .1-.1.1-.1 0l-.8-2.6c0-.1-.1-.2-.2-.2l-.8-.5c-.1-.1-.2-.1-.3-.1h-.5c-.6-.1-1.2.5-1.2 1.2zm2.9 1.2c.2 0 .3.1.3.3 0 .2-.1.3-.3.3-.2 0-.3-.1-.3-.3 0-.1.1-.3.3-.3zm0 1c.2 0 .3.1.3.3 0 .2-.1.3-.3.3-.2 0-.3-.1-.3-.3 0-.1.1-.3.3-.3z"/></g><g class="st0"><path class="st2" d="M759 250.8c-1.4 0-2.6 1.2-2.6 2.6v.8c0 .3-.1.9-.5.9-.5-.1.1.9 1.2.9h3.9c1 0 1.7-1 1.2-.9-.5.1-.5-1-.5-1v-.7c-.1-1.5-1.3-2.6-2.7-2.6zm0 .6c.9 0 1.8.6 1.8 1.4v.1c0 .1 0 0-.1-.1-.2-.6-.9-1-1.7-1-.8 0-1.5.4-1.7 1 0 .1-.1.1-.1.1v-.1c0-.8.9-1.4 1.8-1.4zm0 3.9c-1.1 0-2-.8-2-1.9 0 0 .9-.8 2-.8s1.9.8 1.9.8c.1 1.1-.8 1.9-1.9 1.9zM755.1 258v2.6c0 .4.3.7.7.7H762.4c.4 0 .7-.3.7-.7V258c0-.7-.6-1.3-1.3-1.3h-.8c-.1 0-.2 0-.3.1l-.7.5c-.1.1-.2.2-.2.3l-.8 2.6c0 .1-.1.1-.1 0l-.8-2.6c0-.1-.1-.2-.2-.2l-.8-.5c-.1-.1-.2-.1-.3-.1h-.5c-.6-.1-1.2.4-1.2 1.2zm2.9 1.2c.2 0 .3.1.3.3 0 .2-.1.3-.3.3-.2 0-.3-.1-.3-.3 0-.2.1-.3.3-.3zm0 1c.2 0 .3.1.3.3 0 .2-.1.3-.3.3-.2 0-.3-.1-.3-.3 0-.2.1-.3.3-.3z"/></g><g class="st0"><path class="st2" d="M405 262.9c-1.4 0-2.6 1.2-2.6 2.6v.8c0 .3-.1.9-.5.9-.5-.1.1.9 1.2.9h3.9c1 0 1.7-1 1.2-.9-.5.1-.5-1-.5-1v-.7c-.1-1.4-1.3-2.6-2.7-2.6zm0 .6c.9 0 1.8.6 1.8 1.4v.1c0 .1 0 0-.1-.1-.2-.6-.9-1-1.7-1-.8 0-1.5.4-1.7 1 0 .1-.1.1-.1.1v-.1c0-.8.9-1.4 1.8-1.4zm0 4c-1.1 0-2-.8-2-1.9 0 0 .9-.8 2-.8s1.9.8 1.9.8c.1 1-.8 1.9-1.9 1.9zM401.1 270.1v2.6c0 .4.3.7.7.7H408.4c.4 0 .7-.3.7-.7v-2.6c0-.7-.6-1.3-1.3-1.3h-.8c-.1 0-.2 0-.3.1l-.7.5c-.1.1-.2.2-.2.3l-.8 2.6c0 .1-.1.1-.1 0l-.8-2.6c0-.1-.1-.2-.2-.2l-.8-.5c-.1-.1-.2-.1-.3-.1h-.5c-.6-.1-1.2.5-1.2 1.2zm2.9 1.2c.2 0 .3.1.3.3 0 .2-.1.3-.3.3-.2 0-.3-.1-.3-.3 0-.2.1-.3.3-.3zm0 1c.2 0 .3.1.3.3 0 .2-.1.3-.3.3-.2 0-.3-.1-.3-.3 0-.2.1-.3.3-.3z"/></g><g class="st0"><path class="st2" d="M478 39.8c-1.4 0-2.6 1.2-2.6 2.6v.8c0 .3-.1.9-.5.9-.6-.1.1.9 1.1.9h3.9c1 0 1.7-1 1.2-.9-.5.1-.5-1-.5-1v-.7c0-1.5-1.2-2.6-2.6-2.6zm0 .6c.9 0 1.8.6 1.8 1.4v.1c0 .1 0 0-.1-.1-.2-.6-.9-1-1.7-1-.8 0-1.5.4-1.7 1 0 .1-.1.1-.1.1v-.1c0-.8.9-1.4 1.8-1.4zm0 3.9c-1.1 0-2-.8-2-1.9 0 0 .9-.8 2-.8s1.9.8 1.9.8c.1 1.1-.8 1.9-1.9 1.9zM474.1 47v2.6c0 .4.3.7.7.7H481.4c.4 0 .7-.3.7-.7V47c0-.7-.6-1.3-1.3-1.3h-.8c-.1 0-.2 0-.3.1l-.7.5c-.1.1-.2.2-.2.3l-.8 2.6c0 .1-.1.1-.1 0l-.8-2.6c0-.1-.1-.2-.2-.2l-.8-.5c-.1-.1-.2-.1-.3-.1h-.5c-.6-.1-1.2.4-1.2 1.2zm2.9 1.2c.2 0 .3.1.3.3 0 .2-.1.3-.3.3-.2 0-.3-.1-.3-.3 0-.2.1-.3.3-.3zm0 1c.2 0 .3.1.3.3 0 .2-.1.3-.3.3-.2 0-.3-.1-.3-.3 0-.2.1-.3.3-.3z"/></g><g class="st0"><path class="st2" d="M70 619.8c-1.4 0-2.6 1.2-2.6 2.6v.8c0 .3-.1.9-.5.9-.6-.1.1.9 1.1.9h4c1 0 1.7-1 1.2-.9-.5.1-.5-1-.5-1v-.7c-.1-1.5-1.3-2.6-2.7-2.6zm0 .6c.9 0 1.8.6 1.8 1.4v.1c0 .1 0 0-.1-.1-.2-.6-.9-1-1.7-1-.8 0-1.5.4-1.7 1 0 .1-.1.1-.1.1v-.1c0-.8.9-1.4 1.8-1.4zm0 3.9c-1.1 0-2-.8-2-1.9 0 0 .9-.8 2-.8s1.9.8 1.9.8c.1 1.1-.8 1.9-1.9 1.9zM66.1 627v2.6c0 .4.3.7.7.7H73.4c.4 0 .7-.3.7-.7V627c0-.7-.6-1.3-1.3-1.3H72c-.1 0-.2 0-.3.1l-.7.5c-.1.1-.2.2-.2.3l-.8 2.6c0 .1-.1.1-.1 0l-.8-2.6c0-.1-.1-.2-.2-.2l-.8-.5c-.1-.1-.2-.1-.3-.1h-.5c-.6-.1-1.2.4-1.2 1.2zm2.9 1.2c.2 0 .3.1.3.3 0 .2-.1.3-.3.3-.2 0-.3-.1-.3-.3 0-.2.1-.3.3-.3zm0 1c.2 0 .3.1.3.3 0 .2-.1.3-.3.3-.2 0-.3-.1-.3-.3 0-.2.1-.3.3-.3z"/></g><g class="st0"><path class="st2" d="M323 687.5c-1.4 0-2.6 1.2-2.6 2.6v.8c0 .3-.1.9-.5.9-.5-.1.1.9 1.2.9h3.9c1 0 1.7-1 1.2-.9-.5.1-.5-1-.5-1v-.7c-.1-1.5-1.3-2.6-2.7-2.6zm0 .5c.9 0 1.8.6 1.8 1.4v.1c0 .1 0 0-.1-.1-.2-.6-.9-1-1.7-1-.8 0-1.5.4-1.7 1 0 .1-.1.1-.1.1v-.1c0-.7.9-1.4 1.8-1.4zm0 4c-1.1 0-2-.8-2-1.9 0 0 .9-.8 2-.8s1.9.8 1.9.8c.1 1.1-.8 1.9-1.9 1.9zM319.1 694.6v2.6c0 .4.3.7.7.7H326.4c.4 0 .7-.3.7-.7v-2.6c0-.7-.6-1.3-1.3-1.3h-.8c-.1 0-.2 0-.3.1l-.7.5c-.1.1-.2.2-.2.3l-.8 2.6c0 .1-.1.1-.1 0l-.8-2.6c0-.1-.1-.2-.2-.2l-.8-.5c-.1-.1-.2-.1-.3-.1h-.5c-.6-.1-1.2.5-1.2 1.2zm2.9 1.3c.2 0 .3.1.3.3 0 .2-.1.3-.3.3-.2 0-.3-.1-.3-.3 0-.2.1-.3.3-.3zm0 .9c.2 0 .3.1.3.3 0 .2-.1.3-.3.3-.2 0-.3-.1-.3-.3 0-.1.1-.3.3-.3z"/></g><g class="st0"><path class="st2" d="M49 522.8c-1.4 0-2.6 1.2-2.6 2.6v.8c0 .3-.1.9-.5.9-.6-.1.1.9 1.1.9h4c1 0 1.7-1 1.2-.9-.5.1-.5-1-.5-1v-.7c-.1-1.5-1.3-2.6-2.7-2.6zm0 .6c.9 0 1.8.6 1.8 1.4v.1c0 .1 0 0-.1-.1-.2-.6-.9-1-1.7-1-.8 0-1.5.4-1.7 1 0 .1-.1.1-.1.1v-.1c0-.8.9-1.4 1.8-1.4zm0 3.9c-1.1 0-2-.8-2-1.9 0 0 .9-.8 2-.8s1.9.8 1.9.8c.1 1.1-.8 1.9-1.9 1.9zM45.1 530v2.6c0 .4.3.7.7.7H52.4c.4 0 .7-.3.7-.7V530c0-.7-.6-1.3-1.3-1.3H51c-.1 0-.2 0-.3.1l-.7.5c-.1.1-.2.2-.2.3l-.8 2.6c0 .1-.1.1-.1 0l-.8-2.6c0-.1-.1-.2-.2-.2l-.8-.5c-.1-.1-.2-.1-.3-.1h-.5c-.6-.1-1.2.4-1.2 1.2zm2.9 1.2c.2 0 .3.1.3.3 0 .2-.1.3-.3.3-.2 0-.3-.1-.3-.3 0-.2.1-.3.3-.3zm0 1c.2 0 .3.1.3.3 0 .2-.1.3-.3.3-.2 0-.3-.1-.3-.3 0-.2.1-.3.3-.3z"/></g><g class="st0"><path class="st2" d="M57 163.8c-1.4 0-2.6 1.2-2.6 2.6v.8c0 .3-.1.9-.5.9-.6-.1.1.9 1.1.9h4c1 0 1.7-1 1.2-.9-.5.1-.5-1-.5-1v-.7c-.1-1.5-1.3-2.6-2.7-2.6zm0 .6c.9 0 1.8.6 1.8 1.4v.1c0 .1 0 0-.1-.1-.2-.6-.9-1-1.7-1-.8 0-1.5.4-1.7 1 0 .1-.1.1-.1.1v-.1c0-.8.9-1.4 1.8-1.4zm0 3.9c-1.1 0-2-.8-2-1.9 0 0 .9-.8 2-.8s1.9.8 1.9.8c.1 1.1-.8 1.9-1.9 1.9zM53.1 171v2.6c0 .4.3.7.7.7H60.4c.4 0 .7-.3.7-.7V171c0-.7-.6-1.3-1.3-1.3H59c-.1 0-.2 0-.3.1l-.7.5c-.1.1-.2.2-.2.3l-.8 2.6c0 .1-.1.1-.1 0l-.8-2.6c0-.1-.1-.2-.2-.2l-.8-.5c-.1-.1-.2-.1-.3-.1h-.5c-.6-.1-1.2.4-1.2 1.2zm2.9 1.2c.2 0 .3.1.3.3 0 .2-.1.3-.3.3-.2 0-.3-.1-.3-.3 0-.2.1-.3.3-.3zm0 1c.2 0 .3.1.3.3 0 .2-.1.3-.3.3-.2 0-.3-.1-.3-.3 0-.2.1-.3.3-.3z"/></g><g class="st0"><path class="st2" d="M182.1 520.2c-4.6 0-8.3 3.7-8.3 8.3v2.7c-.1.9-.3 2.9-1.7 2.7-1.7-.2.5 2.9 3.7 2.9h12.5c3.3 0 5.5-3.1 3.8-2.9-1.7.2-1.7-3.1-1.7-3.1v-2.3c0-4.6-3.7-8.3-8.3-8.3zm0 1.8c2.9 0 5.6 2 5.6 4.5v.3c0 .2-.1.1-.2-.2-.7-1.9-3-3.3-5.4-3.3-2.4 0-4.9 1.4-5.6 3.3-.1.3-.2.4-.2.2v-.3c0-2.5 2.9-4.5 5.8-4.5zm0 12.7c-3.4 0-6.2-2.6-6.2-6.1 0 0 2.8-2.4 6.3-2.4 3.6 0 6.2 2.4 6.2 2.4-.1 3.5-2.9 6.1-6.3 6.1zM169.6 543.1v8.3c0 1.2.9 2.1 2.1 2.1H192.6c1.2 0 2.1-.9 2.1-2.1v-8.3c0-2.3-1.9-4.2-4.2-4.2h-1.9c-.3 0-.7.1-1 .3l-2.1 1.5c-.2.2-.5.5-.6.8l-2.5 8.4c-.1.3-.2.3-.3 0l-2.6-8.3c-.1-.3-.4-.6-.6-.8l-2.4-1.6c-.2-.2-.7-.3-1-.3h-1.7c-2.4 0-4.2 1.9-4.2 4.2zm9.2 3.8c.5 0 .9.4.9.9s-.4.9-.9.9-.9-.4-.9-.9.4-.9.9-.9zm0 3.2c.5 0 .9.4.9.9s-.4.9-.9.9-.9-.4-.9-.9.4-.9.9-.9z"/></g><g class="st0"><path class="st2" d="M580 668.3c-4.3 0-7.8 3.5-7.8 7.8v2.5c-.1.8-.3 2.7-1.6 2.6-1.6-.2.4 2.7 3.5 2.8h11.7c3.1 0 5.1-2.9 3.6-2.8-1.6.2-1.6-2.9-1.6-2.9v-2.1c0-4.4-3.5-7.9-7.8-7.9zm0 1.7c2.7 0 5.2 1.9 5.2 4.2v.3c0 .2-.1.1-.2-.2-.6-1.8-2.8-3.1-5.1-3.1s-4.6 1.3-5.2 3.1c-.1.3-.2.3-.2.2v-.3c.1-2.3 2.8-4.2 5.5-4.2zm0 11.9c-3.2 0-5.9-2.5-5.9-5.7 0 0 2.6-2.3 5.9-2.3 3.4 0 5.8 2.3 5.8 2.3.1 3.3-2.6 5.7-5.8 5.7zM568.3 689.8v7.8c0 1.1.9 2 2 2h19.6c1.1 0 2-.9 2-2v-7.8c0-2.2-1.8-3.9-3.9-3.9h-2c-.3 0-.7.1-.9.3l-2 1.4c-.2.2-.5.5-.5.8l-2.3 7.9c-.1.3-.2.3-.3 0l-2.4-7.8c-.1-.3-.3-.6-.6-.7l-2.2-1.5c-.2-.2-.6-.3-.9-.3h-1.6c-2.3-.1-4 1.6-4 3.8zm8.6 3.6c.5 0 .8.4.8.8 0 .5-.4.8-.8.8-.5 0-.8-.4-.8-.8 0-.5.4-.8.8-.8zm0 2.9c.5 0 .8.4.8.8 0 .5-.4.8-.8.8-.5 0-.8-.4-.8-.8s.4-.8.8-.8z"/></g><g class="st0"><path class="st2" d="M666.7 733.7c-3 0-5.5 2.5-5.5 5.5v1.8c0 .6-.2 1.9-1.1 1.8-1.1-.1.3 1.9 2.5 1.9h8.3c2.2 0 3.6-2.1 2.5-1.9-1.1.1-1.1-2.1-1.1-2.1v-1.5c-.1-3-2.6-5.5-5.6-5.5zm0 1.3c1.9 0 3.7 1.3 3.7 3v.2c0 .1-.1.1-.1-.1-.4-1.2-2-2.2-3.6-2.2s-3.2.9-3.7 2.2c-.1.2-.1.2-.1.1v-.2c0-1.7 1.9-3 3.8-3zm0 8.4c-2.3 0-4.1-1.7-4.1-4 0 0 1.8-1.6 4.2-1.6 2.4 0 4.1 1.6 4.1 1.6-.1 2.2-1.9 4-4.2 4zM658.4 748.9v5.5c0 .8.6 1.4 1.4 1.4h13.8c.8 0 1.4-.6 1.4-1.4v-5.5c0-1.5-1.2-2.8-2.8-2.8h-1.3c-.2 0-.5.1-.6.2l-1.4 1c-.2.1-.3.3-.4.5l-1.6 5.6c-.1.2-.1.2-.2 0l-1.7-5.5c-.1-.2-.2-.4-.4-.5l-1.6-1.1c-.2-.1-.4-.2-.6-.2h-1.1c-1.6 0-2.9 1.2-2.9 2.8zm6.1 2.5c.3 0 .6.3.6.6s-.3.6-.6.6-.6-.3-.6-.6c.1-.3.3-.6.6-.6zm0 2.1c.3 0 .6.3.6.6s-.3.6-.6.6-.6-.3-.6-.6c.1-.4.3-.6.6-.6z"/></g><g class="st0"><path class="st2" d="M644 464.1c-2.9 0-5.3 2.4-5.3 5.3v1.7c0 .5-.2 1.8-1.1 1.7-1.1-.1.3 1.9 2.4 1.9h8c2.1 0 3.5-2 2.4-1.9-1.1.1-1.1-2-1.1-2v-1.5c0-2.8-2.4-5.2-5.3-5.2zm0 1.2c1.8 0 3.6 1.3 3.6 2.9v.2c0 .1-.1.1-.1-.1-.4-1.2-1.9-2.1-3.4-2.1s-3.1.9-3.5 2.1c-.1.2-.1.2-.1.1v-.2c-.2-1.6 1.7-2.9 3.5-2.9zm0 8.1c-2.2 0-4-1.7-4-3.9 0 0 1.8-1.6 4-1.6 2.3 0 3.9 1.6 3.9 1.6.1 2.2-1.7 3.9-3.9 3.9zM636.1 478.7v5.3c0 .7.6 1.3 1.3 1.3H650.6c.7 0 1.3-.6 1.3-1.3v-5.3c0-1.5-1.2-2.7-2.7-2.7H648c-.2 0-.5.1-.6.2l-1.4.9c-.2.1-.3.3-.4.5L644 483c-.1.2-.1.2-.2 0l-1.7-5.3c-.1-.2-.2-.4-.4-.5l-1.5-1c-.2-.1-.4-.2-.6-.2h-1.1c-1.3 0-2.4 1.2-2.4 2.7zm5.8 2.4c.3 0 .6.3.6.6s-.2.6-.6.6c-.3 0-.6-.3-.6-.6.1-.3.3-.6.6-.6zm0 2.1c.3 0 .6.3.6.6s-.2.6-.6.6c-.3 0-.6-.3-.6-.6.1-.4.3-.6.6-.6z"/></g><g class="st0"><path class="st2" d="M961 634.9c-29.8 0-54-24.2-54-54s24.2-54 54-54 54 24.2 54 54-24.2 54-54 54zm0-101.7c-26.3 0-47.6 21.4-47.6 47.6 0 26.3 21.4 47.6 47.6 47.6 26.3 0 47.6-21.4 47.6-47.6 0-26.2-21.3-47.6-47.6-47.6z"/></g><g class="st0"><path class="st2" d="M937.5 236.5c-22.6 0-41-18.4-41-41s18.4-41 41-41 41 18.4 41 41-18.4 41-41 41zm0-77.2c-19.9 0-36.2 16.2-36.2 36.2s16.2 36.2 36.2 36.2c19.9 0 36.2-16.2 36.2-36.2s-16.3-36.2-36.2-36.2z"/></g><g class="st0"><path class="st2" d="M1022.5 387.5c-22.6 0-41-18.4-41-41s18.4-41 41-41 41 18.4 41 41-18.4 41-41 41zm0-77.2c-19.9 0-36.2 16.2-36.2 36.2s16.2 36.2 36.2 36.2 36.2-16.2 36.2-36.2-16.3-36.2-36.2-36.2z"/></g><g class="st0"><path class="st2" d="M884 459.5c-16.3 0-29.5-13.2-29.5-29.5s13.2-29.5 29.5-29.5 29.5 13.2 29.5 29.5-13.2 29.5-29.5 29.5zm0-55.5c-14.4 0-26 11.7-26 26s11.7 26 26 26c14.4 0 26-11.7 26-26s-11.6-26-26-26z"/></g><g class="st0"><path class="st2" d="M1091 186.5c-16.3 0-29.5-13.2-29.5-29.5s13.2-29.5 29.5-29.5 29.5 13.2 29.5 29.5-13.2 29.5-29.5 29.5zm0-55.5c-14.4 0-26 11.7-26 26s11.7 26 26 26 26-11.7 26-26-11.6-26-26-26z"/></g><g class="st0"><path class="st2" d="M1014 767.5c-16.3 0-29.5-13.2-29.5-29.5s13.2-29.5 29.5-29.5 29.5 13.2 29.5 29.5-13.2 29.5-29.5 29.5zm0-55.5c-14.4 0-26 11.7-26 26s11.7 26 26 26 26-11.7 26-26-11.6-26-26-26z"/></g><g class="st0"><path class="st2" d="M1101 817.5c-10.2 0-18.5-8.3-18.5-18.5s8.3-18.5 18.5-18.5 18.5 8.3 18.5 18.5-8.3 18.5-18.5 18.5zm0-34.8c-9 0-16.3 7.3-16.3 16.3s7.3 16.3 16.3 16.3 16.3-7.3 16.3-16.3-7.3-16.3-16.3-16.3z"/></g><g class="st0"><path class="st2" d="M1134 741.5c-10.2 0-18.5-8.3-18.5-18.5s8.3-18.5 18.5-18.5 18.5 8.3 18.5 18.5-8.3 18.5-18.5 18.5zm0-34.8c-9 0-16.3 7.3-16.3 16.3s7.3 16.3 16.3 16.3 16.3-7.3 16.3-16.3-7.3-16.3-16.3-16.3z"/></g><g class="st0"><path class="st2" d="M1078 547.5c-10.2 0-18.5-8.3-18.5-18.5s8.3-18.5 18.5-18.5 18.5 8.3 18.5 18.5-8.3 18.5-18.5 18.5zm0-34.8c-9 0-16.3 7.3-16.3 16.3s7.3 16.3 16.3 16.3 16.3-7.3 16.3-16.3-7.3-16.3-16.3-16.3z"/></g><g class="st0"><path class="st2" d="M1181.5 256c-10.2 0-18.5-8.3-18.5-18.5s8.3-18.5 18.5-18.5 18.5 8.3 18.5 18.5-8.3 18.5-18.5 18.5zm0-34.8c-9 0-16.3 7.3-16.3 16.3s7.3 16.3 16.3 16.3 16.3-7.3 16.3-16.3c.1-9-7.3-16.3-16.3-16.3z"/></g><g class="st0"><path class="st2" d="M869.5 678c-10.2 0-18.5-8.3-18.5-18.5s8.3-18.5 18.5-18.5 18.5 8.3 18.5 18.5-8.3 18.5-18.5 18.5zm0-34.8c-9 0-16.3 7.3-16.3 16.3s7.3 16.3 16.3 16.3 16.3-7.3 16.3-16.3c.1-9-7.3-16.3-16.3-16.3z"/></g><g class="st0"><path class="st2" d="M1171.5 590c-10.2 0-18.5-8.3-18.5-18.5s8.3-18.5 18.5-18.5 18.5 8.3 18.5 18.5-8.3 18.5-18.5 18.5zm0-34.8c-9 0-16.3 7.3-16.3 16.3s7.3 16.3 16.3 16.3 16.3-7.3 16.3-16.3c.1-9-7.3-16.3-16.3-16.3z"/></g><g class="st0"><path class="st2" d="M1145 350.5c-10.2 0-18.5-8.3-18.5-18.5s8.3-18.5 18.5-18.5 18.5 8.3 18.5 18.5-8.3 18.5-18.5 18.5zm0-34.8c-9 0-16.3 7.3-16.3 16.3s7.3 16.3 16.3 16.3 16.3-7.3 16.3-16.3-7.3-16.3-16.3-16.3z"/></g><g class="st0"><path class="st2" d="M1007.8 126.7c-10.2 0-18.5-8.3-18.5-18.5s8.3-18.5 18.5-18.5 18.5 8.3 18.5 18.5-8.3 18.5-18.5 18.5zm0-34.9c-9 0-16.3 7.3-16.3 16.3s7.3 16.3 16.3 16.3 16.3-7.3 16.3-16.3c0-8.9-7.3-16.3-16.3-16.3z"/></g><g class="st0"><path class="st2" d="M916 553.5c-.3 0-.6-.1-.8-.2l-142-91c-.7-.4-.9-1.4-.5-2.1.4-.7 1.4-.9 2.1-.5l142 91c.7.4.9 1.4.5 2.1-.3.5-.8.7-1.3.7z"/></g><g class="st0"><path class="st2" d="M839 333.5c-6.3 0-11.5-5.2-11.5-11.5s5.2-11.5 11.5-11.5 11.5 5.2 11.5 11.5-5.2 11.5-11.5 11.5zm0-20c-4.7 0-8.5 3.8-8.5 8.5s3.8 8.5 8.5 8.5 8.5-3.8 8.5-8.5-3.8-8.5-8.5-8.5z"/></g><g class="st0"><path class="st2" d="M1090 635.5c-6.3 0-11.5-5.2-11.5-11.5s5.2-11.5 11.5-11.5 11.5 5.2 11.5 11.5-5.2 11.5-11.5 11.5zm0-20c-4.7 0-8.5 3.8-8.5 8.5s3.8 8.5 8.5 8.5 8.5-3.8 8.5-8.5-3.8-8.5-8.5-8.5z"/></g><g class="st0"><path class="st2" d="M1198 525.5c-6.3 0-11.5-5.2-11.5-11.5s5.2-11.5 11.5-11.5 11.5 5.2 11.5 11.5-5.2 11.5-11.5 11.5zm0-20c-4.7 0-8.5 3.8-8.5 8.5s3.8 8.5 8.5 8.5 8.5-3.8 8.5-8.5-3.8-8.5-8.5-8.5z"/></g><g class="st0"><path class="st2" d="M1193 321.5c-6.3 0-11.5-5.2-11.5-11.5s5.2-11.5 11.5-11.5 11.5 5.2 11.5 11.5-5.2 11.5-11.5 11.5zm0-20c-4.7 0-8.5 3.8-8.5 8.5s3.8 8.5 8.5 8.5 8.5-3.8 8.5-8.5-3.8-8.5-8.5-8.5z"/></g><g class="st0"><path class="st2" d="M912 110.5c-6.3 0-11.5-5.2-11.5-11.5s5.2-11.5 11.5-11.5 11.5 5.2 11.5 11.5-5.2 11.5-11.5 11.5zm0-20c-4.7 0-8.5 3.8-8.5 8.5s3.8 8.5 8.5 8.5 8.5-3.8 8.5-8.5-3.8-8.5-8.5-8.5z"/></g><g class="st0"><path class="st2" d="M959 809.5c-6.3 0-11.5-5.2-11.5-11.5s5.2-11.5 11.5-11.5 11.5 5.2 11.5 11.5-5.2 11.5-11.5 11.5zm0-20c-4.7 0-8.5 3.8-8.5 8.5s3.8 8.5 8.5 8.5 8.5-3.8 8.5-8.5-3.8-8.5-8.5-8.5z"/></g><g class="st0"><path class="st2" d="M1136 106.5c-6.3 0-11.5-5.2-11.5-11.5s5.2-11.5 11.5-11.5 11.5 5.2 11.5 11.5-5.2 11.5-11.5 11.5zm0-20c-4.7 0-8.5 3.8-8.5 8.5s3.8 8.5 8.5 8.5 8.5-3.8 8.5-8.5-3.8-8.5-8.5-8.5z"/></g><g class="st0"><path class="st2" d="M1035 258.5c-6.3 0-11.5-5.2-11.5-11.5s5.2-11.5 11.5-11.5 11.5 5.2 11.5 11.5-5.2 11.5-11.5 11.5zm0-20c-4.7 0-8.5 3.8-8.5 8.5s3.8 8.5 8.5 8.5 8.5-3.8 8.5-8.5-3.8-8.5-8.5-8.5z"/></g><g class="st0"><path class="st2" d="M1169 430.5c-6.3 0-11.5-5.2-11.5-11.5s5.2-11.5 11.5-11.5 11.5 5.2 11.5 11.5-5.2 11.5-11.5 11.5zm0-20c-4.7 0-8.5 3.8-8.5 8.5s3.8 8.5 8.5 8.5 8.5-3.8 8.5-8.5-3.8-8.5-8.5-8.5z"/></g><g class="st0"><path class="st2" d="M847 316.5c-.3 0-.7-.1-.9-.3-.6-.5-.7-1.5-.2-2.1l70-86c.5-.6 1.5-.7 2.1-.2.6.5.7 1.5.2 2.1l-70 86c-.3.3-.8.5-1.2.5z"/></g><g class="st0"><path class="st2" d="M854.4 431l-109.2-62 .2-2 109.2 62z"/></g><g class="st0"><path class="st2" d="M869.9 405.6l-26.8-73.3 2-.6 26.8 73.2z"/></g><g class="st0"><path transform="rotate(-33.506 947.533 389.514)" class="st2" d="M901.3 388.5h92.4v2h-92.4z"/></g><g class="st0"><path class="st2" d="M769.2 260.9l-.7-1.9 130.2-53.9.6 1.8z"/></g><g class="st0"><path transform="rotate(-48.012 976.981 140.994)" class="st2" d="M950.1 140h53.8v2h-53.8z"/></g><g class="st0"><path class="st2" d="M976.2 191l-.4-2 90.1-19 .5 2z"/></g><g class="st0"><path transform="rotate(-18.432 989.118 672.026)" class="st2" d="M988 630.9h2v82.2h-2z"/></g><g class="st0"><path transform="rotate(-7.52 1078.402 728.26)" class="st2" d="M1039.7 726.9h76.8v2h-76.8z"/></g><g class="st0"><path transform="rotate(-53.9 1062.67 769.953)" class="st2" d="M1061.6 739.5h2v60.9h-2z"/></g><g class="st0"><path transform="rotate(-8.257 950.834 747.229)" class="st2" d="M915.6 746h69.7v2h-69.7z"/></g><g class="st0"><path transform="rotate(-16.63 1033.8 543.955)" class="st2" d="M1004.1 543h59.5v2h-59.5z"/></g><g class="st0"><path transform="rotate(-4.37 1093.75 334.5)" class="st2" d="M1060.9 333.5h65.7v2h-65.7z"/></g><g class="st0"><path transform="rotate(-72.915 992.935 458.492)" class="st2" d="M918.2 457.5h149.6v2H918.2z"/></g><g class="st0"><path class="st2" d="M1089 614.2l-11-67.7 2-.3 11 67.6z"/></g><g class="st0"><path transform="rotate(-55.986 1055.929 672.992)" class="st2" d="M1007.7 672h96.5v2h-96.5z"/></g><g class="st0"><path class="st2" d="M1041 239.5c-.3 0-.6-.1-.8-.2-.7-.5-.9-1.4-.4-2.1l37-56c.5-.7 1.4-.9 2.1-.4.7.5.9 1.4.4 2.1l-37 56c-.3.4-.8.6-1.3.6z"/></g><g class="st0"><path class="st2" d="M1024 243.5c-.2 0-.4 0-.6-.1l-53-24c-.8-.3-1.1-1.2-.7-2 .3-.8 1.2-1.1 2-.7l53 24c.8.3 1.1 1.2.7 2-.3.5-.8.8-1.4.8z"/></g><g class="st0"><path class="st2" d="M1026 309.5h-.3c-.8-.1-1.4-.9-1.2-1.7l9-51c.1-.8.9-1.4 1.7-1.2.8.1 1.4.9 1.2 1.7l-9 51c-.1.7-.7 1.2-1.4 1.2z"/></g><g class="st0"><path class="st2" d="M1168 226.5c-.4 0-.8-.1-1.1-.4l-53-53c-.6-.6-.6-1.5 0-2.1.6-.6 1.5-.6 2.1 0l53 53c.6.6.6 1.5 0 2.1-.2.3-.6.4-1 .4z"/></g><g class="st0"><path class="st2" d="M1107 133.5c-.3 0-.7-.1-.9-.3-.7-.5-.8-1.5-.3-2.1l22-28c.5-.7 1.5-.8 2.1-.3.7.5.8 1.5.3 2.1l-22 28c-.3.4-.8.6-1.2.6z"/></g><g class="st0"><path class="st2" d="M879.8 645.7c-.4 0-.8-.2-1.1-.5-.5-.6-.5-1.5.1-2.1l36.2-33.3c.6-.5 1.5-.5 2.1.1.5.6.5 1.5-.1 2.1l-36.2 33.3c-.3.3-.6.4-1 .4z"/></g><g class="st0"><path class="st2" d="M1091 517.5c-.3 0-.7-.1-.9-.3-.6-.5-.7-1.5-.2-2.1l72-89c.5-.6 1.5-.7 2.1-.2.6.5.7 1.5.2 2.1l-72 89c-.3.3-.8.5-1.2.5z"/></g><g class="st0"><path class="st2" d="M1156 564.5c-.2 0-.4 0-.6-.1l-60.8-27.2c-.8-.3-1.1-1.2-.8-2 .3-.8 1.2-1.1 2-.8l60.8 27.2c.8.3 1.1 1.2.8 2-.3.6-.8.9-1.4.9z"/></g><g class="st0"><path class="st2" d="M1099 619.5c-.5 0-.9-.2-1.2-.7-.4-.7-.3-1.6.4-2l56.7-37.3c.7-.4 1.6-.3 2 .4.4.7.3 1.6-.4 2l-56.7 37.3c-.3.2-.6.3-.8.3z"/></g><g class="st0"><circle class="st2" cx="1064" cy="433" r="8"/></g><g class="st0"><circle class="st2" cx="841" cy="505" r="8"/></g><g class="st0"><circle class="st2" cx="1187" cy="633" r="8"/></g><g class="st0"><circle class="st2" cx="1162" cy="775" r="8"/></g><g class="st0"><circle class="st2" cx="1109" cy="250" r="8"/></g><g class="st0"><circle class="st2" cx="1198" cy="112" r="8"/></g><g class="st0"><path transform="rotate(-24.217 1157.885 130)" class="st2" d="M1114.1 129h87.7v2h-87.7z"/></g><g class="st0"><path transform="rotate(-18.803 919.89 132.508)" class="st2" d="M919 107.7h2v49.6h-2z"/></g><g class="st0"><path transform="rotate(-39.484 983.077 776.983)" class="st2" d="M961 776h44v2h-44z"/></g><g class="st0"><path transform="rotate(-14.35 1181.638 611.612)" class="st2" d="M1180.5 589.3h2v44.4h-2z"/></g><g class="st0"><path transform="rotate(-26.565 1153.035 757.023)" class="st2" d="M1152 736.9h2v40.2h-2z"/></g><g class="st0"><path transform="rotate(-23.627 1052.56 405.002)" class="st2" d="M1051.5 378.8h2v52.4h-2z"/></g><g class="st0"><path transform="rotate(-48.166 1078.966 283.491)" class="st2" d="M1034 282.5h89.9v2H1034z"/></g><g class="st0"><path transform="rotate(-30.129 978.425 272.543)" class="st2" d="M977.5 225.7h2v93.6h-2z"/></g><g class="st0"><path transform="rotate(-26.565 917.028 497.015)" class="st2" d="M916 452.3h2v89.4h-2z"/></g><g class="st0"><path class="st2" d="M1095 524c-.5 0-.9-.4-1-.9-.1-.5.3-1 .9-1.1l93-9c.6 0 1 .3 1.1.9.1.5-.3 1-.9 1.1l-93.1 9c.1 0 0 0 0 0z"/></g><g class="st0"><path class="st2" d="M1181 558c-.1 0-.2 0-.4-.1-.5-.2-.8-.8-.6-1.3l12-32c.2-.5.8-.8 1.3-.6.5.2.8.8.6 1.3l-12 32c-.1.5-.5.7-.9.7z"/></g><g class="st0"><path class="st2" d="M1162 328c-.3 0-.7-.2-.9-.5-.3-.5-.1-1.1.4-1.4l22-13c.5-.3 1.1-.1 1.4.4.3.5.1 1.1-.4 1.4l-22 13c-.2.1-.3.1-.5.1z"/></g><g class="st0"><path class="st2" d="M906.5 582.5h-.3L758 582c-.5-.2-.8-.7-.6-1.3.2-.5.7-.8 1.3-.6l148.2.5c.5.2.8.7.6 1.3-.2.3-.6.6-1 .6z"/></g><g class="st0"><path class="st2" d="M987 726c-.2 0-.3 0-.5-.1l-102-55c-.5-.3-.7-.9-.4-1.4.3-.5.9-.7 1.4-.4l102 55c.5.3.7.9.4 1.4-.2.3-.5.5-.9.5z"/></g><g class="st0"><path class="st2" d="M987 328c-.2 0-.3 0-.5-.1l-217.9-66.3c-.5-.3-.7-.9-.4-1.4.3-.5.9-.7 1.4-.4l217.9 66.3c.5.3.7.9.4 1.4-.2.3-.5.5-.9.5z"/></g><g class="st0"><path class="st2" d="M1064 518c-.2 0-.3 0-.4-.1l-153-77c-.5-.2-.7-.8-.4-1.3.2-.5.9-.7 1.3-.4l153 77c.5.2.7.8.4 1.3-.2.3-.5.5-.9.5z"/></g><g class="st0"><path class="st2" d="M1079.7 621.7c-.1 0-.2 0-.3-.1l-68.7-24.6c-.5-.2-.8-.8-.6-1.3.2-.5.8-.8 1.3-.6l68.7 24.6c.5.2.8.8.6 1.3-.2.4-.6.7-1 .7z"/></g><g class="st0"><path class="st2" d="M1108 784c-.1 0-.3 0-.4-.1-.5-.2-.8-.8-.5-1.3l18-43c.2-.5.8-.8 1.3-.5.5.2.8.8.5 1.3l-18 43c-.1.4-.5.6-.9.6z"/></g><g class="st0"><path class="st2" d="M1125 707c-.4 0-.8-.2-.9-.6l-29-73c-.2-.5 0-1.1.6-1.3.5-.2 1.1 0 1.3.6l29 73c.2.5 0 1.1-.6 1.3h-.4z"/></g><g class="st0"><path class="st2" d="M1075 512c-.5 0-.9-.4-1-.9l-11-78c-.1-.5.3-1.1.9-1.1.5-.1 1.1.3 1.1.9l11 78c.1.5-.3 1.1-.9 1.1h-.1z"/></g><g class="st0"><path class="st2" d="M1068 432c-.2 0-.4-.1-.6-.2-.4-.3-.5-1-.2-1.4l65-85c.3-.4 1-.5 1.4-.2.4.3.5 1 .2 1.4l-65 85c-.2.3-.5.4-.8.4z"/></g><g class="st0"><path class="st2" d="M1164 410c-.5 0-.9-.3-1-.8l-14-58c-.1-.5.2-1.1.7-1.2.5-.1 1.1.2 1.2.7l14 58c.1.5-.2 1.1-.7 1.2 0 .1-.1.1-.2.1z"/></g><g class="st0"><path class="st2" d="M1117 251c-.4 0-.8-.3-1-.7-.1-.5.2-1.1.7-1.2l46-12.5c.5-.1 1.1.2 1.2.7.1.5-.2 1.1-.7 1.2l-46 12.5h-.2z"/></g><g class="st0"><path class="st2" d="M1109 247c-.4 0-.8-.3-1-.7l-18-59.5c-.2-.5.1-1.1.7-1.2.5-.2 1.1.1 1.2.7l18 59.5c.2.5-.1 1.1-.7 1.2h-.2z"/></g><g class="st0"><path class="st2" d="M1067 141c-.2 0-.4-.1-.6-.2l-42-28c-.5-.3-.6-.9-.3-1.4.3-.5.9-.6 1.4-.3l42 28c.5.3.6.9.3 1.4-.2.3-.5.5-.8.5z"/></g><g class="st0"><path class="st2" d="M975.4 566c0-7.9-6.4-14.4-14.4-14.4-7.9 0-14.4 6.4-14.4 14.4 0 7.9 6.4 14.4 14.4 14.4 7.9 0 14.4-6.5 14.4-14.4zm-25.2.3s-.4-4.1 2.5-7.2c2.1 2.1 8.3 7.2 19 7.2 0 5.9-4.8 10.8-10.8 10.8s-10.7-4.8-10.7-10.8zM936.3 591.4V606c0 2.3 1.8 4.1 4.1 4.1h41.1c2.3 0 4.1-1.8 4.1-4.1v-14.6c0-4.5-3.7-8.2-8.2-8.2h-7.3c-.5 0-1.2.3-1.5.8l-7.2 10.2c-.3.4-.7.4-1 0l-7.2-10.2c-.3-.4-.9-.8-1.5-.8h-7.3c-4.4 0-8.1 3.7-8.1 8.2z"/></g><g class="st0"><path class="st2" d="M891.8 420.3c0-4.3-3.5-7.8-7.8-7.8s-7.8 3.5-7.8 7.8 3.5 7.8 7.8 7.8 7.8-3.5 7.8-7.8zm-13.6.2s-.2-2.2 1.4-3.9c1.1 1.1 4.5 3.9 10.3 3.9 0 3.2-2.6 5.8-5.8 5.8-3.3 0-5.9-2.6-5.9-5.8zM870.6 434.1v7.9c0 1.2 1 2.2 2.2 2.2h22.3c1.2 0 2.2-1 2.2-2.2v-7.9c0-2.5-2-4.5-4.5-4.5h-4c-.3 0-.6.2-.8.4l-3.9 5.5c-.2.2-.4.2-.6 0l-3.9-5.5c-.2-.2-.5-.4-.8-.4h-4c-2.2 0-4.2 2-4.2 4.5z"/></g><g class="st0"><path class="st2" d="M899.4 777.6c-10.4 0-18.9-8.5-18.9-18.9 0-10.4 8.5-18.9 18.9-18.9 10.4 0 18.9 8.5 18.9 18.9 0 10.4-8.5 18.9-18.9 18.9zm0-35.6c-9.2 0-16.7 7.5-16.7 16.7s7.5 16.7 16.7 16.7 16.7-7.5 16.7-16.7-7.5-16.7-16.7-16.7z"/></g><g class="st0"><path class="st2" d="M904.4 753.5c0-2.8-2.2-5-5-5s-5 2.3-5 5c0 2.8 2.3 5 5 5 2.8 0 5-2.2 5-5zm-8.8.1s-.1-1.4.9-2.5c.7.7 2.9 2.5 6.7 2.5 0 2.1-1.7 3.8-3.8 3.8-2.1 0-3.8-1.7-3.8-3.8zM890.8 762.4v5.1c0 .8.6 1.4 1.4 1.4h14.4c.8 0 1.4-.6 1.4-1.4v-5.1c0-1.6-1.3-2.9-2.9-2.9h-2.5c-.2 0-.4.1-.5.3l-2.5 3.6c-.1.1-.3.1-.4 0l-2.5-3.6c-.1-.1-.3-.3-.5-.3h-2.5c-1.6 0-2.9 1.3-2.9 2.9z"/></g><g class="st0"><path class="st2" d="M1139 717.8c0-2.8-2.2-5-5-5s-5 2.3-5 5c0 2.8 2.3 5 5 5 2.8 0 5-2.2 5-5zm-8.8.1s-.1-1.4.9-2.5c.7.7 2.9 2.5 6.7 2.5 0 2.1-1.7 3.8-3.8 3.8-2.1 0-3.8-1.7-3.8-3.8zM1125.4 726.7v5.1c0 .8.6 1.4 1.4 1.4h14.4c.8 0 1.4-.6 1.4-1.4v-5.1c0-1.6-1.3-2.9-2.9-2.9h-2.5c-.2 0-.4.1-.5.3l-2.5 3.6c-.1.1-.3.1-.4 0l-2.5-3.6c-.1-.1-.3-.3-.5-.3h-2.5c-1.6 0-2.9 1.3-2.9 2.9z"/></g><g class="st0"><path class="st2" d="M961.6 794.9c0-1.4-1.2-2.6-2.6-2.6-1.4 0-2.6 1.2-2.6 2.6 0 1.4 1.2 2.6 2.6 2.6 1.4 0 2.6-1.2 2.6-2.6zm-4.6.1s-.1-.7.5-1.3c.4.4 1.5 1.3 3.5 1.3 0 1.1-.9 2-2 2-1.1-.1-2-1-2-2zM954.5 799.5v2.7c0 .4.3.7.7.7h7.5c.4 0 .7-.3.7-.7v-2.7c0-.8-.7-1.5-1.5-1.5h-1.3c-.1 0-.2.1-.3.1l-1.3 1.8c-.1.1-.1.1-.2 0l-1.3-1.8c-.1-.1-.2-.1-.3-.1H956c-.8 0-1.5.7-1.5 1.5z"/></g><g class="st0"><path class="st2" d="M1092.6 621.3c0-1.4-1.2-2.6-2.6-2.6-1.4 0-2.6 1.2-2.6 2.6 0 1.4 1.2 2.6 2.6 2.6 1.4 0 2.6-1.2 2.6-2.6zm-4.6.1s-.1-.7.5-1.3c.4.4 1.5 1.3 3.5 1.3 0 1.1-.9 2-2 2-1.1-.1-2-1-2-2zM1085.5 625.9v2.7c0 .4.3.7.7.7h7.5c.4 0 .7-.3.7-.7v-2.7c0-.8-.7-1.5-1.5-1.5h-1.3c-.1 0-.2.1-.3.1l-1.3 1.8c-.1.1-.1.1-.2 0l-1.3-1.8c-.1-.1-.2-.1-.3-.1h-1.3c-.7 0-1.4.7-1.4 1.5z"/></g><g class="st0"><path class="st2" d="M1200.6 510.3c0-1.4-1.2-2.6-2.6-2.6-1.4 0-2.6 1.2-2.6 2.6 0 1.4 1.2 2.6 2.6 2.6 1.4 0 2.6-1.2 2.6-2.6zm-4.6.1s-.1-.7.5-1.3c.4.4 1.5 1.3 3.5 1.3 0 1.1-.9 2-2 2-1.1-.1-2-1-2-2zM1193.5 514.9v2.7c0 .4.3.7.7.7h7.5c.4 0 .7-.3.7-.7v-2.7c0-.8-.7-1.5-1.5-1.5h-1.3c-.1 0-.2.1-.3.1l-1.3 1.8c-.1.1-.1.1-.2 0l-1.3-1.8c-.1-.1-.2-.1-.3-.1h-1.3c-.7 0-1.4.7-1.4 1.5z"/></g><g class="st0"><path class="st2" d="M1171.6 416.3c0-1.4-1.2-2.6-2.6-2.6-1.4 0-2.6 1.2-2.6 2.6 0 1.4 1.2 2.6 2.6 2.6 1.4 0 2.6-1.2 2.6-2.6zm-4.6.1s-.1-.7.5-1.3c.4.4 1.5 1.3 3.5 1.3 0 1.1-.9 2-2 2-1.1-.1-2-1-2-2zM1164.5 420.9v2.7c0 .4.3.7.7.7h7.5c.4 0 .7-.3.7-.7v-2.7c0-.8-.7-1.5-1.5-1.5h-1.3c-.1 0-.2.1-.3.1l-1.3 1.8c-.1.1-.1.1-.2 0l-1.3-1.8c-.1-.1-.2-.1-.3-.1h-1.3c-.7 0-1.4.7-1.4 1.5z"/></g><g class="st0"><path class="st2" d="M1037.6 244.3c0-1.4-1.2-2.6-2.6-2.6-1.4 0-2.6 1.2-2.6 2.6 0 1.4 1.2 2.6 2.6 2.6 1.4 0 2.6-1.2 2.6-2.6zm-4.6.1s-.1-.7.5-1.3c.4.4 1.5 1.3 3.5 1.3 0 1.1-.9 2-2 2-1.1-.1-2-1-2-2zM1030.5 248.9v2.7c0 .4.3.7.7.7h7.5c.4 0 .7-.3.7-.7v-2.7c0-.8-.7-1.5-1.5-1.5h-1.3c-.1 0-.2.1-.3.1l-1.3 1.8c-.1.1-.1.1-.2 0l-1.3-1.8c-.1-.1-.2-.1-.3-.1h-1.3c-.7 0-1.4.7-1.4 1.5z"/></g><g class="st0"><path class="st2" d="M1176.6 566.7c0-2.8-2.2-5-5-5s-5 2.3-5 5c0 2.8 2.3 5 5 5s5-2.2 5-5zm-8.8.1s-.1-1.4.9-2.5c.7.7 2.9 2.5 6.7 2.5 0 2.1-1.7 3.8-3.8 3.8-2.1 0-3.8-1.7-3.8-3.8zM1162.9 575.6v5.1c0 .8.6 1.4 1.4 1.4h14.4c.8 0 1.4-.6 1.4-1.4v-5.1c0-1.6-1.3-2.9-2.9-2.9h-2.5c-.2 0-.4.1-.5.3l-2.5 3.6c-.1.1-.3.1-.4 0l-2.5-3.6c-.1-.1-.3-.3-.5-.3h-2.5c-1.6 0-2.9 1.3-2.9 2.9z"/></g><g class="st0"><path class="st2" d="M948.4 184.2c0-6-4.9-10.9-10.9-10.9s-10.9 4.9-10.9 10.9 4.9 10.9 10.9 10.9 10.9-4.9 10.9-10.9zm-19.1.2s-.3-3.1 1.9-5.5c1.6 1.6 6.3 5.5 14.4 5.5 0 4.5-3.7 8.2-8.2 8.2-4.4 0-8.1-3.6-8.1-8.2zM918.8 203.5v11c0 1.7 1.4 3.1 3.1 3.1h31.2c1.7 0 3.1-1.4 3.1-3.1v-11c0-3.4-2.8-6.2-6.2-6.2h-5.5c-.4 0-.9.3-1.1.6l-5.5 7.7c-.2.3-.6.3-.8 0l-5.5-7.7c-.2-.3-.7-.6-1.1-.6H925c-3.4 0-6.2 2.8-6.2 6.2z"/></g><g class="st0"><path class="st2" d="M1186.1 232.4c0-2.7-2.2-4.9-4.9-4.9s-4.9 2.2-4.9 4.9 2.2 4.9 4.9 4.9c2.7-.1 4.9-2.2 4.9-4.9zm-8.5.1s-.1-1.4.9-2.4c.7.7 2.8 2.4 6.4 2.4 0 2-1.6 3.6-3.6 3.6-2.1 0-3.7-1.6-3.7-3.6zM1172.9 241v4.9c0 .8.6 1.4 1.4 1.4h13.9c.8 0 1.4-.6 1.4-1.4V241c0-1.5-1.2-2.8-2.8-2.8h-2.5c-.2 0-.4.1-.5.3l-2.4 3.4c-.1.1-.3.1-.3 0l-2.4-3.4c-.1-.1-.3-.3-.5-.3h-2.5c-1.5 0-2.8 1.2-2.8 2.8z"/></g><g class="st0"><path class="st2" d="M1149.9 327c0-2.7-2.2-4.9-4.9-4.9s-4.9 2.2-4.9 4.9 2.2 4.9 4.9 4.9c2.7-.1 4.9-2.2 4.9-4.9zm-8.5.1s-.1-1.4.9-2.4c.7.7 2.8 2.4 6.4 2.4 0 2-1.6 3.6-3.6 3.6-2.1 0-3.7-1.6-3.7-3.6zM1136.7 335.6v4.9c0 .8.6 1.4 1.4 1.4h13.9c.8 0 1.4-.6 1.4-1.4v-4.9c0-1.5-1.2-2.8-2.8-2.8h-2.5c-.2 0-.4.1-.5.3l-2.4 3.4c-.1.1-.3.1-.3 0l-2.4-3.4c-.1-.1-.3-.3-.5-.3h-2.5c-1.6 0-2.8 1.2-2.8 2.8z"/></g><g class="st0"><path class="st2" d="M1138.6 91.9c0-1.4-1.1-2.6-2.6-2.6-1.4 0-2.6 1.1-2.6 2.6 0 1.4 1.1 2.6 2.6 2.6 1.4-.1 2.6-1.2 2.6-2.6zm-4.5 0s-.1-.7.4-1.3c.4.4 1.5 1.3 3.4 1.3 0 1.1-.9 1.9-1.9 1.9-1.1.1-1.9-.8-1.9-1.9zM1131.6 96.4V99c0 .4.3.7.7.7h7.3c.4 0 .7-.3.7-.7v-2.6c0-.8-.7-1.5-1.5-1.5h-1.3c-.1 0-.2.1-.3.1l-1.3 1.8c-.1.1-.1.1-.2 0l-1.3-1.8c-.1-.1-.2-.1-.3-.1h-1.3c-.5 0-1.2.7-1.2 1.5z"/></g><g class="st0"><path class="st2" d="M1022.5 322.7c-6.2 0-11.2 5-11.2 11.2v3.6c-.1 1.2-.5 3.8-2.3 3.7-2.3-.2.6 3.9 5 3.9h16.8c4.4 0 7.4-4.2 5.1-3.9-2.3.2-2.3-4.2-2.3-4.2v-3.1c.1-6.2-4.9-11.2-11.1-11.2zm0 2.5c3.9 0 7.5 2.7 7.5 6v.5c0 .3-.1.1-.2-.2-.9-2.5-4-4.4-7.2-4.4s-6.5 1.9-7.5 4.4c-.1.4-.2.5-.2.2v-.5c-.1-3.4 3.7-6 7.6-6zm0 17c-4.6 0-8.4-3.5-8.4-8.1 0 0 3.7-3.3 8.5-3.3s8.3 3.3 8.3 3.3c0 4.6-3.8 8.1-8.4 8.1zM1005.7 353.4v11.2c0 1.5 1.2 2.8 2.8 2.8H1036.4c1.5 0 2.8-1.2 2.8-2.8v-11.2c0-3.1-2.5-5.6-5.6-5.6h-2.6c-.4 0-1 .2-1.3.4l-2.9 1.9c-.3.2-.7.7-.8 1.1l-3.3 11.3c-.1.4-.3.4-.4 0l-3.5-11.1c-.1-.4-.5-.9-.8-1.1l-3.2-2.2c-.3-.2-.9-.4-1.3-.4h-2.3c-3 .1-5.5 2.6-5.5 5.7zm12.4 5.1c.7 0 1.2.5 1.2 1.2s-.5 1.2-1.2 1.2-1.2-.5-1.2-1.2c.1-.6.6-1.2 1.2-1.2zm0 4.3c.7 0 1.2.5 1.2 1.2s-.5 1.2-1.2 1.2-1.2-.5-1.2-1.2c.1-.7.6-1.2 1.2-1.2z"/></g><g class="st0"><path class="st2" d="M1091 139.6c-4.8 0-8.7 3.9-8.7 8.7v2.8c-.1.9-.4 3-1.8 2.8-1.8-.2.5 3 3.9 3.1h13c3.5 0 5.7-3.2 4-3.1-1.8.2-1.8-3.2-1.8-3.2v-2.4c.1-4.8-3.8-8.7-8.6-8.7zm0 2c3 0 5.8 2.1 5.8 4.7v.4c0 .2-.1.1-.2-.2-.7-2-3.1-3.4-5.6-3.4s-5.1 1.5-5.8 3.4c-.1.3-.2.4-.2.2v-.4c0-2.7 3-4.7 6-4.7zm0 13.2c-3.6 0-6.5-2.7-6.5-6.3 0 0 2.9-2.5 6.6-2.5 3.7 0 6.5 2.5 6.5 2.5-.1 3.6-3 6.3-6.6 6.3zM1078 163.5v8.7c0 1.2 1 2.2 2.2 2.2H1102c1.2 0 2.2-1 2.2-2.2v-8.7c0-2.4-1.9-4.3-4.3-4.3h-2c-.3 0-.8.1-1 .3l-2.2 1.5c-.3.2-.5.5-.6.8l-2.6 8.8c-.1.3-.2.3-.3 0l-2.7-8.6c-.1-.3-.4-.7-.6-.8l-2.5-1.7c-.3-.2-.7-.3-1-.3h-1.8c-2.7 0-4.6 1.9-4.6 4.3zm9.6 4c.5 0 .9.4.9.9s-.4.9-.9.9-.9-.4-.9-.9.4-.9.9-.9zm0 3.3c.5 0 .9.4.9.9s-.4.9-.9.9-.9-.4-.9-.9.4-.9.9-.9z"/></g><g class="st0"><path class="st2" d="M1007.7 97.1c-2.8 0-5.1 2.3-5.1 5.1v1.6c0 .5-.2 1.8-1 1.7-1-.1.3 1.8 2.3 1.8h7.7c2 0 3.4-1.9 2.3-1.8-1 .1-1-1.9-1-1.9v-1.4c0-2.8-2.3-5.1-5.2-5.1zm0 1.2c1.8 0 3.4 1.2 3.4 2.8v.2c0 .1-.1.1-.1-.1-.4-1.2-1.8-2-3.3-2-1.5 0-3 .9-3.4 2-.1.2-.1.2-.1.1v-.2c0-1.6 1.8-2.8 3.5-2.8zm0 7.8c-2.1 0-3.8-1.6-3.8-3.7 0 0 1.7-1.5 3.9-1.5s3.8 1.5 3.8 1.5c0 2.1-1.7 3.7-3.9 3.7zM1000 111.2v5.1c0 .7.6 1.3 1.3 1.3h12.8c.7 0 1.3-.6 1.3-1.3v-5.1c0-1.4-1.1-2.6-2.6-2.6h-1.2c-.2 0-.4.1-.6.2l-1.3.9c-.1.1-.3.3-.4.5l-1.5 5.2c0 .2-.1.2-.2 0l-1.6-5.1c-.1-.2-.2-.4-.4-.5l-1.5-1c-.1-.1-.4-.2-.6-.2h-1.1c-1.2 0-2.4 1.2-2.4 2.6zm5.7 2.4c.3 0 .5.2.5.5s-.2.5-.5.5-.5-.2-.5-.5.2-.5.5-.5zm0 1.9c.3 0 .5.2.5.5s-.2.5-.5.5-.5-.2-.5-.5c0-.2.2-.5.5-.5z"/></g><g class="st0"><path class="st2" d="M869.3 647.8c-3 0-5.5 2.5-5.5 5.5v1.8c0 .6-.2 1.9-1.1 1.8-1.1-.1.3 1.9 2.5 1.9h8.2c2.2 0 3.6-2 2.5-1.9-1.1.1-1.1-2-1.1-2v-1.5c0-3.2-2.5-5.6-5.5-5.6zm0 1.2c1.9 0 3.7 1.3 3.7 2.9v.2c0 .1-.1.1-.1-.1-.4-1.2-2-2.2-3.5-2.2s-3.2.9-3.7 2.2c-.1.2-.1.2-.1.1v-.2c-.1-1.6 1.8-2.9 3.7-2.9zm0 8.4c-2.3 0-4.1-1.7-4.1-4 0 0 1.8-1.6 4.2-1.6 2.4 0 4.1 1.6 4.1 1.6-.1 2.2-2 4-4.2 4zM861.1 662.8v5.5c0 .8.6 1.4 1.4 1.4h13.8c.8 0 1.4-.6 1.4-1.4v-5.5c0-1.5-1.2-2.7-2.7-2.7h-1.3c-.2 0-.5.1-.6.2l-1.4 1c-.2.1-.3.3-.4.5l-1.6 5.5c-.1.2-.1.2-.2 0l-1.7-5.4c-.1-.2-.2-.4-.4-.5l-1.6-1.1c-.2-.1-.4-.2-.6-.2h-1.1c-1.8 0-3 1.2-3 2.7zm6 2.6c.3 0 .6.3.6.6s-.3.6-.6.6-.6-.3-.6-.6c.1-.4.3-.6.6-.6zm0 2.1c.3 0 .6.3.6.6s-.3.6-.6.6-.6-.3-.6-.6.3-.6.6-.6z"/></g><g class="st0"><path class="st2" d="M1193 304.8c-1.4 0-2.6 1.2-2.6 2.6v.8c0 .3-.1.9-.5.9-.5-.1.1.9 1.2.9h3.9c1 0 1.7-1 1.2-.9-.5.1-.5-1-.5-1v-.7c-.1-1.5-1.3-2.6-2.7-2.6zm0 .6c.9 0 1.8.6 1.8 1.4v.1c0 .1 0 0-.1-.1-.2-.6-.9-1-1.7-1-.8 0-1.5.4-1.7 1 0 .1-.1.1-.1.1v-.1c0-.8.9-1.4 1.8-1.4zm0 3.9c-1.1 0-2-.8-2-1.9 0 0 .9-.8 2-.8s1.9.8 1.9.8c.1 1.1-.8 1.9-1.9 1.9zM1189.1 312v2.6c0 .4.3.7.7.7H1196.4c.4 0 .7-.3.7-.7V312c0-.7-.6-1.3-1.3-1.3h-.6c-.1 0-.2 0-.3.1l-.7.5c-.1.1-.2.2-.2.3l-.8 2.6c0 .1-.1.1-.1 0l-.8-2.6c0-.1-.1-.2-.2-.2l-.8-.5c-.1-.1-.2-.1-.3-.1h-.5c-.8-.1-1.4.4-1.4 1.2zm2.9 1.2c.2 0 .3.1.3.3 0 .2-.1.3-.3.3-.2 0-.3-.1-.3-.3 0-.2.1-.3.3-.3zm0 1c.2 0 .3.1.3.3 0 .2-.1.3-.3.3-.2 0-.3-.1-.3-.3 0-.2.1-.3.3-.3z"/></g><g class="st0"><path class="st2" d="M912 93.8c-1.4 0-2.6 1.2-2.6 2.6v.8c0 .3-.1.9-.5.9-.6-.1.1.9 1.1.9h3.9c1 0 1.7-1 1.2-.9-.5.1-.5-1-.5-1v-.7c0-1.5-1.2-2.6-2.6-2.6zm0 .6c.9 0 1.8.6 1.8 1.4v.1c0 .1 0 0-.1-.1-.2-.6-.9-1-1.7-1-.8 0-1.5.4-1.7 1 0 .1-.1.1-.1.1v-.1c0-.8.9-1.4 1.8-1.4zm0 3.9c-1.1 0-2-.8-2-1.9 0 0 .9-.8 2-.8s1.9.8 1.9.8c.1 1.1-.8 1.9-1.9 1.9zM908.1 101v2.6c0 .4.3.7.7.7H915.4c.4 0 .7-.3.7-.7V101c0-.7-.6-1.3-1.3-1.3h-.8c-.1 0-.2 0-.3.1l-.7.5c-.1.1-.2.2-.2.3l-.8 2.6c0 .1-.1.1-.1 0l-.8-2.6c0-.1-.1-.2-.2-.2l-.8-.5c-.1-.1-.2-.1-.3-.1h-.5c-.6-.1-1.2.4-1.2 1.2zm2.9 1.2c.2 0 .3.1.3.3 0 .2-.1.3-.3.3-.2 0-.3-.1-.3-.3 0-.2.1-.3.3-.3zm0 1c.2 0 .3.1.3.3 0 .2-.1.3-.3.3-.2 0-.3-.1-.3-.3 0-.2.1-.3.3-.3z"/></g><g class="st0"><path class="st2" d="M1014 722.3c-4.3 0-7.8 3.5-7.8 7.8v2.5c-.1.8-.3 2.7-1.6 2.6-1.6-.2.4 2.7 3.5 2.8h11.7c3.1 0 5.1-2.9 3.6-2.8-1.6.2-1.6-2.9-1.6-2.9v-2.1c0-4.4-3.5-7.9-7.8-7.9zm0 1.7c2.7 0 5.2 1.9 5.2 4.2v.3c0 .2-.1.1-.2-.2-.6-1.8-2.8-3.1-5.1-3.1s-4.6 1.3-5.2 3.1c-.1.3-.2.3-.2.2v-.3c.1-2.3 2.8-4.2 5.5-4.2zm0 11.9c-3.2 0-5.9-2.5-5.9-5.7 0 0 2.6-2.3 5.9-2.3 3.4 0 5.8 2.3 5.8 2.3.1 3.3-2.6 5.7-5.8 5.7zM1002.3 743.8v7.8c0 1.1.9 2 2 2h19.6c1.1 0 2-.9 2-2v-7.8c0-2.2-1.8-3.9-3.9-3.9h-1.8c-.3 0-.7.1-.9.3l-2 1.4c-.2.2-.5.5-.5.8l-2.3 7.9c-.1.3-.2.3-.3 0l-2.4-7.8c-.1-.3-.3-.6-.6-.7l-2.2-1.5c-.2-.2-.6-.3-.9-.3h-1.6c-2.5-.1-4.2 1.6-4.2 3.8zm8.6 3.6c.5 0 .8.4.8.8 0 .5-.4.8-.8.8-.5 0-.8-.4-.8-.8 0-.5.4-.8.8-.8zm0 2.9c.5 0 .8.4.8.8 0 .5-.4.8-.8.8-.5 0-.8-.4-.8-.8s.4-.8.8-.8z"/></g><g class="st0"><path class="st2" d="M1100.7 787.7c-3 0-5.5 2.5-5.5 5.5v1.8c0 .6-.2 1.9-1.1 1.8-1.1-.1.3 1.9 2.5 1.9h8.3c2.2 0 3.6-2.1 2.5-1.9-1.1.1-1.1-2.1-1.1-2.1v-1.5c-.1-3-2.6-5.5-5.6-5.5zm0 1.3c1.9 0 3.7 1.3 3.7 3v.2c0 .1-.1.1-.1-.1-.4-1.2-2-2.2-3.6-2.2s-3.2.9-3.7 2.2c-.1.2-.1.2-.1.1v-.2c0-1.7 1.9-3 3.8-3zm0 8.4c-2.3 0-4.1-1.7-4.1-4 0 0 1.8-1.6 4.2-1.6 2.4 0 4.1 1.6 4.1 1.6-.1 2.2-1.9 4-4.2 4zM1092.4 802.9v5.5c0 .8.6 1.4 1.4 1.4h13.8c.8 0 1.4-.6 1.4-1.4v-5.5c0-1.5-1.2-2.8-2.8-2.8h-1.3c-.2 0-.5.1-.6.2l-1.4 1c-.2.1-.3.3-.4.5l-1.6 5.6c-.1.2-.1.2-.2 0l-1.7-5.5c-.1-.2-.2-.4-.4-.5l-1.6-1.1c-.2-.1-.4-.2-.6-.2h-1.1c-1.6 0-2.9 1.2-2.9 2.8zm6.1 2.5c.3 0 .6.3.6.6s-.3.6-.6.6-.6-.3-.6-.6c.1-.3.3-.6.6-.6zm0 2.1c.3 0 .6.3.6.6s-.3.6-.6.6-.6-.3-.6-.6c.1-.4.3-.6.6-.6z"/></g><g class="st0"><path class="st2" d="M1078 518.1c-2.9 0-5.3 2.4-5.3 5.3v1.7c0 .5-.2 1.8-1.1 1.7-1.1-.1.3 1.9 2.4 1.9h8c2.1 0 3.5-2 2.4-1.9-1.1.1-1.1-2-1.1-2v-1.5c0-2.8-2.4-5.2-5.3-5.2zm0 1.2c1.8 0 3.6 1.3 3.6 2.9v.2c0 .1-.1.1-.1-.1-.4-1.2-1.9-2.1-3.4-2.1s-3.1.9-3.5 2.1c-.1.2-.1.2-.1.1v-.2c-.2-1.6 1.7-2.9 3.5-2.9zm0 8.1c-2.2 0-4-1.7-4-3.9 0 0 1.8-1.6 4-1.6 2.3 0 3.9 1.6 3.9 1.6.1 2.2-1.7 3.9-3.9 3.9zM1070.1 532.7v5.3c0 .7.6 1.3 1.3 1.3H1084.6c.7 0 1.3-.6 1.3-1.3v-5.3c0-1.5-1.2-2.7-2.7-2.7h-1.2c-.2 0-.5.1-.6.2l-1.4.9c-.2.1-.3.3-.4.5l-1.6 5.4c-.1.2-.1.2-.2 0l-1.7-5.3c-.1-.2-.2-.4-.4-.5l-1.5-1c-.2-.1-.4-.2-.6-.2h-1.1c-1.3 0-2.4 1.2-2.4 2.7zm5.8 2.4c.3 0 .6.3.6.6s-.2.6-.6.6-.6-.3-.6-.6c.1-.3.3-.6.6-.6zm0 2.1c.3 0 .6.3.6.6s-.2.6-.6.6-.6-.3-.6-.6c.1-.4.3-.6.6-.6z"/></g><g class="st0"><path class="st2" d="M383 169.4c-2.9 0-5.3 2.4-5.3 5.3v1.7c0 .5-.2 1.8-1.1 1.7-1.1-.1.3 1.9 2.4 1.9h8c2.1 0 3.5-2 2.4-1.9-1.1.1-1.1-2-1.1-2v-1.5c0-2.8-2.4-5.2-5.3-5.2zm0 1.2c1.8 0 3.6 1.3 3.6 2.9v.2c0 .1-.1.1-.1-.1-.4-1.2-1.9-2.1-3.4-2.1s-3.1.9-3.5 2.1c-.1.2-.1.2-.1.1v-.2c-.2-1.6 1.7-2.9 3.5-2.9zm0 8.1c-2.2 0-4-1.7-4-3.9 0 0 1.8-1.6 4-1.6 2.3 0 3.9 1.6 3.9 1.6.1 2.2-1.7 3.9-3.9 3.9zM375 184v5.3c0 .7.6 1.3 1.3 1.3H389.5c.7 0 1.3-.6 1.3-1.3V184c0-1.5-1.2-2.7-2.7-2.7h-1.2c-.2 0-.5.1-.6.2l-1.4.9c-.2.1-.3.3-.4.5l-1.6 5.4c-.1.2-.1.2-.2 0L381 183c-.1-.2-.2-.4-.4-.5l-1.5-1c-.2-.1-.4-.2-.6-.2h-1.1c-1.2 0-2.4 1.2-2.4 2.7zm5.9 2.4c.3 0 .6.3.6.6s-.2.6-.6.6c-.3 0-.6-.3-.6-.6.1-.3.3-.6.6-.6zm0 2c.3 0 .6.3.6.6s-.2.6-.6.6c-.3 0-.6-.3-.6-.6.1-.3.3-.6.6-.6z"/></g><g class="st0"><path class="st7" d="M299.9 427.7c-29.8 0-54-24.2-54-54s24.2-54 54-54 54 24.2 54 54-24.3 54-54 54zm0-101.6c-26.3 0-47.6 21.4-47.6 47.6 0 26.3 21.4 47.6 47.6 47.6 26.3 0 47.6-21.4 47.6-47.6 0-26.3-21.4-47.6-47.6-47.6z"/></g><g class="st0"><path class="st4" d="M149.5 281.5c-22.6 0-41-18.4-41-41s18.4-41 41-41 41 18.4 41 41-18.4 41-41 41zm0-77.2c-19.9 0-36.2 16.2-36.2 36.2s16.2 36.2 36.2 36.2 36.2-16.2 36.2-36.2-16.3-36.2-36.2-36.2z"/></g><g class="st0"><path class="st8" d="M234 140.5c-16.3 0-29.5-13.2-29.5-29.5s13.2-29.5 29.5-29.5 29.5 13.2 29.5 29.5-13.2 29.5-29.5 29.5zm0-55.5c-14.4 0-26 11.7-26 26s11.7 26 26 26c14.4 0 26-11.7 26-26s-11.6-26-26-26z"/></g><g class="st0"><path class="st6" d="M503.5 182.5c-22.6 0-41-18.4-41-41s18.4-41 41-41 41 18.4 41 41-18.4 41-41 41zm0-77.2c-19.9 0-36.2 16.2-36.2 36.2s16.2 36.2 36.2 36.2c19.9 0 36.2-16.2 36.2-36.2s-16.3-36.2-36.2-36.2z"/></g><g class="st0"><path class="st6" d="M588.5 333.5c-22.6 0-41-18.4-41-41s18.4-41 41-41 41 18.4 41 41-18.4 41-41 41zm0-77.2c-19.9 0-36.2 16.2-36.2 36.2s16.2 36.2 36.2 36.2c19.9 0 36.2-16.2 36.2-36.2s-16.3-36.2-36.2-36.2z"/></g><g class="st0"><path class="st5" d="M309.5 641.5c-22.6 0-41-18.4-41-41s18.4-41 41-41 41 18.4 41 41-18.4 41-41 41zm0-77.2c-19.9 0-36.2 16.2-36.2 36.2 0 19.9 16.2 36.2 36.2 36.2 19.9 0 36.2-16.2 36.2-36.2 0-19.9-16.3-36.2-36.2-36.2z"/></g><g class="st0"><path class="st3" d="M527 580.9c-29.8 0-54-24.2-54-54s24.2-54 54-54 54 24.2 54 54-24.2 54-54 54zm0-101.7c-26.3 0-47.6 21.4-47.6 47.6 0 26.3 21.4 47.6 47.6 47.6 26.3 0 47.6-21.4 47.6-47.6 0-26.2-21.3-47.6-47.6-47.6z"/></g></svg>