<svg xmlns="http://www.w3.org/2000/svg" width="31.56" height="31.56"><path d="M27.53.01H4.03A4.02 4.02 0 00.01 4.03v23.5a4.02 4.02 0 004.02 4.02h23.5a4.02 4.02 0 004.02-4.02V4.03A4.02 4.02 0 0027.53.01zm-2.95 11.33a12.888 12.888 0 01-7.65 12.26 13.394 13.394 0 01-12.21-.98 9.323 9.323 0 006.72-1.85 4.538 4.538 0 01-4.24-3.1 4.73 4.73 0 002.05-.08 4.539 4.539 0 01-3.64-4.44 4.465 4.465 0 002.05.56 4.468 4.468 0 01-1.4-5.96 12.932 12.932 0 009.35 4.66 4.472 4.472 0 013.24-5.33 4.638 4.638 0 014.5 1.26 8.979 8.979 0 002.88-1.09 4.53 4.53 0 01-1.99 2.48 9.376 9.376 0 002.6-.71 9.063 9.063 0 01-2.26 2.32z" fill="#e5e5e5" fill-rule="evenodd"/></svg>